<svg class="animated" id="freepik_stories-version-control" xmlns="http://www.w3.org/2000/svg" viewBox="0 0 500 500" version="1.1" xmlns:xlink="http://www.w3.org/1999/xlink" xmlns:svgjs="http://svgjs.com/svgjs"><style>svg#freepik_stories-version-control:not(.animated) .animable {opacity: 0;}svg#freepik_stories-version-control.animated #freepik--background-simple--inject-213 {animation: 6s Infinite  linear heartbeat;animation-delay: 0s;}svg#freepik_stories-version-control.animated #freepik--version-control--inject-213 {animation: 3s Infinite  linear floating;animation-delay: 0s;}            @keyframes heartbeat {                0% {                    transform: scale(1);                }                10% {                    transform: scale(1.1);                }                30% {                    transform: scale(1);                }                40% {                    transform: scale(1);                }                50% {                    transform: scale(1.1);                }                60% {                    transform: scale(1);                }                100% {                    transform: scale(1);                }            }                    @keyframes floating {                0% {                    opacity: 1;                    transform: translateY(0px);                }                50% {                    transform: translateY(-10px);                }                100% {                    opacity: 1;                    transform: translateY(0px);                }            }        </style><g id="freepik--background-simple--inject-213" class="animable" style="transform-origin: 273.992px 198.261px;"><path d="M174.4,323.18c-24.86-3.91-48.44-17.09-62.25-38-17.59-26.61-17.6-68,10-87.71,12.09-8.64,26.61-13.06,40.71-17.74,21.29-7.07,42.4-15.1,61.62-26.67,18.27-11,31.35-28.69,46-43.87,12.48-12.94,26.35-25.09,43-31.88,39.18-16,92.18,7.15,115.81,39.8,26.15,36.13,25.13,85.48-4.68,119.07a96.25,96.25,0,0,1-54.35,30.57c-26.63,4.83-60.63-4.53-83.94,13-14.9,11.2-24.46,23.6-41.79,31.78-18,8.48-37.79,13.45-57.74,12.82A99.26,99.26,0,0,1,174.4,323.18Z" style="fill: rgb(19, 64, 105); transform-origin: 273.992px 198.261px;" id="elmh1qk713krd" class="animable"></path><g id="elm07yq7m37p"><path d="M174.4,323.18c-24.86-3.91-48.44-17.09-62.25-38-17.59-26.61-17.6-68,10-87.71,12.09-8.64,26.61-13.06,40.71-17.74,21.29-7.07,42.4-15.1,61.62-26.67,18.27-11,31.35-28.69,46-43.87,12.48-12.94,26.35-25.09,43-31.88,39.18-16,92.18,7.15,115.81,39.8,26.15,36.13,25.13,85.48-4.68,119.07a96.25,96.25,0,0,1-54.35,30.57c-26.63,4.83-60.63-4.53-83.94,13-14.9,11.2-24.46,23.6-41.79,31.78-18,8.48-37.79,13.45-57.74,12.82A99.26,99.26,0,0,1,174.4,323.18Z" style="fill: rgb(255, 255, 255); opacity: 0.9; transform-origin: 273.992px 198.261px;" class="animable"></path></g></g><g id="freepik--Shadow--inject-213" class="animable" style="transform-origin: 250px 416.24px;"><ellipse id="freepik--path--inject-213" cx="250" cy="416.24" rx="193.89" ry="11.32" style="fill: rgb(245, 245, 245); transform-origin: 250px 416.24px;" class="animable"></ellipse></g><g id="freepik--version-control--inject-213" class="animable animator-active" style="transform-origin: 222.767px 170.215px;"><g id="elqtascqck1db"><rect x="80.63" y="128.32" width="0.89" height="31.03" style="fill: rgb(19, 64, 105); transform-origin: 81.075px 143.835px; transform: rotate(-3.19deg);" class="animable"></rect></g><g id="elg9bhuag8h6e"><rect x="82.72" y="174.99" width="0.89" height="12.66" style="fill: rgb(19, 64, 105); transform-origin: 83.165px 181.32px; transform: rotate(-3.19deg);" class="animable"></rect></g><path d="M362.31,247.55H92.73a3,3,0,0,1-3-2.86L81.41,96.07a3,3,0,0,1,3-3.2H354a3,3,0,0,1,3,2.86l8.29,148.62A3,3,0,0,1,362.31,247.55Z" style="fill: rgb(255, 255, 255); transform-origin: 223.35px 170.21px;" id="elzvt543gtir" class="animable"></path><path d="M362.31,248H92.73a3.48,3.48,0,0,1-3.47-3.28L81,96.09a3.46,3.46,0,0,1,3.47-3.66H354a3.48,3.48,0,0,1,3.47,3.28l8.29,148.62a3.47,3.47,0,0,1-3.47,3.67ZM84.44,93.32A2.57,2.57,0,0,0,81.86,96l8.29,148.63a2.59,2.59,0,0,0,2.58,2.44H362.31a2.58,2.58,0,0,0,2.58-2.73L356.6,95.75A2.59,2.59,0,0,0,354,93.32Z" style="fill: rgb(19, 64, 105); transform-origin: 223.38px 170.215px;" id="el2cp9qe6395m" class="animable"></path><path d="M93,104.54a3.37,3.37,0,0,1-3.32-3.15,3,3,0,0,1,3-3.2A3.38,3.38,0,0,1,96,101.34h0a3,3,0,0,1-3,3.2Zm-.3-5.46a2.13,2.13,0,0,0-1.56.66,2.09,2.09,0,0,0-.57,1.6A2.46,2.46,0,0,0,93,103.65a2.09,2.09,0,0,0,1.56-.66,2.06,2.06,0,0,0,.57-1.6h0A2.47,2.47,0,0,0,92.67,99.08Z" style="fill: rgb(19, 64, 105); transform-origin: 92.84px 101.365px;" id="elou2frawyy9" class="animable"></path><path d="M106,104.54a3.38,3.38,0,0,1-3.32-3.15,3,3,0,0,1,3-3.2,3.39,3.39,0,0,1,3.33,3.15h0a3,3,0,0,1-.82,2.26A3,3,0,0,1,106,104.54Zm-.3-5.46a2.11,2.11,0,0,0-2.13,2.26,2.46,2.46,0,0,0,2.43,2.31,2.12,2.12,0,0,0,2.14-2.26h0A2.48,2.48,0,0,0,105.74,99.08Z" style="fill: rgb(19, 64, 105); transform-origin: 105.845px 101.365px;" id="elxenympzoir" class="animable"></path><path d="M119.12,104.54a3.38,3.38,0,0,1-3.33-3.15,3,3,0,0,1,.81-2.26,3,3,0,0,1,2.21-.94,3.39,3.39,0,0,1,3.33,3.15h0a3,3,0,0,1-3,3.2Zm-.31-5.46a2.14,2.14,0,0,0-1.56.66,2.17,2.17,0,0,0-.57,1.6,2.47,2.47,0,0,0,2.44,2.31,2.11,2.11,0,0,0,1.56-.66,2.14,2.14,0,0,0,.57-1.6A2.48,2.48,0,0,0,118.81,99.08Z" style="fill: rgb(19, 64, 105); transform-origin: 118.965px 101.365px;" id="elj4z69hvf26s" class="animable"></path><rect x="85.55" y="169.77" width="275.65" height="0.89" style="fill: rgb(19, 64, 105); transform-origin: 223.375px 170.215px;" id="elkkea93dk7tp" class="animable"></rect><polygon points="260.03 170.53 237.18 148.89 136.91 148.89 116.49 170.52 115.85 169.91 136.53 148 237.54 148 237.67 148.13 260.64 169.89 260.03 170.53" style="fill: rgb(19, 64, 105); transform-origin: 188.245px 159.265px;" id="elekc6xsz368k" class="animable"></polygon><polygon points="287.42 192.42 179.32 192.42 179.19 192.3 156.22 170.53 156.83 169.89 179.68 191.53 287.04 191.53 307.46 169.91 308.1 170.52 287.42 192.42" style="fill: rgb(19, 64, 105); transform-origin: 232.16px 181.155px;" id="el3ty8flsorri" class="animable"></polygon><polygon points="363.63 214.18 260.44 214.18 260.31 214.06 237.33 192.3 237.94 191.65 260.79 213.29 363.63 213.29 363.63 214.18" style="fill: rgb(19, 64, 105); transform-origin: 300.48px 202.915px;" id="elzb2a979xnz" class="animable"></polygon><path d="M104.78,170.21a4.54,4.54,0,0,1-4.58,4.85,5.2,5.2,0,0,1-5.13-4.85,4.54,4.54,0,0,1,4.59-4.85A5.19,5.19,0,0,1,104.78,170.21Z" style="fill: rgb(255, 255, 255); transform-origin: 99.925px 170.21px;" id="els72qsplu8i" class="animable"></path><path d="M100.2,175.51a5.65,5.65,0,0,1-5.57-5.27,5,5,0,0,1,5-5.33,5.65,5.65,0,0,1,5.56,5.28h0a5,5,0,0,1-5,5.32Zm-.54-9.71a4.1,4.1,0,0,0-4.14,4.39,4.74,4.74,0,0,0,4.68,4.43,4.09,4.09,0,0,0,3-1.28,4.13,4.13,0,0,0,1.12-3.1h0A4.76,4.76,0,0,0,99.66,165.8Z" style="fill: rgb(19, 64, 105); transform-origin: 99.9097px 170.21px;" id="elywojhifgnah" class="animable"></path><path d="M121,170.21a4.54,4.54,0,0,1-4.58,4.85,5.19,5.19,0,0,1-5.12-4.85,4.54,4.54,0,0,1,4.58-4.85A5.19,5.19,0,0,1,121,170.21Z" style="fill: rgb(255, 255, 255); transform-origin: 116.15px 170.21px;" id="elol5grwsl43c" class="animable"></path><path d="M116.44,175.51a5.65,5.65,0,0,1-5.57-5.27,5,5,0,0,1,5-5.33,5.65,5.65,0,0,1,5.57,5.28h0a5,5,0,0,1-5,5.32Zm-.54-9.71a4.1,4.1,0,0,0-4.14,4.39,4.76,4.76,0,0,0,4.68,4.43,4.09,4.09,0,0,0,4.14-4.38h0A4.76,4.76,0,0,0,115.9,165.8Z" style="fill: rgb(19, 64, 105); transform-origin: 116.155px 170.21px;" id="el376mf1fvvej" class="animable"></path><path d="M226.24,192a4.54,4.54,0,0,1-4.58,4.86,5.2,5.2,0,0,1-5.12-4.86,4.54,4.54,0,0,1,4.58-4.85A5.18,5.18,0,0,1,226.24,192Z" style="fill: rgb(255, 255, 255); transform-origin: 221.39px 192.005px;" id="elxu58urw2fw" class="animable"></path><path d="M221.66,197.27a5.65,5.65,0,0,1-5.57-5.27,5,5,0,0,1,5-5.33,5.65,5.65,0,0,1,5.57,5.28h0a5,5,0,0,1-5,5.32Zm-.54-9.7A4.08,4.08,0,0,0,217,192a4.76,4.76,0,0,0,4.68,4.43A4.09,4.09,0,0,0,225.8,192h0A4.75,4.75,0,0,0,221.12,187.57Z" style="fill: rgb(19, 64, 105); transform-origin: 221.375px 191.97px;" id="el7puk3p02d1e" class="animable"></path><path d="M242.49,192a4.54,4.54,0,0,1-4.58,4.86,5.2,5.2,0,0,1-5.13-4.86,4.54,4.54,0,0,1,4.58-4.85A5.2,5.2,0,0,1,242.49,192Z" style="fill: rgb(255, 255, 255); transform-origin: 237.635px 192.005px;" id="eltp6f9jmfjn" class="animable"></path><path d="M237.91,197.27a5.65,5.65,0,0,1-5.57-5.27,5,5,0,0,1,5-5.33,5.65,5.65,0,0,1,5.57,5.28,5,5,0,0,1-5,5.32Zm-.55-9.7a4.08,4.08,0,0,0-4.13,4.38,4.74,4.74,0,0,0,4.68,4.43A4.09,4.09,0,0,0,242,192,4.74,4.74,0,0,0,237.36,187.57Z" style="fill: rgb(19, 64, 105); transform-origin: 237.625px 191.97px;" id="el5uk5qogxggl" class="animable"></path><polygon points="339.96 170.53 294.13 127.13 186.78 127.13 166.36 148.75 165.71 148.14 186.39 126.24 294.49 126.24 294.62 126.36 340.57 169.89 339.96 170.53" style="fill: rgb(19, 64, 105); transform-origin: 253.14px 148.385px;" id="elkxorkmvz0z" class="animable"></polygon><g id="elv29uvzy2qw7"><ellipse cx="149.79" cy="148.45" rx="4.72" ry="4.99" style="fill: rgb(19, 64, 105); transform-origin: 149.79px 148.45px; transform: rotate(-45.79deg);" class="animable"></ellipse></g><path d="M150.06,153.75a5.65,5.65,0,0,1-5.57-5.28,5,5,0,0,1,5-5.32,5.65,5.65,0,0,1,5.57,5.27,5,5,0,0,1-5,5.33Zm-.54-9.71a4.11,4.11,0,0,0-3,1.28,4.16,4.16,0,0,0-1.11,3.1,4.76,4.76,0,0,0,4.68,4.44,4.1,4.1,0,0,0,4.14-4.39A4.76,4.76,0,0,0,149.52,144Z" style="fill: rgb(19, 64, 105); transform-origin: 149.775px 148.45px;" id="elqk98ku3sccm" class="animable"></path><g id="elhetguyvq1nk"><ellipse cx="166.03" cy="148.45" rx="4.72" ry="4.99" style="fill: rgb(19, 64, 105); transform-origin: 166.03px 148.45px; transform: rotate(-45.8deg);" class="animable"></ellipse></g><path d="M166.31,153.75a5.65,5.65,0,0,1-5.57-5.28,5,5,0,0,1,5-5.32,5.65,5.65,0,0,1,5.57,5.27h0a5,5,0,0,1-5,5.33Zm-.55-9.71a4.09,4.09,0,0,0-4.13,4.38,4.74,4.74,0,0,0,4.68,4.44,4.09,4.09,0,0,0,4.13-4.39h0A4.74,4.74,0,0,0,165.76,144Z" style="fill: rgb(19, 64, 105); transform-origin: 166.025px 148.45px;" id="elu0g3qge1qjm" class="animable"></path><g id="eljo5n5tzebgs"><ellipse cx="182.28" cy="148.45" rx="4.72" ry="4.99" style="fill: rgb(19, 64, 105); transform-origin: 182.28px 148.45px; transform: rotate(-45.79deg);" class="animable"></ellipse></g><path d="M182.55,153.75a5.65,5.65,0,0,1-5.57-5.28,5,5,0,0,1,5-5.32,5.66,5.66,0,0,1,5.57,5.27h0a5.08,5.08,0,0,1-1.36,3.77A5,5,0,0,1,182.55,153.75ZM182,144a4.09,4.09,0,0,0-4.14,4.38,4.74,4.74,0,0,0,4.68,4.44,4.1,4.1,0,0,0,4.14-4.39h0A4.76,4.76,0,0,0,182,144Z" style="fill: rgb(19, 64, 105); transform-origin: 182.264px 148.45px;" id="elh8qhkplkyui" class="animable"></path><path d="M203.38,148.45a4.55,4.55,0,0,1-4.59,4.85,5.19,5.19,0,0,1-5.12-4.85,4.54,4.54,0,0,1,4.58-4.86A5.21,5.21,0,0,1,203.38,148.45Z" style="fill: rgb(19, 64, 105); transform-origin: 198.524px 148.445px;" id="el16po1224fo8" class="animable"></path><path d="M198.79,153.75a5.66,5.66,0,0,1-5.57-5.28,5,5,0,0,1,5-5.32,5.65,5.65,0,0,1,5.57,5.27,5,5,0,0,1-5,5.33Zm-.54-9.71a4.11,4.11,0,0,0-3,1.28,4.16,4.16,0,0,0-1.11,3.1,4.76,4.76,0,0,0,4.68,4.44,4.1,4.1,0,0,0,4.14-4.39A4.76,4.76,0,0,0,198.25,144Z" style="fill: rgb(19, 64, 105); transform-origin: 198.505px 148.45px;" id="elb2qxb3erncn" class="animable"></path><path d="M249,170.21a4.54,4.54,0,0,1-4.58,4.85,5.19,5.19,0,0,1-5.13-4.85,4.54,4.54,0,0,1,4.58-4.85A5.2,5.2,0,0,1,249,170.21Z" style="fill: rgb(19, 64, 105); transform-origin: 244.145px 170.21px;" id="elod2bewg5ges" class="animable"></path><path d="M244.37,175.51a5.65,5.65,0,0,1-5.57-5.27,5,5,0,0,1,5-5.33,5.65,5.65,0,0,1,5.57,5.28,5,5,0,0,1-5,5.32Zm-.55-9.71a4.09,4.09,0,0,0-4.13,4.39,4.74,4.74,0,0,0,4.68,4.43,4.09,4.09,0,0,0,4.13-4.38A4.74,4.74,0,0,0,243.82,165.8Z" style="fill: rgb(19, 64, 105); transform-origin: 244.085px 170.21px;" id="elm04tdtr26yn" class="animable"></path><path d="M161.38,170.21a4.54,4.54,0,0,1-4.59,4.85,5.19,5.19,0,0,1-5.12-4.85,4.54,4.54,0,0,1,4.58-4.85A5.2,5.2,0,0,1,161.38,170.21Z" style="fill: rgb(19, 64, 105); transform-origin: 156.525px 170.21px;" id="el47t9cdsj2fi" class="animable"></path><path d="M156.8,175.51a5.65,5.65,0,0,1-5.57-5.27,5,5,0,0,1,5-5.33,5.65,5.65,0,0,1,5.57,5.28,5,5,0,0,1-5,5.32Zm-.55-9.71a4.11,4.11,0,0,0-4.14,4.39,4.76,4.76,0,0,0,4.69,4.43,4.09,4.09,0,0,0,4.13-4.38A4.74,4.74,0,0,0,156.25,165.8Z" style="fill: rgb(19, 64, 105); transform-origin: 156.515px 170.21px;" id="elqdxwmg0u2ag" class="animable"></path><path d="M265.19,170.21a4.54,4.54,0,0,1-4.58,4.85,5.2,5.2,0,0,1-5.13-4.85,4.54,4.54,0,0,1,4.59-4.85A5.19,5.19,0,0,1,265.19,170.21Z" style="fill: rgb(255, 255, 255); transform-origin: 260.335px 170.21px;" id="elllbka3p6y8" class="animable"></path><path d="M260.61,175.51a5.65,5.65,0,0,1-5.57-5.27,5,5,0,0,1,5-5.33,5.66,5.66,0,0,1,5.57,5.28h0a5,5,0,0,1-5,5.32Zm-.54-9.71a4.1,4.1,0,0,0-4.14,4.39,4.74,4.74,0,0,0,4.68,4.43,4.11,4.11,0,0,0,3-1.28,4.16,4.16,0,0,0,1.11-3.1h0A4.76,4.76,0,0,0,260.07,165.8Z" style="fill: rgb(19, 64, 105); transform-origin: 260.325px 170.21px;" id="el6pf2ara9gpu" class="animable"></path><path d="M328.88,170.21a4.54,4.54,0,0,1-4.59,4.85,5.19,5.19,0,0,1-5.12-4.85,4.54,4.54,0,0,1,4.58-4.85A5.2,5.2,0,0,1,328.88,170.21Z" style="fill: rgb(255, 255, 255); transform-origin: 324.025px 170.21px;" id="el17mwxm22qcd" class="animable"></path><path d="M324.29,175.51a5.67,5.67,0,0,1-5.57-5.27,5.06,5.06,0,0,1,1.36-3.77,5,5,0,0,1,3.67-1.56,5.65,5.65,0,0,1,5.57,5.28h0a5,5,0,0,1-5,5.32Zm-.54-9.71a4.11,4.11,0,0,0-4.14,4.39,4.76,4.76,0,0,0,4.68,4.43,4.09,4.09,0,0,0,4.14-4.38h0A4.74,4.74,0,0,0,323.75,165.8Z" style="fill: rgb(19, 64, 105); transform-origin: 324.02px 170.21px;" id="elg8z7y1hmbqg" class="animable"></path><path d="M312.63,170.21a4.54,4.54,0,0,1-4.58,4.85,5.19,5.19,0,0,1-5.12-4.85,4.54,4.54,0,0,1,4.58-4.85A5.19,5.19,0,0,1,312.63,170.21Z" style="fill: rgb(255, 255, 255); transform-origin: 307.78px 170.21px;" id="elcy7mi75qdg" class="animable"></path><path d="M308.05,175.51a5.65,5.65,0,0,1-5.57-5.27,5,5,0,0,1,5-5.33,5.65,5.65,0,0,1,5.57,5.28h0a5,5,0,0,1-5,5.32Zm-.54-9.71a4.1,4.1,0,0,0-4.14,4.39,4.76,4.76,0,0,0,4.68,4.43,4.11,4.11,0,0,0,3-1.28,4.16,4.16,0,0,0,1.11-3.1h0A4.76,4.76,0,0,0,307.51,165.8Z" style="fill: rgb(19, 64, 105); transform-origin: 307.765px 170.21px;" id="elkczyztu46hi" class="animable"></path><path d="M345.12,170.21a4.54,4.54,0,0,1-4.58,4.85,5.2,5.2,0,0,1-5.13-4.85,4.54,4.54,0,0,1,4.59-4.85A5.19,5.19,0,0,1,345.12,170.21Z" style="fill: rgb(19, 64, 105); transform-origin: 340.265px 170.21px;" id="elmyiomt0rghb" class="animable"></path><path d="M340.54,175.51a5.65,5.65,0,0,1-5.57-5.27,5,5,0,0,1,5-5.33,5.65,5.65,0,0,1,5.56,5.28,5,5,0,0,1-5,5.32ZM340,165.8a4.1,4.1,0,0,0-4.14,4.39,4.74,4.74,0,0,0,4.68,4.43,4.09,4.09,0,0,0,3-1.28,4.13,4.13,0,0,0,1.12-3.1A4.76,4.76,0,0,0,340,165.8Z" style="fill: rgb(19, 64, 105); transform-origin: 340.25px 170.21px;" id="el2yd23q6xa5j" class="animable"></path></g><g id="freepik--Character--inject-213" class="animable" style="transform-origin: 374.707px 262.955px;"><path d="M406.06,122.6c3.21-2.18,6.27-10.19-2.79-12.18-8.69-1.92-8.64.55-15.14-1a5.25,5.25,0,0,0,3.37,2.69,106.15,106.15,0,0,1-10.87,1s2.48,1.59,3.35,1.59c-4.38,1.5-3.48,6.86-7.14,7.93,4.76,1.9,6.4-.73,6.4-.73s-4,3.38-3.14,8.31c.84-2.68,7.37-.33,7.37-.33s8.15,6.35,14.81,5.83S414.26,124.61,406.06,122.6Z" style="fill: rgb(38, 50, 56); transform-origin: 393.534px 122.58px;" id="elxjgn91tcn5" class="animable"></path><polygon points="345.86 405.68 338.81 403.39 343.19 386.76 350.24 389.05 345.86 405.68" style="fill: rgb(127, 62, 59); transform-origin: 344.525px 396.22px;" id="elgck1mers4j" class="animable"></polygon><path d="M338.7,402.45l7.92,2.57a.54.54,0,0,1,.37.65l-1.65,6.4a1.31,1.31,0,0,1-1.64.85c-2.74-.94-3.39-1.82-6.92-2.79a79.4,79.4,0,0,1-10-3.25c-2.76-1.29-1.44-4.07-.13-3.76,5.89,1.36,8.23.29,10.73-.63A2.16,2.16,0,0,1,338.7,402.45Z" style="fill: rgb(38, 50, 56); transform-origin: 336.082px 407.673px;" id="ela1pvwp2j9ja" class="animable"></path><g id="elbxhy3aevmgs"><polygon points="350.24 389.06 343.19 386.76 340.93 395.34 347.99 397.63 350.24 389.06" style="opacity: 0.2; transform-origin: 345.585px 392.195px;" class="animable"></polygon></g><path d="M369.51,220.72s-12.66,58.55-15.62,79.6c-3.25,23.05-15.46,92.27-15.46,92.27l13.09,3.62s18.14-67.13,23.44-89.54c5.75-24.33,21-86,21-86Z" style="fill: rgb(38, 50, 56); transform-origin: 367.195px 308.44px;" id="el16m3b7hizwc" class="animable"></path><g id="el35kq2piq4sy"><path d="M385.15,239.92c-5,11.34-7.47,36-5.53,47.35,3.54-14.55,7.8-31.85,11.09-45.16C389.6,238.25,387.76,234,385.15,239.92Z" style="opacity: 0.3; transform-origin: 384.834px 262.129px;" class="animable"></path></g><polygon points="351.85 396.47 337.83 392.61 338.11 386.9 353.89 392.35 351.85 396.47" style="fill: rgb(19, 64, 105); transform-origin: 345.86px 391.685px;" id="eloxuwynm3vu" class="animable"></polygon><path d="M335.8,402.87a9.63,9.63,0,0,0,2,.36.18.18,0,0,0,.16-.28c-.18-.23-1.73-2.24-2.7-2.18a.65.65,0,0,0-.54.34,1,1,0,0,0-.08,1A2,2,0,0,0,335.8,402.87Zm1.59,0c-1.34-.16-2.26-.5-2.48-.93a.62.62,0,0,1,.07-.63.32.32,0,0,1,.26-.17C335.76,401.08,336.74,402.06,337.39,402.84Z" style="fill: rgb(19, 64, 105); transform-origin: 336.266px 401.999px;" id="el3yh3lt96fi7" class="animable"></path><path d="M337.73,403.22h.08a.2.2,0,0,0,.13-.11c0-.08.85-2.06.36-3a.85.85,0,0,0-.62-.45.66.66,0,0,0-.76.3c-.41.72.16,2.53.73,3.18Zm0-3.17a.5.5,0,0,1,.31.26,3.85,3.85,0,0,1-.27,2.39,3.52,3.52,0,0,1-.51-2.53c0-.09.14-.19.39-.14Z" style="fill: rgb(19, 64, 105); transform-origin: 337.616px 401.426px;" id="ellpzsb0ha3p8" class="animable"></path><path d="M379.77,156.7a6.49,6.49,0,0,0-8.65,3.09l-.06.14c-.24.49-.58,1.19-.89,1.8l-1,1.89c-.67,1.25-1.34,2.52-2.05,3.75-1.41,2.48-2.91,4.89-4.49,7.19a61.91,61.91,0,0,1-5,6.42,30.57,30.57,0,0,1-5.2,4.61,13.34,13.34,0,0,1-2.88.39,19,19,0,0,1-4.55-.42,29.07,29.07,0,0,1-4.81-1.42c-.81-.3-1.63-.64-2.42-1-.4-.18-.81-.37-1.2-.57l-1.1-.53-.46-.23a3.22,3.22,0,0,0-3.83,5c.45.52.77.88,1.17,1.3s.77.77,1.17,1.15c.81.73,1.64,1.44,2.52,2.09a30.48,30.48,0,0,0,5.79,3.43,26,26,0,0,0,6.84,2,22.81,22.81,0,0,0,7.59-.14,4,4,0,0,0,1.18-.41l.35-.18a38.5,38.5,0,0,0,8.68-6.42,62,62,0,0,0,6.65-7.59,84.4,84.4,0,0,0,5.41-8.18c.81-1.4,1.6-2.81,2.33-4.26.37-.72.74-1.45,1.09-2.19s.67-1.44,1.05-2.34A6.5,6.5,0,0,0,379.77,156.7Z" style="fill: rgb(19, 64, 105); transform-origin: 356.952px 176.553px;" id="elc5913rgwxnh" class="animable"></path><g id="eltgu3oe239y8"><path d="M366.62,178.71c3.14-8.34,9.81-8.48,12.7-6.27-.21.39-.43.78-.65,1.17a84.91,84.91,0,0,1-5.15,7.91,65.35,65.35,0,0,1-6.27,7.38c-.72.71-1.46,1.41-2.23,2.09A32,32,0,0,1,366.62,178.71Z" style="opacity: 0.3; transform-origin: 372.136px 181.11px;" class="animable"></path></g><path d="M329.78,180.71a29,29,0,0,0-6.44.86l-4.72.12-.56,5.75,5.39,2,6-2.09a4.18,4.18,0,0,0,2.54-2.81h0C332.57,182.71,331.46,180.76,329.78,180.71Z" style="fill: rgb(127, 62, 59); transform-origin: 325.103px 185.075px;" id="elfcawp7qucv" class="animable"></path><path d="M333.9,181.16a8.21,8.21,0,0,0-4-1.23.7.7,0,0,0-.64.41c-1.11,2.43-.95,5.95-.82,7.44a.71.71,0,0,0,.78.65l3.86-.34a.73.73,0,0,0,.66-.65l.5-5.6A.73.73,0,0,0,333.9,181.16Z" style="fill: rgb(38, 50, 56); transform-origin: 331.295px 184.182px;" id="elgaz1k2uk8uj" class="animable"></path><polygon points="401.53 408.92 394.12 408.92 393.86 391.75 401.28 391.75 401.53 408.92" style="fill: rgb(127, 62, 59); transform-origin: 397.695px 400.335px;" id="el7turmku8832" class="animable"></polygon><path d="M393.73,408.06h8.33a.53.53,0,0,1,.55.51l.4,6.59a1.32,1.32,0,0,1-1.29,1.32c-2.9-.05-4.29-.22-8-.22-2.26,0-7,.23-10.15.23s-3-3.08-1.71-3.36c5.92-1.24,8.45-3,10.54-4.61A2.09,2.09,0,0,1,393.73,408.06Z" style="fill: rgb(38, 50, 56); transform-origin: 392.004px 412.275px;" id="el0q7byc3lkx5n" class="animable"></path><g id="elrlefob1ixi"><polygon points="401.28 391.76 393.86 391.76 394 400.61 401.41 400.61 401.28 391.76" style="opacity: 0.2; transform-origin: 397.635px 396.185px;" class="animable"></polygon></g><path d="M384,220.72s-.12,64.41,1.08,85.64c1.32,23.24,5.43,92.11,5.43,92.11h13.57s2.08-67,2.9-90c.89-25,2.21-87.75,2.21-87.75Z" style="fill: rgb(38, 50, 56); transform-origin: 396.593px 309.595px;" id="el8ai5j1igwi" class="animable"></path><polygon points="404.6 398.47 389.93 398.47 388.81 393.01 405 393.82 404.6 398.47" style="fill: rgb(19, 64, 105); transform-origin: 396.905px 395.74px;" id="elln8eialo2x" class="animable"></polygon><path d="M391.1,409.35a9.51,9.51,0,0,0,2-.26.19.19,0,0,0,.13-.14.19.19,0,0,0-.07-.17c-.24-.17-2.34-1.6-3.24-1.24a.67.67,0,0,0-.41.48,1,1,0,0,0,.22.94A2,2,0,0,0,391.1,409.35Zm1.5-.51c-1.32.26-2.3.22-2.65-.12a.64.64,0,0,1-.12-.62.3.3,0,0,1,.19-.24C390.51,407.67,391.74,408.29,392.6,408.84Z" style="fill: rgb(19, 64, 105); transform-origin: 391.352px 408.42px;" id="elcuzcqxjtj0e" class="animable"></path><path d="M393,409.09a.12.12,0,0,0,.08,0,.16.16,0,0,0,.09-.14c0-.09.17-2.22-.57-2.94a.9.9,0,0,0-.74-.24.66.66,0,0,0-.62.52c-.17.81.93,2.36,1.67,2.8A.15.15,0,0,0,393,409.09Zm-1-3a.53.53,0,0,1,.37.15,3.9,3.9,0,0,1,.48,2.36c-.64-.55-1.38-1.73-1.26-2.26,0-.1.07-.22.33-.25Z" style="fill: rgb(19, 64, 105); transform-origin: 392.205px 407.429px;" id="elfgtluys9hc" class="animable"></path><path d="M412.87,160.94a4.72,4.72,0,0,0-4-5.5h-.08c-2.39-.35-5.39-.71-8.33-.85a147.89,147.89,0,0,0-16.85,0c-2.59.24-5.12.67-7.14,1.06l-.08,0a7.11,7.11,0,0,0-5.4,4.94c-2.41,8.15-5.3,24.79-1.52,60.12h39.65c.28-3.54-.51-15.06.07-29.73A234.86,234.86,0,0,1,412.87,160.94Z" style="fill: rgb(19, 64, 105); transform-origin: 390.294px 187.53px;" id="eloik0kr9b22m" class="animable"></path><line x1="386.3" y1="168.72" x2="384.31" y2="190.2" style="fill: rgb(19, 64, 105); transform-origin: 385.305px 179.46px;" id="elz6cnb1eicg" class="animable"></line><path d="M384.23,191a.69.69,0,0,1-.69-.76l2-21.48a.85.85,0,0,1,.83-.76.68.68,0,0,1,.69.76l-2,21.48A.86.86,0,0,1,384.23,191Z" style="fill: rgb(255, 255, 255); transform-origin: 385.301px 179.5px;" id="eld2nlks3f4sa" class="animable"></path><path d="M388.55,168.72a2.52,2.52,0,0,1-2.46,2.25,2,2,0,0,1-2-2.25,2.51,2.51,0,0,1,2.46-2.25A2,2,0,0,1,388.55,168.72Z" style="fill: rgb(19, 64, 105); transform-origin: 386.32px 168.72px;" id="el3fq87fmoaa8" class="animable"></path><path d="M386,171.73a2.7,2.7,0,0,1-2.73-3,3.38,3.38,0,0,1,3.29-3,2.7,2.7,0,0,1,2.73,3A3.37,3.37,0,0,1,386,171.73Zm.42-4.5a1.66,1.66,0,0,0-1.63,1.49,1.34,1.34,0,0,0,1.35,1.49,1.67,1.67,0,0,0,1.63-1.49A1.34,1.34,0,0,0,386.44,167.23Z" style="fill: rgb(255, 255, 255); transform-origin: 386.28px 168.73px;" id="elmevxtkznkl9" class="animable"></path><path d="M386.56,190.2a2.53,2.53,0,0,1-2.46,2.25,2,2,0,0,1-2.05-2.25,2.52,2.52,0,0,1,2.46-2.25A2,2,0,0,1,386.56,190.2Z" style="fill: rgb(19, 64, 105); transform-origin: 384.305px 190.2px;" id="elqmq38o3e1id" class="animable"></path><path d="M384,193.21a2.7,2.7,0,0,1-2.74-3,3.38,3.38,0,0,1,3.29-3,2.7,2.7,0,0,1,2.74,3A3.38,3.38,0,0,1,384,193.21Zm.41-4.5a1.68,1.68,0,0,0-1.63,1.49,1.34,1.34,0,0,0,1.36,1.49,1.68,1.68,0,0,0,1.63-1.49A1.34,1.34,0,0,0,384.44,188.71Z" style="fill: rgb(255, 255, 255); transform-origin: 384.275px 190.21px;" id="el3jhfe5sjlx8" class="animable"></path><path d="M385,183l5.59-3.15a4.16,4.16,0,0,0,2.13-3.22l.31-3.32" style="fill: rgb(19, 64, 105); transform-origin: 389.015px 178.155px;" id="eloiiasmthmmk" class="animable"></path><path d="M384.9,183.77a.68.68,0,0,1-.62-.37.81.81,0,0,1,.36-1l5.59-3.15a3.36,3.36,0,0,0,1.7-2.57l.31-3.31a.86.86,0,0,1,.83-.77.69.69,0,0,1,.69.77l-.31,3.31a5.09,5.09,0,0,1-2.56,3.88l-5.59,3.15A.85.85,0,0,1,384.9,183.77Z" style="fill: rgb(255, 255, 255); transform-origin: 388.995px 178.187px;" id="eldlbetf264x" class="animable"></path><path d="M395.25,173.32a2.53,2.53,0,0,1-2.46,2.26,2,2,0,0,1-2.05-2.26,2.53,2.53,0,0,1,2.47-2.25A2,2,0,0,1,395.25,173.32Z" style="fill: rgb(19, 64, 105); transform-origin: 392.994px 173.325px;" id="el28qkyv2iub2" class="animable"></path><path d="M392.72,176.34a2.71,2.71,0,0,1-2.74-3,3.39,3.39,0,0,1,3.3-3,2.71,2.71,0,0,1,2.73,3A3.37,3.37,0,0,1,392.72,176.34Zm.42-4.51a1.68,1.68,0,0,0-1.64,1.5,1.35,1.35,0,0,0,1.36,1.49,1.68,1.68,0,0,0,1.63-1.49A1.34,1.34,0,0,0,393.14,171.83Z" style="fill: rgb(255, 255, 255); transform-origin: 392.995px 173.34px;" id="elwpp0z5u7kun" class="animable"></path><path d="M385.63,175.9l-5.58,3.15a4.2,4.2,0,0,0-2.13,3.22l-.31,3.32" style="fill: rgb(19, 64, 105); transform-origin: 381.62px 180.745px;" id="elhavq06t78sj" class="animable"></path><path d="M377.54,186.35a.68.68,0,0,1-.69-.76l.31-3.32a5,5,0,0,1,2.56-3.87l5.58-3.15a.73.73,0,0,1,1,.26.82.82,0,0,1-.36,1.05l-5.59,3.15a3.33,3.33,0,0,0-1.69,2.56l-.31,3.32A.85.85,0,0,1,377.54,186.35Z" style="fill: rgb(255, 255, 255); transform-origin: 381.607px 180.75px;" id="el89io0unqnpp" class="animable"></path><path d="M375.35,185.59a2.53,2.53,0,0,1,2.47-2.25,2,2,0,0,1,2,2.25,2.53,2.53,0,0,1-2.46,2.26A2,2,0,0,1,375.35,185.59Z" style="fill: rgb(19, 64, 105); transform-origin: 377.584px 185.595px;" id="el86py3jq52s" class="animable"></path><path d="M377.33,188.61a2.72,2.72,0,0,1-2.74-3,3.39,3.39,0,0,1,3.3-3,2.7,2.7,0,0,1,2.73,3A3.38,3.38,0,0,1,377.33,188.61Zm.42-4.51a1.68,1.68,0,0,0-1.64,1.49,1.35,1.35,0,0,0,1.36,1.5,1.68,1.68,0,0,0,1.63-1.5A1.34,1.34,0,0,0,377.75,184.1Z" style="fill: rgb(255, 255, 255); transform-origin: 377.606px 185.61px;" id="ela1lvttpdg37" class="animable"></path><g id="el19eiuxtrfr7"><path d="M412.49,163.12c-.82,4.74-1.84,11.19-2.53,18,0,0-3.62-7.1-4.28-13.17S410.19,161.42,412.49,163.12Z" style="opacity: 0.3; transform-origin: 409.056px 171.692px;" class="animable"></path></g><path d="M415.19,221.54a28.54,28.54,0,0,1-4.86,4.3l-1.87,2a2.14,2.14,0,0,1-2.88.26l-2.32-1.77a2.14,2.14,0,0,1-.55-2.78l1.75-3,5.53-3.18a4.18,4.18,0,0,1,3.78-.07h0C415.52,218.13,416.26,220.25,415.19,221.54Z" style="fill: rgb(127, 62, 59); transform-origin: 409.053px 222.711px;" id="el13ydgjtw3io" class="animable"></path><path d="M431.25,196.93l-.12-.52A82.3,82.3,0,0,0,428.26,186c-.56-1.69-1.23-3.34-1.88-5s-1.39-3.26-2.16-4.85a104,104,0,0,0-5-9.32c-.92-1.5-1.84-3-2.84-4.46-.5-.73-1-1.46-1.53-2.19s-1-1.41-1.69-2.24a6.5,6.5,0,0,0-10.38,7.81l.13.18c.35.49.84,1.17,1.26,1.79l1.31,1.94c.85,1.31,1.71,2.64,2.53,4,1.66,2.68,3.19,5.44,4.65,8.22s2.77,5.63,4,8.5c1.05,2.5,1.91,5,2.71,7.59-.26,1.12-.54,2.25-.87,3.36-.5,1.7-1.08,3.36-1.72,5s-1.4,3.26-2.22,4.83c-.42.79-.84,1.57-1.3,2.31-.22.39-.46.75-.69,1.11l-.35.53a3.29,3.29,0,0,0-.27.44l-.41,2a2.91,2.91,0,0,0,4.49,3l.82-.55.7-.51c.45-.35.89-.7,1.31-1.06a30.56,30.56,0,0,0,2.4-2.28,42.08,42.08,0,0,0,4.11-5.12c.58-.91,1.19-1.83,1.71-2.79a32,32,0,0,0,1.54-2.89c.5-1,.89-2,1.33-3s.76-2,1.14-3A4.27,4.27,0,0,0,431.25,196.93Z" style="fill: rgb(19, 64, 105); transform-origin: 416.489px 188.303px;" id="elwl3lj9pxp7" class="animable"></path><path d="M412,215.1a8.15,8.15,0,0,0-3.45,2.37.7.7,0,0,0-.08.76c1.21,2.38,4.06,4.44,5.32,5.27a.71.71,0,0,0,1-.21l2.14-3.24a.72.72,0,0,0-.11-.92l-4.08-3.87A.7.7,0,0,0,412,215.1Z" style="fill: rgb(38, 50, 56); transform-origin: 412.721px 219.339px;" id="el4lr4fqkpnlo" class="animable"></path><g id="elu468doklmi"><g style="opacity: 0.6; transform-origin: 392.758px 157.245px;" class="animable"><path d="M400.49,154.58a147.71,147.71,0,0,0-16.84,0l-.28,0a4,4,0,0,0,.43,3.07c.94,1.5,2.91,2.34,5.87,2.5l1.11,0c8.05,0,11.09-4.86,11.22-5.07l.28-.45Z" style="fill: rgb(255, 255, 255); transform-origin: 392.758px 157.245px;" id="elbj0qkt6ej2g" class="animable"></path></g></g><path d="M384.45,154.52c4.9-1.16,5.76-4.19,5.43-7.52a19.92,19.92,0,0,0-.39-2.48l6.14-5.1,4.51-3.74c-1.25,5.43-2.66,15.32,1,18.94,0,0-3,5-11.43,4.56C382.64,158.79,384.45,154.52,384.45,154.52Z" style="fill: rgb(127, 62, 59); transform-origin: 392.691px 147.444px;" id="elqb67k14mfvb" class="animable"></path><g id="el2iupece7vjp"><path d="M389.49,144.52a19.92,19.92,0,0,1,.39,2.48c2.29-.46,5.35-2.9,5.67-5.24a10.66,10.66,0,0,0,.08-2.34Z" style="opacity: 0.2; transform-origin: 392.575px 143.21px;" class="animable"></path></g><path d="M403.94,128.56c-2.13,7.06-3,11.29-7.52,14.24a9.59,9.59,0,0,1-14.92-8.11c0-6.73,3.46-17.15,11.18-18.59A9.7,9.7,0,0,1,403.94,128.56Z" style="fill: rgb(127, 62, 59); transform-origin: 392.953px 130.152px;" id="eleef0cejpdlc" class="animable"></path><path d="M405,122.55c-5.71.24-15,.62-19-3.3,5.76-5,9.47-5.62,13.84-4.83S405,122.55,405,122.55Z" style="fill: rgb(38, 50, 56); transform-origin: 395.5px 118.411px;" id="elas0pfbhqq56" class="animable"></path><g id="elzxji68pj0zk"><path d="M398.94,121.87a8.52,8.52,0,0,0,4.12,11.9,16.35,16.35,0,0,0,1.79-12.08Z" style="fill: rgb(38, 50, 56); opacity: 0.5; transform-origin: 401.603px 127.73px;" class="animable"></path></g><path d="M405.11,135.93a7.91,7.91,0,0,1-4.55,2.77c-2.27.41-2.8-1.69-1.67-3.74,1-1.84,3.43-4.27,5.47-3.76S406.56,134.14,405.11,135.93Z" style="fill: rgb(127, 62, 59); transform-origin: 402.191px 134.941px;" id="elw6vqmzx9lkn" class="animable"></path><path d="M392.55,128.38c-.14.58-.56,1-.95.91s-.58-.61-.44-1.19.56-1,.94-.92S392.68,127.79,392.55,128.38Z" style="fill: rgb(38, 50, 56); transform-origin: 391.852px 128.236px;" id="elv4ph4i2st38" class="animable"></path><path d="M385.92,127.05c-.14.58-.56,1-.94.92s-.59-.61-.45-1.19.56-1,.94-.92S386.06,126.47,385.92,127.05Z" style="fill: rgb(38, 50, 56); transform-origin: 385.225px 126.915px;" id="elmji74cpjnfk" class="animable"></path><path d="M388,127.76a22.22,22.22,0,0,1-4,4.42,3.42,3.42,0,0,0,2.68,1.09Z" style="fill: rgb(99, 15, 15); transform-origin: 386px 130.517px;" id="elbcdxsbrnrxr" class="animable"></path><path d="M388.68,135.31a5.13,5.13,0,0,0,3.85-1.24.16.16,0,0,0,0-.24.18.18,0,0,0-.25,0,4.89,4.89,0,0,1-4.22,1.05.17.17,0,0,0-.2.14.18.18,0,0,0,.13.21Z" style="fill: rgb(38, 50, 56); transform-origin: 390.22px 134.556px;" id="elahajg0yhw4" class="animable"></path><path d="M395.28,125.81a.33.33,0,0,0,.17,0,.34.34,0,0,0,.18-.46,3.37,3.37,0,0,0-2.48-2,.34.34,0,0,0-.39.3.35.35,0,0,0,.3.4A2.67,2.67,0,0,1,395,125.6.35.35,0,0,0,395.28,125.81Z" style="fill: rgb(38, 50, 56); transform-origin: 394.209px 124.584px;" id="el4giynfiil9t" class="animable"></path><path d="M383.88,123.31a.37.37,0,0,0,.32-.06,3,3,0,0,1,2.53-.6.35.35,0,0,0,.21-.67h0a3.63,3.63,0,0,0-3.17.72.35.35,0,0,0-.06.49A.38.38,0,0,0,383.88,123.31Z" style="fill: rgb(38, 50, 56); transform-origin: 385.411px 122.599px;" id="elqz4jpfi9xc" class="animable"></path></g><defs>     <filter id="active" height="200%">         <feMorphology in="SourceAlpha" result="DILATED" operator="dilate" radius="2"></feMorphology>                <feFlood flood-color="#32DFEC" flood-opacity="1" result="PINK"></feFlood>        <feComposite in="PINK" in2="DILATED" operator="in" result="OUTLINE"></feComposite>        <feMerge>            <feMergeNode in="OUTLINE"></feMergeNode>            <feMergeNode in="SourceGraphic"></feMergeNode>        </feMerge>    </filter>    <filter id="hover" height="200%">        <feMorphology in="SourceAlpha" result="DILATED" operator="dilate" radius="2"></feMorphology>                <feFlood flood-color="#ff0000" flood-opacity="0.5" result="PINK"></feFlood>        <feComposite in="PINK" in2="DILATED" operator="in" result="OUTLINE"></feComposite>        <feMerge>            <feMergeNode in="OUTLINE"></feMergeNode>            <feMergeNode in="SourceGraphic"></feMergeNode>        </feMerge>            <feColorMatrix type="matrix" values="0   0   0   0   0                0   1   0   0   0                0   0   0   0   0                0   0   0   1   0 "></feColorMatrix>    </filter></defs></svg>