<svg class="animated" id="freepik_stories-work-time" xmlns="http://www.w3.org/2000/svg" viewBox="0 0 500 500" version="1.1" xmlns:xlink="http://www.w3.org/1999/xlink" xmlns:svgjs="http://svgjs.com/svgjs"><style>svg#freepik_stories-work-time:not(.animated) .animable {opacity: 0;}svg#freepik_stories-work-time.animated #freepik--background-simple--inject-37 {animation: 6s Infinite  linear heartbeat;animation-delay: 0s;}svg#freepik_stories-work-time.animated #freepik--Character--inject-37 {animation: 1.5s Infinite  linear wind;animation-delay: 0s;}            @keyframes heartbeat {                0% {                    transform: scale(1);                }                10% {                    transform: scale(1.1);                }                30% {                    transform: scale(1);                }                40% {                    transform: scale(1);                }                50% {                    transform: scale(1.1);                }                60% {                    transform: scale(1);                }                100% {                    transform: scale(1);                }            }                    @keyframes wind {                0% {                    transform: rotate( 0deg );                }                25% {                    transform: rotate( 1deg );                }                75% {                    transform: rotate( -1deg );                }            }        </style><g id="freepik--background-simple--inject-37" class="animable" style="transform-origin: 244.614px 241.129px;"><path d="M250.66,126.62c73.68-16.85,132.28,43.47,138.45,92.28,8.43,66.71-90.43,120.85-164.8,136.14-78.37,16.11-127.85-25.46-124.54-86.71C102.47,218.45,187.51,141.07,250.66,126.62Z" style="fill: rgb(19, 64, 105); transform-origin: 244.614px 241.129px;" id="elf7f342xcn8e" class="animable"></path><g id="el1p61fmxb8u0h"><path d="M250.66,126.62c73.68-16.85,132.28,43.47,138.45,92.28,8.43,66.71-90.43,120.85-164.8,136.14-78.37,16.11-127.85-25.46-124.54-86.71C102.47,218.45,187.51,141.07,250.66,126.62Z" style="fill: rgb(255, 255, 255); opacity: 0.9; transform-origin: 244.614px 241.129px;" class="animable"></path></g></g><g id="freepik--Shadow--inject-37" class="animable" style="transform-origin: 250px 416.24px;"><ellipse id="freepik--path--inject-37" cx="250" cy="416.24" rx="193.89" ry="11.32" style="fill: rgb(245, 245, 245); transform-origin: 250px 416.24px;" class="animable"></ellipse></g><g id="freepik--Hourglass--inject-37" class="animable" style="transform-origin: 271.34px 318.98px;"><g id="elmmni5gxfbt"><path d="M269.59,320.73s-73.49,43.39-73.49,84.5h147C343.09,364.12,269.59,320.73,269.59,320.73Z" style="fill: rgb(19, 64, 105); opacity: 0.2; transform-origin: 269.6px 362.98px;" class="animable"></path></g><g id="elom48v7gqb2"><path d="M269.59,372.5s-67.86,16.81-67.86,32.73H337.45C337.45,389.31,269.59,372.5,269.59,372.5Z" style="fill: rgb(19, 64, 105); opacity: 0.2; transform-origin: 269.59px 388.865px;" class="animable"></path></g><g id="el8jzkfnhp22e"><path d="M278.51,332.71c13.8,13.57,40.62,43.64,40.62,72.52H300.74C300.74,376.35,286.06,346.28,278.51,332.71Z" style="fill: rgb(255, 255, 255); opacity: 0.3; transform-origin: 298.82px 368.97px;" class="animable"></path></g><g id="elh8t98pkc1i"><path d="M269.59,320.73s-73.49-43.39-73.49-84.5h147C343.09,277.34,269.59,320.73,269.59,320.73Z" style="fill: rgb(19, 64, 105); opacity: 0.2; transform-origin: 269.6px 278.48px;" class="animable"></path></g><g id="el2zzipmwqqg4"><path d="M269.59,316.77s-37.52-18-37.52-35.1h75.05C307.12,298.74,269.59,316.77,269.59,316.77Z" style="fill: rgb(19, 64, 105); opacity: 0.2; transform-origin: 269.595px 299.22px;" class="animable"></path></g><g id="elyhihh5gs31t"><path d="M261.58,308.75C247.79,295.18,221,265.11,221,236.23h18.39C239.35,265.11,254,295.18,261.58,308.75Z" style="fill: rgb(255, 255, 255); opacity: 0.3; transform-origin: 241.29px 272.49px;" class="animable"></path></g><g id="el27qejanyjkh"><path d="M278.51,308.75c13.8-13.57,39.95-47.12,40.62-72.52h-4.9C311.93,267.2,289.43,295.62,278.51,308.75Z" style="fill: rgb(255, 255, 255); opacity: 0.3; transform-origin: 298.82px 272.49px;" class="animable"></path></g><rect x="324.78" y="221.72" width="8.33" height="1" style="fill: rgb(19, 64, 105); transform-origin: 328.945px 222.22px;" id="elwk94c6ygi5k" class="animable"></rect><path d="M361.39,235.46h-1a12.75,12.75,0,0,0-12.73-12.74h-8.79v-1h8.79A13.76,13.76,0,0,1,361.39,235.46Z" style="fill: rgb(19, 64, 105); transform-origin: 350.13px 228.59px;" id="el7odmd3t7r1" class="animable"></path><rect x="181.29" y="225.22" width="176.6" height="22.02" rx="10.24" style="fill: rgb(19, 64, 105); transform-origin: 269.59px 236.23px;" id="elmedqddxk17" class="animable"></rect><rect x="181.29" y="394.22" width="176.6" height="22.02" rx="10.24" style="fill: rgb(19, 64, 105); transform-origin: 269.59px 405.23px;" id="elsevkn9qjcbr" class="animable"></rect></g><g id="freepik--Character--inject-37" class="animable" style="transform-origin: 199.174px 204.69px;"><polygon points="140.72 304.52 133.94 298.5 145.5 280.75 152.28 286.76 140.72 304.52" style="fill: rgb(255, 139, 123); transform-origin: 143.11px 292.635px;" id="elxodwiw7amj7" class="animable"></polygon><path d="M135.34,294.68l8.62,6a.66.66,0,0,1,.21.91l-4.32,7.12a1.66,1.66,0,0,1-2.29.43c-3-2.13-4.11-3.17-7.7-6.07a133.3,133.3,0,0,1-10.2-8.89c-2.66-2.76.15-5.43,1.56-4.48,3.33,2.26,9.12,4.75,12.47,4.55A2.6,2.6,0,0,1,135.34,294.68Z" style="fill: rgb(38, 50, 56); transform-origin: 131.414px 299.463px;" id="elpc38qp0w4we" class="animable"></path><g id="elpmjb2zlxk0j"><polygon points="152.27 286.77 145.49 280.75 139.93 289.3 146.88 295.07 152.27 286.77" style="opacity: 0.2; transform-origin: 146.1px 287.91px;" class="animable"></polygon></g><path d="M221.25,198.1s-45.5-3.11-51.14,12.31c-12.83,35.06-29.52,72.25-29.52,72.25L154,292.37s28.35-43.35,37-71.18c17.5,4.25,49.14,7.88,59.33-3.82,8.7-10,2.19-19.27,2.19-19.27Z" style="fill: rgb(38, 50, 56); transform-origin: 197.725px 245.107px;" id="elsw6ef3luj0e" class="animable"></path><g id="el7n3fdhm2kxe"><path d="M182.28,225.35c-1.06,4.28-2.67,16.54-3.67,24.67,2.21-4.28,4.31-8.62,6.2-12.86Z" style="opacity: 0.3; transform-origin: 181.71px 237.685px;" class="animable"></path></g><polygon points="153.14 296.76 137.93 284.84 141.04 278.16 158.04 291.15 153.14 296.76" style="fill: rgb(19, 64, 105); transform-origin: 147.985px 287.46px;" id="elruw97jdb11b" class="animable"></polygon><path d="M131.69,294.13a12.24,12.24,0,0,0,2.24,1.15.22.22,0,0,0,.28-.28c-.13-.34-1.27-3.33-2.46-3.62a.83.83,0,0,0-.77.22,1.22,1.22,0,0,0-.45,1.13A2.56,2.56,0,0,0,131.69,294.13Zm1.93.55c-1.57-.68-2.55-1.43-2.66-2a.78.78,0,0,1,.32-.73.38.38,0,0,1,.37-.11C132.29,292,133.12,293.49,133.62,294.68Z" style="fill: rgb(19, 64, 105); transform-origin: 132.37px 293.326px;" id="el6d2hlyejkgn" class="animable"></path><path d="M133.88,295.25a.18.18,0,0,0,.1,0,.23.23,0,0,0,.2-.08c.07-.08,1.77-2.17,1.52-3.46a1.1,1.1,0,0,0-.59-.77.83.83,0,0,0-1,.09c-.76.71-.73,3.11-.28,4.1A.27.27,0,0,0,133.88,295.25Zm1.11-3.83a.65.65,0,0,1,.28.42c.15.76-.66,2.07-1.19,2.79-.28-1-.19-2.78.3-3.24.1-.09.24-.18.53,0Z" style="fill: rgb(19, 64, 105); transform-origin: 134.618px 293.035px;" id="eljjmo6wx576" class="animable"></path><polygon points="200.5 315.01 191.75 316.76 190.13 293.33 199.02 293.61 200.5 315.01" style="fill: rgb(255, 139, 123); transform-origin: 195.315px 305.045px;" id="el1rv8agx7ttk" class="animable"></polygon><path d="M190.56,313.56l10-4.21a.68.68,0,0,1,.92.33l3.82,7.68a1.72,1.72,0,0,1-.89,2.24c-3.5,1.41-5.24,1.9-9.63,3.76-2.7,1.14-10,4.44-13.9,5.41s-4.78-2.94-3.2-3.7c3.74-1.8,9.94-7.29,11.61-10.32A2.77,2.77,0,0,1,190.56,313.56Z" style="fill: rgb(38, 50, 56); transform-origin: 191.186px 319.102px;" id="elxxqjxwf62lq" class="animable"></path><path d="M188.07,316.44a12.27,12.27,0,0,0,2.23-1.32.24.24,0,0,0,.09-.23.24.24,0,0,0-.18-.17c-.36-.08-3.6-.73-4.51.15a.83.83,0,0,0-.23.79,1.23,1.23,0,0,0,.73,1A2.62,2.62,0,0,0,188.07,316.44Zm1.53-1.38c-1.45,1-2.64,1.43-3.23,1.2a.79.79,0,0,1-.46-.68.4.4,0,0,1,.1-.39C186.5,314.72,188.3,314.84,189.6,315.06Z" style="fill: rgb(19, 64, 105); transform-origin: 187.92px 315.578px;" id="elubsa4kqaqb8" class="animable"></path><path d="M190.25,315.15a.31.31,0,0,0,.09-.07.23.23,0,0,0,0-.21c0-.11-.92-2.75-2.18-3.24a1.11,1.11,0,0,0-1,.09.84.84,0,0,0-.48.94c.2,1,2.31,2.35,3.42,2.5A.2.2,0,0,0,190.25,315.15Zm-2.73-3.09a.67.67,0,0,1,.52,0c.75.29,1.44,1.72,1.78,2.58-1-.33-2.53-1.36-2.66-2.06,0-.13,0-.3.27-.46Z" style="fill: rgb(19, 64, 105); transform-origin: 188.514px 313.361px;" id="elp9zva87mzy" class="animable"></path><g id="el9q497c0h2qb"><polygon points="199.03 293.62 190.13 293.33 190.98 305.57 199.84 305.41 199.03 293.62" style="opacity: 0.2; transform-origin: 194.985px 299.45px;" class="animable"></polygon></g><path d="M243.35,198.1s-65,6.15-62.66,25.72c3.42,28.23,5.92,77.66,5.92,77.66l16.57.65s6.22-43.46,2.58-72.37c16.83,0,53.39.89,59.82-7.81,7.63-10.32,4.1-23.85,4.1-23.85Z" style="fill: rgb(38, 50, 56); transform-origin: 225.562px 250.115px;" id="elcfair84drtm" class="animable"></path><polygon points="205.01 303.15 185.12 302.16 184.41 293.51 206.22 295.01 205.01 303.15" style="fill: rgb(19, 64, 105); transform-origin: 195.315px 298.33px;" id="elyjgb67q1yl" class="animable"></polygon><path d="M228.92,140.79c-.14,1.79-.3,3.38-.52,5.05s-.43,3.3-.69,4.95c-.48,3.29-1.14,6.56-1.88,9.85s-1.65,6.57-2.79,9.88a52.65,52.65,0,0,1-4.53,10,25,25,0,0,1-4,5.09,15.39,15.39,0,0,1-1.29,1.08c-.41.34-.82.63-1.24.92a25.52,25.52,0,0,1-2.49,1.55,48.42,48.42,0,0,1-10,4.07c-1.65.51-3.31.92-5,1.29s-3.3.69-5,.95a80.44,80.44,0,0,1-10,1,3.42,3.42,0,0,1-1.2-6.67l.13-.05a160.67,160.67,0,0,0,17.23-6.56,47,47,0,0,0,7.38-4.18c.53-.38,1-.77,1.48-1.16.22-.19.45-.38.64-.58a5.66,5.66,0,0,0,.5-.51,13.72,13.72,0,0,0,1.7-2.61,43,43,0,0,0,2.91-7.69c.81-2.81,1.51-5.74,2.09-8.72s1.1-6,1.59-9.06.86-6.18,1.2-9.08l0-.17a6.87,6.87,0,0,1,13.66,1.36Z" style="fill: rgb(19, 64, 105); transform-origin: 202.423px 165.002px;" id="elljgir24zllj" class="animable"></path><path d="M179.82,188l-5,.31,4,9.2s8.65-.19,8.47-4.45l-1.56-2A8.14,8.14,0,0,0,179.82,188Z" style="fill: rgb(255, 139, 123); transform-origin: 181.056px 192.755px;" id="el36n5o7tgzxt" class="animable"></path><polygon points="169.34 189.07 173.66 197.53 178.81 197.53 174.81 188.33 169.34 189.07" style="fill: rgb(255, 139, 123); transform-origin: 174.075px 192.93px;" id="eleafojq85xnl" class="animable"></polygon><path d="M228.2,126.61l9.67-2,7.7-1.11a14.28,14.28,0,0,1,3.33-.15A14.58,14.58,0,0,1,261.64,134c1.93,7,3.67,15.59,5,23.2,1.86,10.57,2.82,26.45,3,40.89H223.83c-1-26.15-6.56-43-8.45-53.45a14.62,14.62,0,0,1,8.09-15.79Z" style="fill: rgb(19, 64, 105); transform-origin: 242.394px 160.702px;" id="elil2sehptdh" class="animable"></path><path d="M223.83,132.36c.11,4.3,1,19.63,5.61,28.34.81-8.16,10.5-33,10.5-33Z" style="fill: rgb(245, 245, 245); transform-origin: 231.885px 144.2px;" id="el8988n05i6e8" class="animable"></path><g id="elv50n3nr7krl"><path d="M267.69,164.38h0c0-.16,0-.31-.06-.48l-.09-.72c-.05-.39-.1-.78-.15-1.15l-.15-1.07-.15-1c0-.28-.09-.57-.13-.84-.1-.64-.2-1.26-.31-1.87-.33-1.87-.68-3.81-1.06-5.76l0-.16c-.38-2-.77-3.93-1.19-5.88l0-.13c-.17-.84-.35-1.66-.54-2.49l-.21-.92-.36-1.59-.3-1.24-.06-.26h0c-.4-1.64-.81-3.25-1.23-4.77l-6.95-3.66c.8,3.07,1.56,6.45,2.28,9.91a10.15,10.15,0,0,0-2.28,1.63c-1.66,1.48-1.6,4.63.06,8.36A92.45,92.45,0,0,1,262.31,184c.21,4.71.34,9.48.4,14.11h7C269.51,186.64,268.87,174.28,267.69,164.38Z" style="opacity: 0.3; transform-origin: 261.622px 164.25px;" class="animable"></path></g><path d="M234.27,107.34l-3.93,6L225,121.49a8.35,8.35,0,0,1,1.65,2.41c1,2,1.78,3.44-2.35,6.25-.88.6-.91,1.55-.71,2.6.24,1.28,1,2.62,5.44,1.83a20.55,20.55,0,0,0,11.18-6.2c1.48-1.49,1.14-2.6-.29-4.14C235.88,119.89,234.67,112.94,234.27,107.34Z" style="fill: rgb(255, 139, 123); transform-origin: 232.329px 121.078px;" id="elvn5c4pe754f" class="animable"></path><path d="M224.83,134.73l2.83,1.78,4.6-1.95a7.43,7.43,0,0,0-4-2.09A7.92,7.92,0,0,0,224.83,134.73Z" style="fill: rgb(38, 50, 56); transform-origin: 228.545px 134.49px;" id="elhhq34wslh6a" class="animable"></path><path d="M228.21,132.47c2.11.87,3.17,2.83,4.13,5.09,0,0,10.11-7.66,10.32-12.71-.54-1.72-3.07-1.42-3.07-1.42S236.51,128.77,228.21,132.47Z" style="fill: rgb(255, 255, 255); transform-origin: 235.435px 130.485px;" id="elhxxlctizc4d" class="animable"></path><path d="M228.21,132.47a5.13,5.13,0,0,0-3.2,5s-4.5-5.28-.84-9.27a13.28,13.28,0,0,1,3.14-1.17S226.21,129.23,228.21,132.47Z" style="fill: rgb(255, 255, 255); transform-origin: 225.473px 132.25px;" id="el7p42pesq5bb" class="animable"></path><path d="M228.55,135.68h-1.29c-.42.72-1,10.1-1.23,15.09a44.67,44.67,0,0,0,2.71,8.49.42.42,0,0,0,0,.1c.07.16.14.31.22.46.14.3.28.6.44.88a56.41,56.41,0,0,1,2.15-9.13C230.23,145.79,228.55,135.68,228.55,135.68Z" style="fill: rgb(38, 50, 56); transform-origin: 228.79px 148.19px;" id="el8nrmerricv4" class="animable"></path><g id="elperywl0p1z"><path d="M226.32,119.48l3.28-5.81c.06.14.14.31.22.47a15.93,15.93,0,0,1,.7,2.23c.6,2.59-1.4,6.27-3.61,8-.09-.16-.17-.33-.26-.5a10,10,0,0,0-1.51-2.32l-.13-.1Z" style="opacity: 0.2; transform-origin: 227.819px 119.02px;" class="animable"></path></g><path d="M210.34,107c-.79-3.55,4.86-8.46,4.86-8.46l-6.69-2.33C205.49,98.38,207.45,104.57,210.34,107Z" style="fill: rgb(38, 50, 56); transform-origin: 211.098px 101.605px;" id="elawuoeabz7k9" class="animable"></path><path d="M232.88,96.74c1.58,8.88,3,14-.34,19.67a11.71,11.71,0,0,1-20.73-.6c-3.75-7.32-5.7-20.6,1.93-26.43A11.85,11.85,0,0,1,232.88,96.74Z" style="fill: rgb(255, 139, 123); transform-origin: 221.542px 104.568px;" id="elvjmcxr8yzum" class="animable"></path><path d="M233,105.72l-4.2-1.15v-5.4s-5.31-3-4.49-6.75a41,41,0,0,1,1.71-6.2s8.42-.54,11,.54a18.29,18.29,0,0,1-2.17,2,19.14,19.14,0,0,1,5.1,5.22,7,7,0,0,0-2.88,1.39S238.17,102.78,233,105.72Z" style="fill: rgb(38, 50, 56); transform-origin: 232.087px 95.9025px;" id="ele8a9pwc4z5i" class="animable"></path><path d="M223.34,80.46c3.09,1.94,1.3,5.5,1.3,5.5l8.27.17C232.47,83.52,225.3,80.33,223.34,80.46Z" style="fill: rgb(38, 50, 56); transform-origin: 228.125px 83.2931px;" id="elgda25klwlbi" class="animable"></path><path d="M226.57,94.24c-.59,1.66-7.29,3.7-13.4,3.9a27.72,27.72,0,0,1-8.92-1.68,10.2,10.2,0,0,1,3-2.13c-3.69-.91-8.36-4.15-9.65-6.79A15.28,15.28,0,0,1,206,87a9,9,0,0,1-3.17-6.21s15.64,6.2,21.66,3.63c6.54-2.8,11.51,2.45,7.21,6.45S226.57,94.24,226.57,94.24Z" style="fill: rgb(38, 50, 56); transform-origin: 215.455px 89.465px;" id="elmong25m8k2i" class="animable"></path><path d="M237.66,103.17a8,8,0,0,1-1.79,5.4c-1.62,1.93-4.14.39-4.72-2-.52-2.17.16-5.52,2.29-6.56S237.55,100.74,237.66,103.17Z" style="fill: rgb(255, 139, 123); transform-origin: 234.326px 104.574px;" id="ely9eyy62cap" class="animable"></path><path d="M219.36,105c.22.7,0,1.39-.4,1.56s-1-.27-1.23-1,0-1.39.4-1.56S219.13,104.26,219.36,105Z" style="fill: rgb(38, 50, 56); transform-origin: 218.543px 105.28px;" id="el6uqzradrej8" class="animable"></path><path d="M211.61,107.8c.22.69,0,1.39-.4,1.55s-1-.26-1.23-1,0-1.39.4-1.55S211.38,107.1,211.61,107.8Z" style="fill: rgb(38, 50, 56); transform-origin: 210.793px 108.076px;" id="ellqc8u73lpui" class="animable"></path><path d="M214.26,107.43a23.4,23.4,0,0,1-.72,6.14,3.51,3.51,0,0,0,2.92-.69Z" style="fill: rgb(160, 39, 36); transform-origin: 215px 110.538px;" id="el53yj7jsu9zn" class="animable"></path><path d="M219,115.55a6.35,6.35,0,0,0,3.7-3.26.22.22,0,0,0-.12-.28.21.21,0,0,0-.28.11,6,6,0,0,1-4.21,3.24.21.21,0,0,0-.16.26.21.21,0,0,0,.25.16A6.54,6.54,0,0,0,219,115.55Z" style="fill: rgb(38, 50, 56); transform-origin: 220.318px 113.888px;" id="elyeu3p7f4gn" class="animable"></path><path d="M221.08,100.9a.43.43,0,0,0,.15-.15.42.42,0,0,0-.12-.59,4.15,4.15,0,0,0-3.86-.4.43.43,0,0,0,.37.78,3.25,3.25,0,0,1,3,.34A.43.43,0,0,0,221.08,100.9Z" style="fill: rgb(38, 50, 56); transform-origin: 219.153px 100.208px;" id="el69cn76ie8j8" class="animable"></path><path d="M210.07,103.59a.39.39,0,0,0,0-.21.43.43,0,0,0-.56-.23,4.1,4.1,0,0,0-2.52,2.94.43.43,0,0,0,.84.14,3.29,3.29,0,0,1,2-2.29A.43.43,0,0,0,210.07,103.59Z" style="fill: rgb(38, 50, 56); transform-origin: 208.537px 104.824px;" id="el9ksuj06azh6" class="animable"></path><path d="M259.51,129.7c1.1,1.36,2.06,2.59,3,3.9s1.92,2.61,2.84,3.94c1.87,2.65,3.61,5.4,5.31,8.2s3.28,5.72,4.7,8.81a54.29,54.29,0,0,1,3.65,10,26.49,26.49,0,0,1,.78,6.12,23.55,23.55,0,0,1-.88,6.1,40.43,40.43,0,0,1-4.32,9.84c-.86,1.47-1.79,2.88-2.76,4.24s-2,2.68-3,3.95a68.45,68.45,0,0,1-6.79,7.18,3.43,3.43,0,0,1-5.25-4.28l.09-.15A115.84,115.84,0,0,0,265,181.79a35.43,35.43,0,0,0,2.24-7.65,13.72,13.72,0,0,0,.13-3.19,15.56,15.56,0,0,0-.68-3.1,46.17,46.17,0,0,0-3.25-7.4c-1.33-2.51-2.83-5-4.43-7.53s-3.28-5-5-7.43l-2.63-3.66c-.88-1.19-1.8-2.46-2.63-3.55l-.06-.08a6.86,6.86,0,0,1,10.78-8.5Z" style="fill: rgb(19, 64, 105); transform-origin: 263.505px 164.97px;" id="elqxhzb9l2l7" class="animable"></path><path d="M164.23,203.47l85.08-3.85a2,2,0,0,1,2.13,1.94l-89.15,4A2,2,0,0,1,164.23,203.47Z" style="fill: rgb(19, 64, 105); transform-origin: 206.864px 202.588px;" id="elovamc4obt2" class="animable"></path><g id="el5svf580b2lg"><g style="opacity: 0.6; transform-origin: 206.864px 202.588px;" class="animable"><path d="M164.23,203.47l85.08-3.85a2,2,0,0,1,2.13,1.94l-89.15,4A2,2,0,0,1,164.23,203.47Z" style="fill: rgb(255, 255, 255); transform-origin: 206.864px 202.588px;" id="ell8v61cgaw0g" class="animable"></path></g></g><path d="M150.69,164l60.53-2.74a1.89,1.89,0,0,1,1.76,1.27L224.6,199.4a1,1,0,0,1-.93,1.38l-60.53,2.74a1.87,1.87,0,0,1-1.75-1.26l-11.62-36.88A1,1,0,0,1,150.69,164Z" style="fill: rgb(19, 64, 105); transform-origin: 187.185px 182.39px;" id="el1sgtkn55vu3" class="animable"></path><g id="elupmzleqjgx"><path d="M150.69,164l60.53-2.74a1.89,1.89,0,0,1,1.76,1.27L224.6,199.4a1,1,0,0,1-.93,1.38l-60.53,2.74a1.87,1.87,0,0,1-1.75-1.26l-11.62-36.88A1,1,0,0,1,150.69,164Z" style="fill: rgb(255, 255, 255); opacity: 0.6; transform-origin: 187.185px 182.39px;" class="animable"></path></g><g id="elbyrv6e7f209"><path d="M213,162.52l11.62,36.87a1,1,0,0,1-.93,1.39l-12.45-39.53A1.89,1.89,0,0,1,213,162.52Z" style="fill: rgb(19, 64, 105); opacity: 0.5; transform-origin: 217.97px 181.015px;" class="animable"></path></g><g id="el560lu92l3lt"><path d="M226.94,200.63l22.37-1a2,2,0,0,1,2.13,1.94L225,202.76A2,2,0,0,1,226.94,200.63Z" style="fill: rgb(19, 64, 105); opacity: 0.5; transform-origin: 238.218px 201.193px;" class="animable"></path></g><path d="M255.2,197.28l-5.72.83,5.86,8.15s9.31-1.49,8.23-5.62l-2-1.66A8.12,8.12,0,0,0,255.2,197.28Z" style="fill: rgb(255, 139, 123); transform-origin: 256.569px 201.72px;" id="elbudthitncaw" class="animable"></path><polygon points="242.48 200.55 249.65 206.8 255.34 206.26 249.48 198.11 242.48 200.55" style="fill: rgb(255, 139, 123); transform-origin: 248.91px 202.455px;" id="el5wy4qr0feys" class="animable"></polygon></g><defs>     <filter id="active" height="200%">         <feMorphology in="SourceAlpha" result="DILATED" operator="dilate" radius="2"></feMorphology>                <feFlood flood-color="#32DFEC" flood-opacity="1" result="PINK"></feFlood>        <feComposite in="PINK" in2="DILATED" operator="in" result="OUTLINE"></feComposite>        <feMerge>            <feMergeNode in="OUTLINE"></feMergeNode>            <feMergeNode in="SourceGraphic"></feMergeNode>        </feMerge>    </filter>    <filter id="hover" height="200%">        <feMorphology in="SourceAlpha" result="DILATED" operator="dilate" radius="2"></feMorphology>                <feFlood flood-color="#ff0000" flood-opacity="0.5" result="PINK"></feFlood>        <feComposite in="PINK" in2="DILATED" operator="in" result="OUTLINE"></feComposite>        <feMerge>            <feMergeNode in="OUTLINE"></feMergeNode>            <feMergeNode in="SourceGraphic"></feMergeNode>        </feMerge>            <feColorMatrix type="matrix" values="0   0   0   0   0                0   1   0   0   0                0   0   0   0   0                0   0   0   1   0 "></feColorMatrix>    </filter></defs></svg>