<svg class="animated" id="freepik_stories-resume" xmlns="http://www.w3.org/2000/svg" viewBox="0 0 500 500" version="1.1" xmlns:xlink="http://www.w3.org/1999/xlink" xmlns:svgjs="http://svgjs.com/svgjs"><style>svg#freepik_stories-resume:not(.animated) .animable {opacity: 0;}svg#freepik_stories-resume.animated #freepik--background-simple--inject-134 {animation: 6s Infinite  linear heartbeat;animation-delay: 0s;}svg#freepik_stories-resume.animated #freepik--Character--inject-134 {animation: 1.5s Infinite  linear floating;animation-delay: 0s;}            @keyframes heartbeat {                0% {                    transform: scale(1);                }                10% {                    transform: scale(1.1);                }                30% {                    transform: scale(1);                }                40% {                    transform: scale(1);                }                50% {                    transform: scale(1.1);                }                60% {                    transform: scale(1);                }                100% {                    transform: scale(1);                }            }                    @keyframes floating {                0% {                    opacity: 1;                    transform: translateY(0px);                }                50% {                    transform: translateY(-10px);                }                100% {                    opacity: 1;                    transform: translateY(0px);                }            }        </style><g id="freepik--background-simple--inject-134" class="animable animator-active" style="transform-origin: 242.879px 207.839px;"><path d="M97.55,174c37.5-25.74,92.7,3.84,125.9-25.32,20.45-18,21.88-45.46,34.84-66.89,11.43-18.9,33.42-27.53,54.6-28.47,43.78-1.93,99.79,26.75,98.72,76.55-1,47.12-61,56.48-62.92,105.58-1.7,44.29,40.77,81.43-10.82,114.17-39.05,24.79-91.63,13-112.08-29.72-10.88-22.72-14.65-39.25-40.87-50-22.57-9.21-45-1.81-68.07-6.3C71.12,254.7,58.12,201,97.55,174Z" style="fill: #134069; transform-origin: 242.879px 207.839px;" id="el7n8e4ye31kv" class="animable"></path><g id="elz04kx0up0w8"><path d="M97.55,174c37.5-25.74,92.7,3.84,125.9-25.32,20.45-18,21.88-45.46,34.84-66.89,11.43-18.9,33.42-27.53,54.6-28.47,43.78-1.93,99.79,26.75,98.72,76.55-1,47.12-61,56.48-62.92,105.58-1.7,44.29,40.77,81.43-10.82,114.17-39.05,24.79-91.63,13-112.08-29.72-10.88-22.72-14.65-39.25-40.87-50-22.57-9.21-45-1.81-68.07-6.3C71.12,254.7,58.12,201,97.55,174Z" style="fill: rgb(255, 255, 255); opacity: 0.9; transform-origin: 242.879px 207.839px;" class="animable" id="elxnmvmc8ovvk"></path></g></g><g id="freepik--Shadow--inject-134" class="animable" style="transform-origin: 250px 416.24px;"><ellipse cx="250" cy="416.24" rx="193.89" ry="11.32" style="fill: rgb(245, 245, 245); transform-origin: 250px 416.24px;" id="elirgxtakubvg" class="animable"></ellipse></g><g id="freepik--Character--inject-134" class="animable" style="transform-origin: 250.435px 243.365px;"><path d="M276.44,170.82l.65.55c.24.21.51.41.77.61.52.41,1,.82,1.6,1.21,1.08.79,2.23,1.51,3.38,2.23a50.75,50.75,0,0,0,7.27,3.71,55.45,55.45,0,0,0,7.73,2.64c.66.18,1.34.3,2,.45l1,.22c.21,0,0,0,0,.05a1.1,1.1,0,0,0-.38.17c-.09.09-.09.09-.05.07a3.72,3.72,0,0,0,.46-.95,15.42,15.42,0,0,0,.65-3.55c.12-1.31.16-2.69.15-4.08,0-2.79-.22-5.64-.44-8.5s-.57-5.73-.94-8.61-.78-5.76-1.21-8.6l3.76-.86a159.32,159.32,0,0,1,4,17.36,84.71,84.71,0,0,1,1.09,9,45.23,45.23,0,0,1,.11,4.68,21.81,21.81,0,0,1-.65,5.11,9.89,9.89,0,0,1-1.36,3,6.53,6.53,0,0,1-1.59,1.61,5.83,5.83,0,0,1-2.39,1,6.74,6.74,0,0,1-2.24,0l-1.15-.19c-.77-.13-1.55-.23-2.31-.4a56.37,56.37,0,0,1-9-2.58,57.55,57.55,0,0,1-8.45-4.06c-1.35-.81-2.67-1.66-3.95-2.59-.64-.46-1.27-1-1.9-1.44-.31-.26-.62-.51-.93-.79s-.6-.51-1-.89Z" style="fill: rgb(228, 137, 123); transform-origin: 289.589px 168.507px;" id="elewph50elbok" class="animable"></path><path d="M265.57,166.27c11-1.49,19.84,7.38,19.84,7.38l-10.06,15.52s-10.78-6.9-12.68-11.6C260.71,172.68,259.94,167,265.57,166.27Z" style="fill: #134069; transform-origin: 273.313px 177.636px;" id="ellg6mf0bz1f" class="animable"></path><g id="elcubtxjc32bd"><path d="M265.57,166.27c11-1.49,19.84,7.38,19.84,7.38l-10.06,15.52s-10.78-6.9-12.68-11.6C260.71,172.68,259.94,167,265.57,166.27Z" style="fill: rgb(250, 250, 250); opacity: 0.6; transform-origin: 273.313px 177.636px;" class="animable" id="ell1rsvc4sgac"></path></g><path d="M299.17,149.79l-3.65-7.32,9.57-.08s.19,5.11-2.23,8Z" style="fill: rgb(228, 137, 123); transform-origin: 300.307px 146.39px;" id="elpr93hdxs0t" class="animable"></path><polygon points="297.22 134.6 304.34 135.87 305.09 142.39 295.52 142.47 297.22 134.6" style="fill: rgb(228, 137, 123); transform-origin: 300.305px 138.535px;" id="eltacwfko8yb" class="animable"></polygon><polygon points="226.67 407.87 235.63 408.73 241.83 387.69 232.87 386.82 226.67 407.87" style="fill: rgb(228, 137, 123); transform-origin: 234.25px 397.775px;" id="el8pdur5il21k" class="animable"></polygon><polygon points="169.7 376.75 176.34 382.99 190.68 367.23 184.04 360.99 169.7 376.75" style="fill: rgb(228, 137, 123); transform-origin: 180.19px 371.99px;" id="els6kngl04ofk" class="animable"></polygon><path d="M179.41,380l-5-9a.73.73,0,0,0-.9-.33l-7.69,2.92a1.48,1.48,0,0,0-.71,2.08c1.79,3.1,2.82,4.51,5,8.46,1.35,2.44,4,8,5.85,11.38s5.28,1.69,4.81.13c-2.14-7-1.73-10.93-1.13-14A2.4,2.4,0,0,0,179.41,380Z" style="fill: rgb(38, 50, 56); transform-origin: 172.868px 384.047px;" id="elssl39mhc7ej" class="animable"></path><path d="M236.68,406H225.82a.89.89,0,0,0-.85.66l-2.37,8.59a1.36,1.36,0,0,0,1.33,1.72c3.83,0,5.64,0,10.42,0h14.59c4,0,4.8-4,3.16-4.38-7.36-1.62-11.61-3.87-13.88-6A2.26,2.26,0,0,0,236.68,406Z" style="fill: rgb(38, 50, 56); transform-origin: 237.726px 411.485px;" id="el55j6sgtpdtd" class="animable"></path><polygon points="241.83 387.69 238.63 398.54 229.41 398.54 232.86 386.83 241.83 387.69" style="fill: rgb(206, 111, 100); transform-origin: 235.62px 392.685px;" id="elnjyor5f7s6" class="animable"></polygon><polygon points="184.03 361 190.68 367.23 183.28 375.35 176.64 369.12 184.03 361" style="fill: rgb(206, 111, 100); transform-origin: 183.66px 368.175px;" id="el8ux4it25z8" class="animable"></polygon><path d="M276.41,160.06c-.07-7.27-6.65-9.81-6.65-9.81s8.23-15.58,4-25.92-18.17-12.16-22.59-7.33c-7.77-.33-10.24,10.83-10.24,10.83s-6.5,1.09-8.25,5.82,3.58,10.06,3.58,10.06-7.42,1-10.15,6.71-1.05,13.29,7.15,19.83c11.92,9.5,33.83-2.42,33.83-2.42S276.49,168.42,276.41,160.06Z" style="fill: rgb(38, 50, 56); transform-origin: 250.655px 144.189px;" id="elie09p2kzfhq" class="animable"></path><path d="M275,167.29s4,1.75-9.36,54.52l-37-3.21c1.92-15,2.75-24.32-1.78-55.88a109,109,0,0,1,15.91-.71,119.11,119.11,0,0,1,16.82,1.45A158.55,158.55,0,0,1,275,167.29Z" style="fill: #134069; transform-origin: 251.211px 191.888px;" id="el2sphqtys1a3" class="animable"></path><g id="eltjjj9gtudn"><path d="M275,167.29s4,1.75-9.36,54.52l-37-3.21c1.92-15,2.75-24.32-1.78-55.88a109,109,0,0,1,15.91-.71,119.11,119.11,0,0,1,16.82,1.45A158.55,158.55,0,0,1,275,167.29Z" style="fill: rgb(250, 250, 250); opacity: 0.6; transform-origin: 251.211px 191.888px;" class="animable" id="el1h90q4ke0e3j"></path></g><path d="M265.41,164.71c-1.92-.46-4-.9-5.9-1.25A119.11,119.11,0,0,0,242.69,162c-1.93-.07-3.86-.07-5.67,0l1.24,2.36c.22.42,5.5,10.27,15.53,15.86l2.76,1.54,2.57-1.83C265.6,175.3,266.56,169.28,265.41,164.71Z" style="fill: rgb(250, 250, 250); transform-origin: 251.424px 171.854px;" id="elqosepjwdbvp" class="animable"></path><path d="M246,143.21c.59,5.51.79,15.52-3.3,18.8,0,0,4.68,8.89,13.54,13.82,7.84-5.58,3.28-12.37,3.28-12.37-5.91-2-5.37-6.42-4-10.54Z" style="fill: rgb(228, 137, 123); transform-origin: 251.769px 159.52px;" id="elh60g6lqmi3" class="animable"></path><path d="M249.89,147.17l5.66,5.75a17.5,17.5,0,0,0-.78,2.94c-2.27-.53-5.57-2.9-5.61-5.34A9.84,9.84,0,0,1,249.89,147.17Z" style="fill: rgb(206, 111, 100); transform-origin: 252.355px 151.515px;" id="elwyr155j9no" class="animable"></path><path d="M245.76,130.71c-1.09,9-1.74,12.81,1.93,18.22,5.52,8.12,16.84,7.48,20.59-1,3.38-7.66,4.59-21.12-3.5-26.27A12.39,12.39,0,0,0,245.76,130.71Z" style="fill: rgb(228, 137, 123); transform-origin: 257.891px 137.179px;" id="el2d0o6ag2l7i" class="animable"></path><path d="M252.74,119.62c6.95,1.8.08,22.94-11,16.81,0,0,.5-8.93,3.58-12.72A11.5,11.5,0,0,1,252.74,119.62Z" style="fill: rgb(38, 50, 56); transform-origin: 248.639px 128.581px;" id="el995wcakbzg5" class="animable"></path><path d="M252,120.79c3,4.88,25.25,14.13,17.77,3.63S252,120.79,252,120.79Z" style="fill: rgb(38, 50, 56); transform-origin: 261.649px 123.906px;" id="elsx4s6bvdck9" class="animable"></path><path d="M242.9,138.5a6.68,6.68,0,0,0,1.59,4.82c1.54,1.75,3.57.69,4.21-1.43.57-1.9.46-5.1-1.59-6.08A3,3,0,0,0,242.9,138.5Z" style="fill: rgb(228, 137, 123); transform-origin: 245.94px 139.877px;" id="ellx1fs3owve7" class="animable"></path><path d="M265.6,221.81s12.53,55.44,4.17,94.52c-5.6,26.18-25.81,79.06-25.81,79.06l-15.8-.4s15.29-55.5,18.46-77.32c5.41-37.34-8.14-98.21-8.14-98.21Z" style="fill: rgb(38, 50, 56); transform-origin: 250.403px 307.425px;" id="elnve8swi25y" class="animable"></path><path d="M251.15,233l-7.9,12.46a381.36,381.36,0,0,1,4.52,44.63C258.88,270.2,253.62,243.53,251.15,233Z" style="fill: rgb(38, 50, 56); transform-origin: 248.913px 261.545px;" id="elawd4mov50sn" class="animable"></path><polygon points="245.26 396.21 225.74 395.71 226.87 389.72 248.18 390.73 245.26 396.21" style="fill: #134069; transform-origin: 236.96px 392.965px;" id="el09gx0sban4q7" class="animable"></polygon><g id="el7l8jakcop0x"><polygon points="245.26 396.21 225.74 395.71 226.87 389.72 248.18 390.73 245.26 396.21" style="fill: rgb(250, 250, 250); opacity: 0.6; transform-origin: 236.96px 392.965px;" class="animable" id="elgffzije1to5"></polygon></g><path d="M257.5,221.21s-7.35,58.8-23.29,90.9C221.34,338,187,375,187,375l-8.78-9.05s23.2-40.11,32.77-57.34c23.46-42.23,4.28-74.45,17.58-90Z" style="fill: rgb(38, 50, 56); transform-origin: 217.86px 296.805px;" id="elm7v3bdpejg" class="animable"></path><polygon points="187.88 376.16 176.54 365.11 180.31 359.99 192.66 372.76 187.88 376.16" style="fill: #134069; transform-origin: 184.6px 368.075px;" id="elvsyivknbsbd" class="animable"></polygon><g id="elph6rfrr1g5q"><polygon points="187.88 376.16 176.54 365.11 180.31 359.99 192.66 372.76 187.88 376.16" style="fill: rgb(250, 250, 250); opacity: 0.6; transform-origin: 184.6px 368.075px;" class="animable" id="elc9ein6nn1kv"></polygon></g><path d="M228.19,216.38l-1.95,3.17c-.16.25.13.54.55.57l38.85,3.36c.34,0,.63-.11.67-.32l.62-3.28c0-.23-.23-.45-.6-.48l-37.51-3.25A.68.68,0,0,0,228.19,216.38Z" style="fill: #134069; transform-origin: 246.563px 219.81px;" id="eljd0i7w2o2qs" class="animable"></path><g id="elqxv7zghlpv"><path d="M228.19,216.38l-1.95,3.17c-.16.25.13.54.55.57l38.85,3.36c.34,0,.63-.11.67-.32l.62-3.28c0-.23-.23-.45-.6-.48l-37.51-3.25A.68.68,0,0,0,228.19,216.38Z" style="opacity: 0.3; transform-origin: 246.563px 219.81px;" class="animable" id="elaqg1ysbfjo"></path></g><path d="M232.87,221l-1-.09c-.2,0-.34-.13-.32-.26l.85-4.26c0-.13.21-.22.41-.2l1,.09c.2,0,.34.13.32.26l-.84,4.26C233.25,220.94,233.07,221,232.87,221Z" style="fill: rgb(38, 50, 56); transform-origin: 232.84px 218.594px;" id="elkzlnetm4j2j" class="animable"></path><path d="M262.79,223.6l-1-.09c-.2,0-.34-.13-.32-.26l.85-4.27c0-.12.21-.21.41-.19l1,.09c.2,0,.34.13.32.25l-.84,4.27C263.17,223.53,263,223.61,262.79,223.6Z" style="fill: rgb(38, 50, 56); transform-origin: 262.76px 221.194px;" id="elchf0exfu24w" class="animable"></path><path d="M247.83,222.3l-1-.08c-.2,0-.34-.14-.32-.26l.85-4.27c0-.12.21-.21.41-.19l1,.08c.2,0,.34.14.32.26l-.84,4.27C248.21,222.23,248,222.32,247.83,222.3Z" style="fill: rgb(38, 50, 56); transform-origin: 247.8px 219.9px;" id="el51tkk5i4m2" class="animable"></path><path d="M258.83,135.68c-.13.72.15,1.38.62,1.47s1-.43,1.1-1.16-.14-1.39-.62-1.47S259,135,258.83,135.68Z" style="fill: rgb(38, 50, 56); transform-origin: 259.685px 135.836px;" id="elg4vtwhhmgfd" class="animable"></path><path d="M267,137.18c-.13.72.15,1.38.62,1.47s1-.43,1.1-1.16-.14-1.39-.62-1.47S267.18,136.45,267,137.18Z" style="fill: rgb(38, 50, 56); transform-origin: 267.855px 137.336px;" id="elb6rydgoupa4" class="animable"></path><path d="M267.93,136l1.83-.18S268.62,137,267.93,136Z" style="fill: rgb(38, 50, 56); transform-origin: 268.845px 136.111px;" id="el50dsp0z7r04" class="animable"></path><path d="M264.64,138a20,20,0,0,0,1.75,5.11,3.17,3.17,0,0,1-2.68,0Z" style="fill: rgb(222, 87, 83); transform-origin: 265.05px 140.704px;" id="elrbvhakerlsf" class="animable"></path><path d="M260.67,145.51h0a6.17,6.17,0,0,1-4.58-3.35.18.18,0,0,1,.1-.23.17.17,0,0,1,.23.09,5.88,5.88,0,0,0,4.31,3.13.18.18,0,0,1,0,.36Z" style="fill: rgb(38, 50, 56); transform-origin: 258.494px 143.712px;" id="el47ulyl58mr7" class="animable"></path><path d="M256.88,130a.36.36,0,0,1-.22-.65,4.22,4.22,0,0,1,3.81-.77.36.36,0,0,1,.22.46.36.36,0,0,1-.46.22,3.49,3.49,0,0,0-3.13.66A.4.4,0,0,1,256.88,130Z" style="fill: rgb(38, 50, 56); transform-origin: 258.612px 129.208px;" id="el1higdy83bfd" class="animable"></path><path d="M271.68,134.42a.37.37,0,0,1-.28-.13,3.54,3.54,0,0,0-2.9-1.37.37.37,0,0,1-.4-.32.35.35,0,0,1,.32-.39,4.21,4.21,0,0,1,3.54,1.62.37.37,0,0,1,0,.51A.4.4,0,0,1,271.68,134.42Z" style="fill: rgb(38, 50, 56); transform-origin: 270.08px 133.313px;" id="el5yz8osclvw" class="animable"></path><path d="M229.59,176a89.89,89.89,0,0,1-5,8.68c-1.8,2.76-3.7,5.46-5.75,8.06a86.54,86.54,0,0,1-6.65,7.45c-1.22,1.15-2.41,2.32-3.72,3.4l-1,.82-.24.2-.32.25a7.37,7.37,0,0,1-.66.48,12.29,12.29,0,0,1-2.94,1.48,15,15,0,0,1-6.09.67,23.64,23.64,0,0,1-5.4-1.19,42,42,0,0,1-9.19-4.53,84.71,84.71,0,0,1-15.14-12.54l2.66-2.79c2.39,1.92,4.91,3.83,7.49,5.56a76.8,76.8,0,0,0,7.88,4.84,41.6,41.6,0,0,0,8.16,3.41c2.7.75,5.41.88,7.28.1a8,8,0,0,0,2.77-2c1.11-1,2.14-2.11,3.19-3.19,2.05-2.23,3.95-4.62,5.82-7s3.56-5,5.2-7.6c.83-1.3,1.62-2.62,2.4-3.94s1.53-2.71,2.18-3.95Z" style="fill: rgb(228, 137, 123); transform-origin: 198.54px 190.115px;" id="elumdorwk3ui" class="animable"></path><path d="M172.68,187.63l-3.56-7.36-5.92,7.52s3.92,3.27,7.73,3.15Z" style="fill: rgb(228, 137, 123); transform-origin: 167.94px 185.607px;" id="elcv432t3j84s" class="animable"></path><polygon points="165.23 178.12 161.88 184.53 163.2 187.79 169.12 180.27 165.23 178.12" style="fill: rgb(228, 137, 123); transform-origin: 165.5px 182.955px;" id="el1lx262f3cdd" class="animable"></polygon><path d="M226.78,162.72c-4.54.8-10.91,13.83-10.91,13.83l12.47,11.27s8.08-10.85,7.6-16.77C235.53,166,232.56,161.7,226.78,162.72Z" style="fill: #134069; transform-origin: 225.915px 175.195px;" id="elush373zj8vl" class="animable"></path><g id="elxoa02iv3h7h"><path d="M226.78,162.72c-4.54.8-10.91,13.83-10.91,13.83l12.47,11.27s8.08-10.85,7.6-16.77C235.53,166,232.56,161.7,226.78,162.72Z" style="fill: rgb(250, 250, 250); opacity: 0.6; transform-origin: 225.915px 175.195px;" class="animable" id="elbffk25pi90d"></path></g><path d="M181.16,384.83a1,1,0,0,1-.35-.06c-1.09-.36-1.8-2.37-2.13-3.54a.18.18,0,0,1,.06-.19.2.2,0,0,1,.2,0c.33.17,3.23,1.73,3.32,2.87a.67.67,0,0,1-.31.64A1.3,1.3,0,0,1,181.16,384.83Zm-2-3.28c.5,1.61,1.15,2.67,1.77,2.88a.85.85,0,0,0,.82-.19.33.33,0,0,0,.16-.32C181.85,383.22,180.15,382.11,179.15,381.55Z" style="fill: #134069; transform-origin: 180.468px 382.922px;" id="eluxpbpuyltxl" class="animable"></path><path d="M181.61,382a6.5,6.5,0,0,1-2.85-.67.16.16,0,0,1-.09-.15.18.18,0,0,1,.1-.16c.09,0,2.39-1.31,3.63-.87a1.07,1.07,0,0,1,.67.64.72.72,0,0,1-.16.89A2.1,2.1,0,0,1,181.61,382Zm-2.36-.82c1,.42,2.89.68,3.43.22.09-.07.17-.2.06-.48a.73.73,0,0,0-.46-.43C181.43,380.19,179.9,380.86,179.25,381.18Z" style="fill: #134069; transform-origin: 180.914px 381.033px;" id="elmsvdepuq63g" class="animable"></path><path d="M241.5,407.76a14.7,14.7,0,0,1-3-.38.18.18,0,0,1-.14-.16.17.17,0,0,1,.1-.18c.45-.21,4.38-2,5.38-1.36a.61.61,0,0,1,.26.56,1.35,1.35,0,0,1-.54,1A3.6,3.6,0,0,1,241.5,407.76Zm-2.34-.62c1.17.22,3.33.5,4.22-.17a1,1,0,0,0,.4-.75.26.26,0,0,0-.1-.24C243.12,405.6,240.79,406.42,239.16,407.14Z" style="fill: #134069; transform-origin: 241.231px 406.654px;" id="elfhco45yqoj" class="animable"></path><path d="M238.58,407.38a.16.16,0,0,1-.12,0,.19.19,0,0,1-.06-.18c0-.16.94-4.05,3.07-3.8.54.06.68.33.71.54.14,1-2.35,3-3.53,3.47Zm2.7-3.67c-1.37,0-2.16,2.26-2.43,3.17,1.29-.68,3.06-2.3,3-2.93,0-.05,0-.19-.39-.23Z" style="fill: #134069; transform-origin: 240.291px 405.399px;" id="el5qhdlm9x6e" class="animable"></path><path d="M259.72,134.52l1.83-.19S260.41,135.53,259.72,134.52Z" style="fill: rgb(38, 50, 56); transform-origin: 260.635px 134.627px;" id="elo9zsq4ct7jc" class="animable"></path><g id="elmpqfqgrm5zi"><path d="M184.49,77.53,155.18,267,320.1,292.48,349.41,103ZM252.25,185.3A38.72,38.72,0,1,1,296.43,153,38.72,38.72,0,0,1,252.25,185.3Z" style="fill: #134069; opacity: 0.6; transform-origin: 252.295px 185.005px;" class="animable" id="el8dr5wvo5ay4"></path></g><g id="el1ytmboct17f"><path d="M315.12,285.29l-.25,0L149.7,259.7l0-.25L179.09,69.76l.24,0L344.5,95.35l0,.25Zm-164.85-26L314.7,284.72l29.23-189L179.5,70.33Z" style="fill: #134069; opacity: 0.3; mix-blend-mode: multiply; transform-origin: 247.1px 177.525px;" class="animable" id="elp9o6gnq8cwg"></path></g><path d="M258.19,187.26a40.47,40.47,0,0,1-6.17-.48h0a40.16,40.16,0,1,1,6.17.48Zm-5.71-3.44a37.21,37.21,0,1,0-31.09-42.47,37.26,37.26,0,0,0,31.09,42.47Z" style="fill: rgb(250, 250, 250); transform-origin: 258.211px 147.1px;" id="ele26l9ija5eb" class="animable"></path><g id="el9l3zhofrfvd"><rect x="183.2" y="194.18" width="36.76" height="8.26" style="fill: #134069; transform-origin: 201.58px 198.31px; transform: rotate(8.79deg);" class="animable" id="el1nfvsffn3xfi"></rect></g><g id="elzhnkcsxeln"><rect x="183.2" y="194.18" width="36.76" height="8.26" style="fill: rgb(250, 250, 250); opacity: 0.6; transform-origin: 201.58px 198.31px; transform: rotate(8.79deg);" class="animable" id="elo9maerdid4"></rect></g><g id="el5rcnlrq3cot"><rect x="224.38" y="199.63" width="24.87" height="8.26" style="fill: #134069; transform-origin: 236.815px 203.76px; transform: rotate(8.79deg);" class="animable" id="elt8gm3eqsky"></rect></g><g id="elk9ig0373qeh"><rect x="224.38" y="199.63" width="24.87" height="8.26" style="fill: rgb(250, 250, 250); opacity: 0.6; transform-origin: 236.815px 203.76px; transform: rotate(8.79deg);" class="animable" id="elt6zkle6fns"></rect></g><g id="elssjhtzo31ng"><rect x="180.07" y="218.07" width="132.93" height="8.26" style="fill: rgb(250, 250, 250); transform-origin: 246.535px 222.2px; transform: rotate(8.79deg);" class="animable" id="eldfo2v8a2jt"></rect></g><g id="eldqgjm2uaovs"><rect x="177.78" y="230.32" width="66.1" height="8.26" style="fill: rgb(250, 250, 250); transform-origin: 210.83px 234.45px; transform: rotate(8.61565deg);" class="animable" id="el7it6dp9pmyg"></rect></g><g id="eliz63n4pf8xh"><rect x="254.41" y="240.48" width="44.22" height="8.26" style="fill: rgb(250, 250, 250); transform-origin: 276.52px 244.61px; transform: rotate(8.79deg);" class="animable" id="eloz7nry2krm"></rect></g><g id="el32dl4q6scno"><rect x="174.86" y="250.75" width="106.27" height="8.26" style="fill: rgb(250, 250, 250); transform-origin: 227.995px 254.88px; transform: rotate(8.79deg);" class="animable" id="eltv5n907gxhl"></rect></g><path d="M351.17,292.48h-1a29.86,29.86,0,0,0-.91-7.36l1-.24A30.78,30.78,0,0,1,351.17,292.48Zm-3.92-12.92A30.36,30.36,0,0,0,337.58,268l.58-.81a31.44,31.44,0,0,1,10,11.92Z" style="fill: #134069; transform-origin: 344.375px 279.835px;" id="elclj4hx6xy9u" class="animable"></path><g id="el2ui8b01bway"><path d="M351.17,292.48h-1a29.86,29.86,0,0,0-.91-7.36l1-.24A30.78,30.78,0,0,1,351.17,292.48Zm-3.92-12.92A30.36,30.36,0,0,0,337.58,268l.58-.81a31.44,31.44,0,0,1,10,11.92Z" style="fill: rgb(250, 250, 250); opacity: 0.6; transform-origin: 344.375px 279.835px;" class="animable" id="elg7tlt2he9zu"></path></g><path d="M320.1,264.91a27.57,27.57,0,1,0,27.57,27.57A27.57,27.57,0,0,0,320.1,264.91Zm0,51.57a24,24,0,1,1,24-24A24,24,0,0,1,320.1,316.48Z" style="fill: #134069; transform-origin: 320.1px 292.48px;" id="el33mouesofpe" class="animable"></path><g id="elokgss9453af"><path d="M320.1,264.91a27.57,27.57,0,1,0,27.57,27.57A27.57,27.57,0,0,0,320.1,264.91Zm0,51.57a24,24,0,1,1,24-24A24,24,0,0,1,320.1,316.48Z" style="fill: rgb(250, 250, 250); opacity: 0.6; transform-origin: 320.1px 292.48px;" class="animable" id="el4p7p1s7waol"></path></g><circle cx="320.1" cy="292.48" r="23.99" style="fill: #134069; transform-origin: 320.1px 292.48px;" id="el6ki7f9zh9nm" class="animable"></circle><g id="eln86bov909b"><circle cx="320.1" cy="292.48" r="23.99" style="opacity: 0.2; transform-origin: 320.1px 292.48px;" class="animable" id="elxsqgnvdmtia"></circle></g><polygon points="316.37 307.66 302.29 293.58 305.83 290.05 316.37 300.59 334.38 282.58 337.91 286.12 316.37 307.66" style="fill: rgb(250, 250, 250); transform-origin: 320.1px 295.12px;" id="els8owzahrqib" class="animable"></polygon></g><defs>     <filter id="active" height="200%">         <feMorphology in="SourceAlpha" result="DILATED" operator="dilate" radius="2"></feMorphology>                <feFlood flood-color="#32DFEC" flood-opacity="1" result="PINK"></feFlood>        <feComposite in="PINK" in2="DILATED" operator="in" result="OUTLINE"></feComposite>        <feMerge>            <feMergeNode in="OUTLINE"></feMergeNode>            <feMergeNode in="SourceGraphic"></feMergeNode>        </feMerge>    </filter>    <filter id="hover" height="200%">        <feMorphology in="SourceAlpha" result="DILATED" operator="dilate" radius="2"></feMorphology>                <feFlood flood-color="#ff0000" flood-opacity="0.5" result="PINK"></feFlood>        <feComposite in="PINK" in2="DILATED" operator="in" result="OUTLINE"></feComposite>        <feMerge>            <feMergeNode in="OUTLINE"></feMergeNode>            <feMergeNode in="SourceGraphic"></feMergeNode>        </feMerge>            <feColorMatrix type="matrix" values="0   0   0   0   0                0   1   0   0   0                0   0   0   0   0                0   0   0   1   0 "></feColorMatrix>    </filter></defs></svg>