<?xml version="1.0" encoding="UTF-8"?>
<svg xmlns="http://www.w3.org/2000/svg" xmlns:xlink="http://www.w3.org/1999/xlink" width="375pt" height="374.999991pt" viewBox="0 0 375 374.999991" version="1.2">
<defs>
<clipPath id="clip1">
  <path d="M 27 95 L 209 95 L 209 277 L 27 277 Z M 27 95 "/>
</clipPath>
<clipPath id="clip2">
  <path d="M -10.328125 83.121094 L 352.554688 16.21875 L 400.964844 278.792969 L 38.082031 345.695312 Z M -10.328125 83.121094 "/>
</clipPath>
<clipPath id="clip3">
  <path d="M -10.328125 83.121094 L 352.554688 16.21875 L 400.964844 278.792969 L 38.082031 345.695312 Z M -10.328125 83.121094 "/>
</clipPath>
<clipPath id="clip4">
  <path d="M 170 91 L 352 91 L 352 273 L 170 273 Z M 170 91 "/>
</clipPath>
<clipPath id="clip5">
  <path d="M -10.328125 83.121094 L 352.554688 16.21875 L 400.964844 278.792969 L 38.082031 345.695312 Z M -10.328125 83.121094 "/>
</clipPath>
<clipPath id="clip6">
  <path d="M -10.328125 83.121094 L 352.554688 16.21875 L 400.964844 278.792969 L 38.082031 345.695312 Z M -10.328125 83.121094 "/>
</clipPath>
</defs>
<g id="surface1">
<rect x="0" y="0" width="375" height="374.999991" style="fill:rgb(100%,100%,100%);fill-opacity:1;stroke:none;"/>
<rect x="0" y="0" width="375" height="374.999991" style="fill:rgb(100%,100%,100%);fill-opacity:1;stroke:none;"/>
<rect x="0" y="0" width="375" height="374.999991" style="fill:rgb(100%,100%,100%);fill-opacity:1;stroke:none;"/>
<rect x="0" y="0" width="375" height="374.999991" style="fill:rgb(100%,100%,100%);fill-opacity:1;stroke:none;"/>
<g clip-path="url(#clip1)" clip-rule="nonzero">
<g clip-path="url(#clip2)" clip-rule="nonzero">
<g clip-path="url(#clip3)" clip-rule="nonzero">
<path style=" stroke:none;fill-rule:nonzero;fill:rgb(7.449341%,25.099182%,41.178894%);fill-opacity:1;" d="M 191.070312 164.929688 C 186.242188 165.820312 182.570312 169.589844 180.953125 174.5625 L 180.953125 174.554688 C 180.953125 174.554688 179.191406 178.042969 172.023438 174.640625 L 161.582031 118 L 107.71875 127.929688 C 102.640625 123.0625 104.179688 120.589844 104.53125 119.722656 C 108.777344 116.4375 111.105469 111.542969 110.195312 106.609375 C 108.796875 99.023438 100.289062 94.234375 91.199219 95.910156 C 82.101562 97.585938 75.859375 105.09375 77.257812 112.679688 C 78.148438 117.507812 81.921875 121.191406 86.890625 122.8125 L 86.882812 122.8125 C 86.882812 122.8125 90.359375 124.578125 86.972656 131.757812 L 27.511719 142.71875 L 36.042969 188.980469 C 38.859375 184.601562 43.074219 181.59375 48.023438 180.683594 C 58.632812 178.726562 69.082031 187.023438 71.320312 199.15625 C 73.558594 211.304688 66.753906 222.777344 56.144531 224.730469 C 51.246094 225.636719 46.1875 224.292969 41.984375 221.214844 L 52.269531 276.988281 L 102.410156 267.742188 C 98.027344 264.917969 95.039062 260.691406 94.125 255.738281 C 92.167969 245.117188 100.4375 234.652344 112.554688 232.417969 C 124.6875 230.183594 136.136719 237.011719 138.09375 247.632812 C 139 252.542969 137.671875 257.601562 134.601562 261.808594 L 186.335938 252.269531 L 175.855469 195.421875 C 180.710938 190.339844 183.179688 191.886719 184.050781 192.230469 C 187.335938 196.488281 192.222656 198.824219 197.148438 197.914062 C 204.71875 196.519531 209.5 188.003906 207.820312 178.890625 C 206.144531 169.785156 198.636719 163.535156 191.070312 164.929688 "/>
</g>
</g>
</g>
<g clip-path="url(#clip4)" clip-rule="nonzero">
<g clip-path="url(#clip5)" clip-rule="nonzero">
<g clip-path="url(#clip6)" clip-rule="nonzero">
<path style=" stroke:none;fill-rule:nonzero;fill:rgb(0.389099%,58.039856%,60.389709%);fill-opacity:1;" d="M 333.988281 138.097656 C 329.167969 138.984375 325.488281 142.757812 323.882812 147.734375 L 323.878906 147.726562 C 323.878906 147.726562 322.113281 151.214844 314.945312 147.8125 L 304.585938 91.636719 L 253.667969 101.023438 C 258.042969 103.84375 261.039062 108.070312 261.953125 113.03125 C 263.914062 123.65625 255.640625 134.109375 243.519531 136.34375 C 231.386719 138.582031 219.9375 131.761719 217.980469 121.140625 C 217.074219 116.230469 218.402344 111.160156 221.472656 106.957031 L 170.511719 116.355469 L 179.84375 166.964844 C 182.664062 162.832031 186.753906 160.015625 191.53125 159.132812 C 202.128906 157.179688 212.582031 165.46875 214.820312 177.609375 C 217.058594 189.75 210.246094 201.210938 199.648438 203.167969 C 194.925781 204.039062 190.042969 202.820312 185.929688 199.976562 L 195.265625 250.621094 L 252.359375 240.097656 C 256.921875 244.695312 255.480469 247.058594 255.136719 247.90625 C 250.898438 251.191406 248.5625 256.082031 249.472656 261.019531 C 250.871094 268.605469 259.375 273.394531 268.476562 271.714844 C 277.566406 270.039062 283.804688 262.535156 282.40625 254.945312 C 281.515625 250.121094 277.75 246.433594 272.785156 244.8125 L 272.792969 244.808594 C 272.792969 244.808594 269.5 243.125 272.472656 236.386719 L 329.34375 225.902344 L 318.773438 168.589844 C 323.632812 163.515625 326.105469 165.050781 326.972656 165.402344 C 330.253906 169.65625 335.140625 171.988281 340.066406 171.082031 C 347.644531 169.683594 352.417969 161.167969 350.742188 152.066406 C 349.0625 142.953125 341.5625 136.699219 333.988281 138.097656 "/>
</g>
</g>
</g>
</g>
</svg>
