<svg class="animated" id="freepik_stories-running-wild" xmlns="http://www.w3.org/2000/svg" viewBox="0 0 500 500" version="1.1" xmlns:xlink="http://www.w3.org/1999/xlink" xmlns:svgjs="http://svgjs.com/svgjs"><style>svg#freepik_stories-running-wild:not(.animated) .animable {opacity: 0;}svg#freepik_stories-running-wild.animated #freepik--background-complete--inject-25 {animation: 6s Infinite  linear shake;animation-delay: 0s;}svg#freepik_stories-running-wild.animated #freepik--Plants--inject-25 {animation: 3s Infinite  linear floating;animation-delay: 0s;}            @keyframes shake {                10%, 90% {                    transform: translate3d(-1px, 0, 0);                  }                  20%, 80% {                    transform: translate3d(2px, 0, 0);                  }                  30%, 50%, 70% {                    transform: translate3d(-4px, 0, 0);                  }                  40%, 60% {                    transform: translate3d(4px, 0, 0);                  }            }                    @keyframes floating {                0% {                    opacity: 1;                    transform: translateY(0px);                }                50% {                    transform: translateY(-10px);                }                100% {                    opacity: 1;                    transform: translateY(0px);                }            }        </style><g id="freepik--background-complete--inject-25" class="animable" style="transform-origin: 250px 214.584px;"><rect y="382.4" width="500" height="0.25" style="fill: rgb(235, 235, 235); transform-origin: 250px 382.525px;" id="elpnpy5fj75mg" class="animable"></rect><rect x="52.46" y="391.92" width="33.12" height="0.25" style="fill: rgb(235, 235, 235); transform-origin: 69.02px 392.045px;" id="elognpg51uqhi" class="animable"></rect><rect x="171.14" y="389.21" width="46.75" height="0.25" style="fill: rgb(235, 235, 235); transform-origin: 194.515px 389.335px;" id="elg6aon39s279" class="animable"></rect><rect x="112.8" y="399.65" width="19.19" height="0.25" style="fill: rgb(235, 235, 235); transform-origin: 122.395px 399.775px;" id="el1vsa8zf95u1" class="animable"></rect><rect x="312.33" y="395.31" width="30.21" height="0.25" style="fill: rgb(235, 235, 235); transform-origin: 327.435px 395.435px;" id="elwcny55qf7h" class="animable"></rect><rect x="351.44" y="395.31" width="19.32" height="0.25" style="fill: rgb(235, 235, 235); transform-origin: 361.1px 395.435px;" id="elsm87xtx7gym" class="animable"></rect><rect x="391.35" y="399.53" width="58.56" height="0.25" style="fill: rgb(235, 235, 235); transform-origin: 420.63px 399.655px;" id="eloceodc3ur4q" class="animable"></rect><path d="M237,337.8H43.91a5.71,5.71,0,0,1-5.7-5.71V60.66A5.71,5.71,0,0,1,43.91,55H237a5.71,5.71,0,0,1,5.71,5.71V332.09A5.71,5.71,0,0,1,237,337.8ZM43.91,55.2a5.46,5.46,0,0,0-5.45,5.46V332.09a5.46,5.46,0,0,0,5.45,5.46H237a5.47,5.47,0,0,0,5.46-5.46V60.66A5.47,5.47,0,0,0,237,55.2Z" style="fill: rgb(235, 235, 235); transform-origin: 140.46px 196.4px;" id="ellfzz1vvk3z" class="animable"></path><path d="M453.31,337.8H260.21a5.72,5.72,0,0,1-5.71-5.71V60.66A5.72,5.72,0,0,1,260.21,55h193.1A5.71,5.71,0,0,1,459,60.66V332.09A5.71,5.71,0,0,1,453.31,337.8ZM260.21,55.2a5.47,5.47,0,0,0-5.46,5.46V332.09a5.47,5.47,0,0,0,5.46,5.46h193.1a5.47,5.47,0,0,0,5.46-5.46V60.66a5.47,5.47,0,0,0-5.46-5.46Z" style="fill: rgb(235, 235, 235); transform-origin: 356.75px 196.4px;" id="elwnznjujby1" class="animable"></path><g id="elhglluohgrs"><circle cx="303.06" cy="66.97" r="31.02" style="fill: rgb(250, 250, 250); transform-origin: 303.06px 66.97px; transform: rotate(-75.75deg);" class="animable"></circle></g><path d="M425.83,80a1.2,1.2,0,0,0,.45-.15A30,30,0,0,1,441,75.52c5.48,0,8.46,2.2,7.93,5.32a1.15,1.15,0,0,0,1.29,1.35,14.7,14.7,0,0,1,2-.14c4.39,0,6.15,2.31,3.93,5.16-.11.14-.23.29-.36.43a1.14,1.14,0,0,1-.84.36H414.09a1.15,1.15,0,0,1-.94-1.84l0,0C415.55,83.07,420.93,80.53,425.83,80Z" style="fill: rgb(245, 245, 245); transform-origin: 435.015px 81.7601px;" id="elrptz6l5pzs" class="animable"></path><path d="M188.51,226.68a1.2,1.2,0,0,0,.45-.15,30,30,0,0,1,14.71-4.33c5.49,0,8.47,2.2,7.94,5.33a1.15,1.15,0,0,0,1.29,1.34,14.55,14.55,0,0,1,1.95-.14c4.4,0,6.16,2.31,3.94,5.16-.11.14-.23.29-.36.43a1.14,1.14,0,0,1-.84.36H176.76a1.15,1.15,0,0,1-.93-1.84v0C178.23,229.75,183.61,227.21,188.51,226.68Z" style="fill: rgb(245, 245, 245); transform-origin: 197.675px 228.44px;" id="eldr6ovm29lr5" class="animable"></path><path d="M185.35,38.86a1.2,1.2,0,0,0,.45-.15,30,30,0,0,1,14.72-4.33c5.48,0,8.46,2.2,7.93,5.32a1.16,1.16,0,0,0,1.29,1.35,14.7,14.7,0,0,1,2-.14c4.39,0,6.15,2.31,3.93,5.16-.11.14-.23.29-.36.43a1.14,1.14,0,0,1-.84.36H173.61a1.15,1.15,0,0,1-.94-1.84l0,0C175.07,41.93,180.45,39.39,185.35,38.86Z" style="fill: rgb(245, 245, 245); transform-origin: 194.535px 40.6201px;" id="el7ywtpjaiayy" class="animable"></path><path d="M408.69,96.55h0a1.48,1.48,0,0,1-1.45-1.18c-.55-2.52-3.62-4.18-8.58-4.18a25,25,0,0,0-3.31.22,1.46,1.46,0,0,1-1.61-1.13c-.82-3.32-4.94-5.51-11.55-5.51-9,0-19.64,4-25.86,9.45a1.44,1.44,0,0,1-.74.34c-5.71.81-11.82,3.79-14.58,7.34a8.75,8.75,0,0,0-.76,1.15h73.35l0,0C416.38,99.44,414.18,96.55,408.69,96.55Z" style="fill: rgb(245, 245, 245); transform-origin: 377.527px 93.91px;" id="el2qf8q52ddcv" class="animable"></path><path d="M68.71,186.74h0a.9.9,0,0,1-.89-.72c-.34-1.55-2.22-2.57-5.26-2.57a15.75,15.75,0,0,0-2,.14.89.89,0,0,1-1-.69c-.51-2-3-3.38-7.09-3.38a26.32,26.32,0,0,0-15.84,5.79,1,1,0,0,1-.46.21c-3.5.49-7.24,2.32-8.93,4.5a4.08,4.08,0,0,0-.47.7h45l0,0C73.42,188.51,72.07,186.74,68.71,186.74Z" style="fill: rgb(245, 245, 245); transform-origin: 49.6214px 185.12px;" id="elwrjepuww0sm" class="animable"></path><path d="M123.44,235.44c-9.7-50.26,44.23-102,32.23-119.33S92.33,77.33,112.8,114,110.33,171.33,83,237.67s-15.67,130-9.83,144.73h78.5C156.33,349.67,139,316.17,123.44,235.44Z" style="fill: rgb(230, 230, 230); transform-origin: 111.529px 238.155px;" id="elarcy5obyari" class="animable"></path><path d="M120.86,250c15.92-41.1,44-65.93,53.49-82.31s49.43-30.22,26.87-.25-53,32.69-41.15,86.92,22.7,116,15.6,128H111.49C112.87,355.64,95.3,316,120.86,250Z" style="fill: rgb(230, 230, 230); transform-origin: 157.452px 266.079px;" id="el5p0oshzw23" class="animable"></path><path d="M220.81,141.84c9.93-1.39,55.37,28.49,27.1,33S201.41,144.56,220.81,141.84Z" style="fill: rgb(230, 230, 230); transform-origin: 234.9px 158.518px;" id="el6t3pc8jxnlr" class="animable"></path><path d="M207.75,134.11c9-4.47,61.55,9.41,36.19,22.7S190.22,142.87,207.75,134.11Z" style="fill: rgb(230, 230, 230); transform-origin: 226.556px 146.829px;" id="elwmh3d2m219b" class="animable"></path><path d="M200.34,125.41c10,.21,50.12,37,21.49,36.93S180.75,125,200.34,125.41Z" style="fill: rgb(230, 230, 230); transform-origin: 211.401px 143.873px;" id="elrikoytfwun" class="animable"></path><path d="M198.13,128.22c-9.1-4.19-61.22,11.36-35.45,23.84S215.93,136.41,198.13,128.22Z" style="fill: rgb(230, 230, 230); transform-origin: 179.699px 141.364px;" id="elpga5gv3e3hj" class="animable"></path><path d="M211.43,147.66c13,1.66,59.94,54.94,22.76,50.93S186.05,144.41,211.43,147.66Z" style="fill: rgb(230, 230, 230); transform-origin: 222.952px 173.157px;" id="eli1ggx8w6xeg" class="animable"></path><path d="M205.41,149.57c10.34,8,23.74,77.76-6.25,55.43S185.19,133.88,205.41,149.57Z" style="fill: rgb(230, 230, 230); transform-origin: 200.052px 177.953px;" id="el0mm6ao951kro" class="animable"></path><path d="M180.94,147.24c-10,3.89-36.83,55.62-8,45.06S200.51,139.62,180.94,147.24Z" style="fill: rgb(230, 230, 230); transform-origin: 177.578px 170.021px;" id="elvroifhsfnha" class="animable"></path><path d="M180.34,142.62c-9.8-4.38-65.45,12.93-37.68,26S199.52,151.17,180.34,142.62Z" style="fill: rgb(230, 230, 230); transform-origin: 160.746px 156.878px;" id="el25uj6cmof25" class="animable"></path><path d="M109.93,79.09c-14.28-5.46-92,23.45-51.56,39.85S137.85,89.77,109.93,79.09Z" style="fill: rgb(240, 240, 240); transform-origin: 83.1008px 100.439px;" id="elbfxovz5k3sq" class="animable"></path><path d="M132,72.06c-11.8-9.71-94.72-7-61.56,21.39S155.07,91.07,132,72.06Z" style="fill: rgb(240, 240, 240); transform-origin: 100.214px 85.967px;" id="elb0v64f73qjk" class="animable"></path><path d="M146,61.66c-15-3.11-87.14,37.81-44.56,47.56S175.25,67.76,146,61.66Z" style="fill: rgb(240, 240, 240); transform-origin: 122.798px 85.9711px;" id="elubbcrhha1qf" class="animable"></path><path d="M148.31,66.59c15-3.12,87.14,37.8,44.56,47.55S119,72.69,148.31,66.59Z" style="fill: rgb(240, 240, 240); transform-origin: 171.499px 90.8957px;" id="elwv8mnv09sg" class="animable"></path><path d="M121.89,90.94C102,89,14,152.16,70.66,158.89S160.74,94.79,121.89,90.94Z" style="fill: rgb(240, 240, 240); transform-origin: 95.2923px 125.118px;" id="elmt9gl29hnzn" class="animable"></path><path d="M130.19,95.84c-18.11,8.39-61.86,107.51-9.64,84.55S165.61,79.43,130.19,95.84Z" style="fill: rgb(240, 240, 240); transform-origin: 127.008px 138.711px;" id="elqyfaad7m7ig" class="animable"></path><path d="M167.36,100.73c13.55,9.21,35.76,95.29-3.45,69.75S140.87,82.73,167.36,100.73Z" style="fill: rgb(240, 240, 240); transform-origin: 163.234px 136.354px;" id="eleufnhm0lpy" class="animable"></path><path d="M169.84,94.07c16.07-3.15,92.88,41.59,47.15,51.51S138.4,100.24,169.84,94.07Z" style="fill: rgb(240, 240, 240); transform-origin: 194.378px 120.34px;" id="elxky5ss2t6c" class="animable"></path><path d="M384.14,264.58c-7.78-40.3,35.45-81.78,25.83-95.67s-50.77-31.09-34.36-1.7-2,46-23.9,99.15-12.56,104.23-7.88,116h62.94C410.51,356.16,396.64,329.3,384.14,264.58Z" style="fill: rgb(230, 230, 230); transform-origin: 374.585px 266.736px;" id="elt2sosg6dmjs" class="animable"></path><path d="M350.63,276.25c-12.76-32.95-35.26-52.86-42.89-66s-39.62-24.23-21.54-.2,42.47,26.21,33,69.69-18.2,93-12.5,102.65h51.45C357,360.94,371.12,329.16,350.63,276.25Z" style="fill: rgb(230, 230, 230); transform-origin: 321.286px 289.146px;" id="el8ujwv1jd74g" class="animable"></path><path d="M318.86,175c7.56-7.11,63.85-9,42.67,11.72S304.09,188.91,318.86,175Z" style="fill: rgb(230, 230, 230); transform-origin: 340.842px 183.038px;" id="elkghm81laeyc" class="animable"></path><path d="M303.19,176.28c4.91-9.15,57.67-28.87,44.18-2.46S293.61,194.17,303.19,176.28Z" style="fill: rgb(230, 230, 230); transform-origin: 325.651px 176.134px;" id="elwaq891so71i" class="animable"></path><path d="M291.73,173.36c8.59-5.82,64.47,1.24,40.25,18.36S274.93,184.74,291.73,173.36Z" style="fill: rgb(230, 230, 230); transform-origin: 312.574px 184.514px;" id="ely4orb9bitd" class="animable"></path><path d="M291.54,177.05c-10.2,1.91-45,46.23-15.71,41.37S311.49,173.33,291.54,177.05Z" style="fill: rgb(230, 230, 230); transform-origin: 283.712px 197.8px;" id="elvg90lkxk1js" class="animable"></path><path d="M314.41,185.53c12-6.37,83.54,10.59,49.71,29.43S291,198,314.41,185.53Z" style="fill: rgb(230, 230, 230); transform-origin: 340.224px 202.248px;" id="elf9soayi7jrj" class="animable"></path><path d="M310.46,190.74c13.54.6,66.6,51.54,27.89,50.6S284,189.58,310.46,190.74Z" style="fill: rgb(230, 230, 230); transform-origin: 324.782px 216.037px;" id="eleouytkec44g" class="animable"></path><path d="M288.39,203.41c-6.13,9.28,2.14,69.06,20.17,42.9S300.37,185.27,288.39,203.41Z" style="fill: rgb(230, 230, 230); transform-origin: 300.545px 225.634px;" id="elu2x6wfulx9g" class="animable"></path><path d="M285.11,199.87C274.21,202,237.53,250,268.8,244.38S306.44,195.62,285.11,199.87Z" style="fill: rgb(230, 230, 230); transform-origin: 277.022px 222.207px;" id="eli15h4rd6kl" class="animable"></path><path d="M419.38,149.13c12.24.56,60.12,46.74,25.11,45.81S395.44,148,419.38,149.13Z" style="fill: rgb(240, 240, 240); transform-origin: 432.268px 172.032px;" id="eltqjkckaieem" class="animable"></path><path d="M405.42,136.89c11.78-3.36,71.86,25.2,38.38,35.45S382.37,143.46,405.42,136.89Z" style="fill: rgb(240, 240, 240); transform-origin: 425.406px 155.329px;" id="eluqrew4ioi" class="animable"></path><path d="M398.47,124.77c12,2.5,51.92,55.71,17.5,49.23S375,119.87,398.47,124.77Z" style="fill: rgb(240, 240, 240); transform-origin: 407.115px 149.482px;" id="eloyb4874jdxh" class="animable"></path><path d="M395.18,127.64c-10-7.09-76.15-.16-48,20.66S414.73,141.5,395.18,127.64Z" style="fill: rgb(240, 240, 240); transform-origin: 370.34px 140.379px;" id="els20wx13n1a9" class="animable"></path><path d="M406.79,154c15.22,4.93,59.64,79.57,15.87,66.36S377,144.37,406.79,154Z" style="fill: rgb(240, 240, 240); transform-origin: 414.088px 187.462px;" id="elij0bksductq" class="animable"></path><path d="M399.12,154.94c10.62,12,11,98.83-20,65.23S378.35,131.53,399.12,154.94Z" style="fill: rgb(240, 240, 240); transform-origin: 385.734px 188.579px;" id="elijg9e05jqld" class="animable"></path><path d="M370.23,146.62c-12.9,2.42-56.82,58.56-19.82,52.36S395.47,141.88,370.23,146.62Z" style="fill: rgb(240, 240, 240); transform-origin: 360.363px 172.883px;" id="el89isxxv93ub" class="animable"></path><path d="M370.55,140.93c-10.79-7.47-81.59.78-51.16,22.73S391.67,155.54,370.55,140.93Z" style="fill: rgb(240, 240, 240); transform-origin: 344.065px 154.832px;" id="elexydibnvje" class="animable"></path></g><g id="freepik--Shadow--inject-25" class="animable" style="transform-origin: 250px 416.24px;"><ellipse id="freepik--path--inject-25" cx="250" cy="416.24" rx="193.89" ry="11.32" style="fill: rgb(245, 245, 245); transform-origin: 250px 416.24px;" class="animable"></ellipse></g><g id="freepik--Plants--inject-25" class="animable animator-active" style="transform-origin: 248.554px 279.655px;"><path d="M414.13,340.67c-2.19,1.74-4.25,3.57-6.22,5.46.57-1.32,1.13-2.64,1.67-3.95,20.19-48.69,5.41-64.52-17.73-28.35,1.94-12.29,2.92-23.93,2.24-33.58C391,236.16,366,251,361.47,302.3c-.51,5.81-1.21,12.95-2,20.76A145.83,145.83,0,0,0,357,307.57c-9.61-44.09-32.42-29.27-29.37,22.05,1.68,28.3,8.58,67.68,10.41,77.76A2.94,2.94,0,0,0,341,409.8H383.7a3,3,0,0,0,2.64-1.6c3.13-6.05,15.16-28.07,32.8-45.52C451.55,330.62,446.28,315,414.13,340.67Z" style="fill: rgb(19, 64, 105); transform-origin: 384.175px 331.993px;" id="elavbs1ce325p" class="animable"></path><g id="el4wrjzjzgr6q"><path d="M414.13,340.67c-2.19,1.74-4.25,3.57-6.22,5.46.57-1.32,1.13-2.64,1.67-3.95,20.19-48.69,5.41-64.52-17.73-28.35,1.94-12.29,2.92-23.93,2.24-33.58C391,236.16,366,251,361.47,302.3c-.51,5.81-1.21,12.95-2,20.76A145.83,145.83,0,0,0,357,307.57c-9.61-44.09-32.42-29.27-29.37,22.05,1.68,28.3,8.58,67.68,10.41,77.76A2.94,2.94,0,0,0,341,409.8H383.7a3,3,0,0,0,2.64-1.6c3.13-6.05,15.16-28.07,32.8-45.52C451.55,330.62,446.28,315,414.13,340.67Z" style="opacity: 0.2; transform-origin: 384.175px 331.993px;" class="animable"></path></g><path d="M301.76,372.57a15.26,15.26,0,0,0,1.32,3.41c8.39,15.91,27.35-1.39,33.34-17.56-10.89-2.74-25.29-1.21-31.69,4.59l6.08-19.61a15.08,15.08,0,0,0,1.32,3.41c8.38,15.92,27.34-1.39,33.33-17.56-10.89-2.74-25.29-1.2-31.69,4.59l6.08-19.6a15,15,0,0,0,1.32,3.4c8.38,15.92,27.34-1.39,33.34-17.56-10.9-2.73-25.3-1.2-31.7,4.59l6.08-19.6a15.26,15.26,0,0,0,1.32,3.41c8.38,15.91,27.34-1.39,33.34-17.56-10.9-2.74-25.29-1.21-31.69,4.59l6.07-19.61a15.26,15.26,0,0,0,1.32,3.41c8.39,15.91,27.34-1.39,33.34-17.56-10.89-2.74-25.29-1.21-31.69,4.59L347,226.73a15.08,15.08,0,0,0,1.32,3.41c8.38,15.92,27.34-1.39,33.33-17.56-10.89-2.74-25.29-1.21-31.69,4.59l2.17-7c12.27-4,2.7-20.86-8.25-28.1-5.74,11.14-6.1,29.29,4.91,28.76L343.13,229c-2-8.4-13-17.81-23.54-21.72-4.2,16.73,1.64,41.72,17.56,33.34a15.1,15.1,0,0,0,3-2.06l-6.07,19.6c-2-8.4-13-17.8-23.54-21.71-4.21,16.73,1.64,41.72,17.56,33.34a15.53,15.53,0,0,0,3-2.06L325,287.34c-2-8.4-13-17.81-23.54-21.71-4.2,16.72,1.65,41.72,17.56,33.34a15.21,15.21,0,0,0,3-2.07L316,316.51c-2-8.4-13-17.81-23.54-21.71-4.2,16.72,1.65,41.72,17.56,33.33a14.77,14.77,0,0,0,3-2.06L307,345.68c-2-8.4-13-17.81-23.54-21.71-4.2,16.72,1.64,41.72,17.56,33.33a15.1,15.1,0,0,0,3-2.06l-6.07,19.6c-2-8.4-13-17.8-23.54-21.71-4.21,16.73,1.64,41.72,17.56,33.34a15.1,15.1,0,0,0,3-2.06l-6,19.23a1.5,1.5,0,0,0,2.87.89Z" style="fill: rgb(19, 64, 105); transform-origin: 327.369px 293.829px;" id="elqxysznzckab" class="animable"></path><g id="elf4hwp7nm13b"><path d="M301.76,372.57a15.26,15.26,0,0,0,1.32,3.41c8.39,15.91,27.35-1.39,33.34-17.56-10.89-2.74-25.29-1.21-31.69,4.59l6.08-19.61a15.08,15.08,0,0,0,1.32,3.41c8.38,15.92,27.34-1.39,33.33-17.56-10.89-2.74-25.29-1.2-31.69,4.59l6.08-19.6a15,15,0,0,0,1.32,3.4c8.38,15.92,27.34-1.39,33.34-17.56-10.9-2.73-25.3-1.2-31.7,4.59l6.08-19.6a15.26,15.26,0,0,0,1.32,3.41c8.38,15.91,27.34-1.39,33.34-17.56-10.9-2.74-25.29-1.21-31.69,4.59l6.07-19.61a15.26,15.26,0,0,0,1.32,3.41c8.39,15.91,27.34-1.39,33.34-17.56-10.89-2.74-25.29-1.21-31.69,4.59L347,226.73a15.08,15.08,0,0,0,1.32,3.41c8.38,15.92,27.34-1.39,33.33-17.56-10.89-2.74-25.29-1.21-31.69,4.59l2.17-7c12.27-4,2.7-20.86-8.25-28.1-5.74,11.14-6.1,29.29,4.91,28.76L343.13,229c-2-8.4-13-17.81-23.54-21.72-4.2,16.73,1.64,41.72,17.56,33.34a15.1,15.1,0,0,0,3-2.06l-6.07,19.6c-2-8.4-13-17.8-23.54-21.71-4.21,16.73,1.64,41.72,17.56,33.34a15.53,15.53,0,0,0,3-2.06L325,287.34c-2-8.4-13-17.81-23.54-21.71-4.2,16.72,1.65,41.72,17.56,33.34a15.21,15.21,0,0,0,3-2.07L316,316.51c-2-8.4-13-17.81-23.54-21.71-4.2,16.72,1.65,41.72,17.56,33.33a14.77,14.77,0,0,0,3-2.06L307,345.68c-2-8.4-13-17.81-23.54-21.71-4.2,16.72,1.64,41.72,17.56,33.33a15.1,15.1,0,0,0,3-2.06l-6.07,19.6c-2-8.4-13-17.8-23.54-21.71-4.21,16.73,1.64,41.72,17.56,33.34a15.1,15.1,0,0,0,3-2.06l-6,19.23a1.5,1.5,0,0,0,2.87.89Z" style="fill: rgb(255, 255, 255); opacity: 0.7; transform-origin: 327.369px 293.829px;" class="animable"></path></g><path d="M242.63,401.82C212.19,381.6,117.94,313.07,84.37,219.3c.28,7.56,3,16.89,7.65,27.37a223.69,223.69,0,0,1-29.67-34.79c7.69,21.4,21.11,36.29,30.11,44.46a225.21,225.21,0,0,1-28.73-25.47c13.56,24.77,34.3,38.24,42.93,43.05l.08.13a269.91,269.91,0,0,1-50.63-33.4,135.94,135.94,0,0,0,36.67,36.63A202.38,202.38,0,0,1,66.85,260.4c12,17.16,28.08,30.09,41.58,38.9A399.08,399.08,0,0,1,57.21,268c26.45,36.42,74,54.88,89.21,60.05l0,0a476.75,476.75,0,0,1-85.3-36.81c16.83,18.18,38.57,31,58.33,39.87a355.84,355.84,0,0,1-42.78-18.29c21.91,22.55,55.38,38.35,79.72,47.66a262.9,262.9,0,0,1-52.91-21c15.77,19,38.3,29.75,58.19,35.82a324.06,324.06,0,0,1-46.68-15c20,19.7,47.92,28.87,70.16,33.12-16.47-2-36.78-5.52-56.44-11.87,37.18,31.89,104.44,28.37,104.44,28.37l7.67-.79A4,4,0,0,0,242.63,401.82Z" style="fill: rgb(19, 64, 105); transform-origin: 150.262px 310.958px;" id="elbcfapk6bmpc" class="animable"></path><path d="M288.55,363.13c-4.08-8.7-8.64-17.81-13.64-27.23L265,346.68l6.36-17.43q-6.9-12.71-14.81-26.05h0l-10.8,11.91,7.57-17.31c-5.76-9.53-11.64-18.85-17.59-27.86l-8.61,12.21,2.79-20.94q-8.17-12.06-16.38-23.26l-8.31,13.77,3.39-20.42c-7.18-9.58-14.3-18.55-21.23-26.8l-7.7,10,2.91-15.64c-8.35-9.65-16.38-18.16-23.88-25.28l-3.22,9.61-.2-12.78c-14.73-13.46-27.19-21.18-35.59-21.18-8.2,0-11.53,7.35-10.55,20.22L132.62,183l-22.76-7.41a169.55,169.55,0,0,0,7.33,27.87l28.25,14.84-24.87-5.46c3.87,10.22,8.66,21.39,14.32,33.3l28.25,12.48-24.54-4.8c4.74,9.62,10,19.67,15.77,30l29.74,9.9-24.41-.47q2.91,5.07,6,10.22,3.56,6,7.2,11.9L202,325.2l-25.16-3.49q6.86,10.94,13.85,21.35l30,11.06-24.6-3.1c6.49,9.42,13,18.44,19.45,27l29.13,7.06-24.49-1q7.32,9.45,14.46,18c4.08,4.87,10.12,8,15.49,8H294c7.59,0,11.43-6.14,8.61-13.74-3.24-8.73-7.17-18.18-11.75-28.2l-12.18,9Z" style="fill: rgb(19, 64, 105); transform-origin: 206.259px 279.655px;" id="elhud9f7omld8" class="animable"></path><g id="elx7yeiig8dn"><path d="M288.55,363.13c-4.08-8.7-8.64-17.81-13.64-27.23L265,346.68l6.36-17.43q-6.9-12.71-14.81-26.05h0l-10.8,11.91,7.57-17.31c-5.76-9.53-11.64-18.85-17.59-27.86l-8.61,12.21,2.79-20.94q-8.17-12.06-16.38-23.26l-8.31,13.77,3.39-20.42c-7.18-9.58-14.3-18.55-21.23-26.8l-7.7,10,2.91-15.64c-8.35-9.65-16.38-18.16-23.88-25.28l-3.22,9.61-.2-12.78c-14.73-13.46-27.19-21.18-35.59-21.18-8.2,0-11.53,7.35-10.55,20.22L132.62,183l-22.76-7.41a169.55,169.55,0,0,0,7.33,27.87l28.25,14.84-24.87-5.46c3.87,10.22,8.66,21.39,14.32,33.3l28.25,12.48-24.54-4.8c4.74,9.62,10,19.67,15.77,30l29.74,9.9-24.41-.47q2.91,5.07,6,10.22,3.56,6,7.2,11.9L202,325.2l-25.16-3.49q6.86,10.94,13.85,21.35l30,11.06-24.6-3.1c6.49,9.42,13,18.44,19.45,27l29.13,7.06-24.49-1q7.32,9.45,14.46,18c4.08,4.87,10.12,8,15.49,8H294c7.59,0,11.43-6.14,8.61-13.74-3.24-8.73-7.17-18.18-11.75-28.2l-12.18,9Z" style="fill: rgb(255, 255, 255); opacity: 0.4; transform-origin: 206.259px 279.655px;" class="animable"></path></g></g><g id="freepik--Character--inject-25" class="animable" style="transform-origin: 247.454px 262.947px;"><path d="M285.76,171.76c1.61,5.45,3.16,11,4.66,16.45s3,11,4.54,16.34l.57,1.88s-.11-.07-.09,0a3.2,3.2,0,0,0,1.38,1,24.47,24.47,0,0,0,6.77,1.71,79.92,79.92,0,0,0,8.05.6c1.37,0,2.76.08,4.15.08l4.14-.05L321,216a70.57,70.57,0,0,1-17.93,2.86,30.66,30.66,0,0,1-10.1-1.3,14.18,14.18,0,0,1-5.84-3.5,11.1,11.1,0,0,1-2.35-3.62l-.85-2.17c-2.1-5.54-3.9-11-5.64-16.52s-3.33-11-4.79-16.63Z" style="fill: rgb(206, 122, 99); transform-origin: 297.25px 195.322px;" id="elufr9cvoulx" class="animable"></path><path d="M270.72,168.91c-3.7,7.46,8.14,32,8.14,32l15.2-6s-.6-11.68-4.28-21.8C285.9,162.39,274.83,160.62,270.72,168.91Z" style="fill: rgb(38, 50, 56); transform-origin: 282.032px 182.308px;" id="el45dmzf7srhq" class="animable"></path><g id="elhsmj614cz3i"><path d="M270.34,169.86c3.59-1.19,7.22.61,10.26,7.46s4.83,17.9,4.73,21l-6.47,2.56S267.79,178.17,270.34,169.86Z" style="opacity: 0.2; transform-origin: 277.646px 185.2px;" class="animable"></path></g><path d="M318.05,210.62l4.57-3.71a5.33,5.33,0,0,1,7.72,1.08h0a5.34,5.34,0,0,1-3.92,8.37,31.78,31.78,0,0,1-6.71-.25Z" style="fill: rgb(206, 122, 99); transform-origin: 324.673px 211.078px;" id="elg1xas6fzknk" class="animable"></path><path d="M281.7,164.25s7,27.33-8.56,74.76l-46.23-5.61c.49-6.36,7.43-34.14,7-64.37a11.21,11.21,0,0,1,11.57-11.37c1.2,0,2.41.1,3.62.19a171.55,171.55,0,0,1,19.65,2.38A87.39,87.39,0,0,1,281.7,164.25Z" style="fill: rgb(38, 50, 56); transform-origin: 255.09px 198.332px;" id="el3qwleub6yix" class="animable"></path><g id="elhwyze4b3ggw"><path d="M242.09,161.13a6.32,6.32,0,0,0-4.71-.41,11.09,11.09,0,0,0-3.52,8.31c.09,5.72-.09,11.36-.44,16.77a52.38,52.38,0,0,0,6.4-4.86C248.26,173.48,249.73,165.76,242.09,161.13Z" style="opacity: 0.2; transform-origin: 240.243px 173.122px;" class="animable"></path></g><path d="M253.68,136c.47,6.47.3,18.2-4.63,21.89,5.74,3.31,8.56,8.14,15.11,9.34,5.1.94,5.57-4.1,4.54-7-6.85-2.54-6-7.75-4.21-12.51Z" style="fill: rgb(206, 122, 99); transform-origin: 259.097px 151.673px;" id="elvz984nfpf0o" class="animable"></path><g id="elmocuqn9zer9"><path d="M258.09,140.75l6.4,7a20,20,0,0,0-1,3.42c-2.65-.72-6-4.12-5.93-7A9.61,9.61,0,0,1,258.09,140.75Z" style="opacity: 0.2; transform-origin: 261.023px 145.96px;" class="animable"></path></g><path d="M254.08,126.35c-.51,8.62-1.25,13.65,2.54,18.57,5.7,7.4,16.75,4.76,19.83-3.54,2.77-7.47,3.15-20.32-4.82-24.74A11.79,11.79,0,0,0,254.08,126.35Z" style="fill: rgb(206, 122, 99); transform-origin: 265.953px 132.196px;" id="el52ycwqjhnno" class="animable"></path><path d="M253.71,133.81s4.28-1.37,3.8-7.33c1.26-3.32,15.92-5.59,15.92-5.59s1,.88,3.14-1.12c4.81-4.45-3.2-9.64-10.92-10.11a16.58,16.58,0,0,0,1.22,2s-10.42-1.68-16.64,1.72a6.55,6.55,0,0,0,2.19.39,44.59,44.59,0,0,0-8,6.39c5.2,2.94,7,3.41,7,3.41l.09,5.94Z" style="fill: rgb(38, 50, 56); transform-origin: 261.223px 121.735px;" id="el9mcm0r3o0kp" class="animable"></path><path d="M250.84,123.86a9.51,9.51,0,0,0,.42,5.71,1.21,1.21,0,0,0,1.6.55c2.72-1.28,8.47-4.55,15.05-5.86a24.75,24.75,0,0,1,8.17-.31,1.22,1.22,0,0,0,1.32-1.55,12.47,12.47,0,0,0-1.92-4,1.37,1.37,0,0,0-.93-.52c-6.85-.78-11.91-.2-23,5.05A1.38,1.38,0,0,0,250.84,123.86Z" style="fill: rgb(19, 64, 105); transform-origin: 264.016px 123.917px;" id="elh5o4hiil3vb" class="animable"></path><path d="M249.07,135.32a8.22,8.22,0,0,0,4.65,4.21c2.71,1,4.26-1.43,3.66-4.09-.54-2.4-2.61-5.78-5.41-5.58S248,132.9,249.07,135.32Z" style="fill: rgb(206, 122, 99); transform-origin: 253.093px 134.806px;" id="el2tn27cjotqp" class="animable"></path><path d="M255.1,239s-18.64,60.58-29.68,84.75c-11.48,25.13-49.5,80.13-49.5,80.13l-6.83-4.47s26-55.55,36.67-80.48c4.45-15.6,23.59-84.11,23.59-84.11Z" style="fill: rgb(206, 122, 99); transform-origin: 212.095px 319.35px;" id="elnsm3w50ei6k" class="animable"></path><path d="M178.83,400.89l-8.09-5.49a.78.78,0,0,0-1,.08L164,400.92a1.29,1.29,0,0,0,.19,2c2.86,1.87,3.78,2.77,7.34,5.18,2.19,1.48,9,7.88,12.66,8.12s4-2.65,1.78-3.43c-6.48-2.27-5.59-7.86-6.29-10.66A2.08,2.08,0,0,0,178.83,400.89Z" style="fill: rgb(38, 50, 56); transform-origin: 175.484px 405.745px;" id="elpfmolyyy9p" class="animable"></path><path d="M182.89,403.86a1.26,1.26,0,0,0,.11-.17.69.69,0,0,0,0-.72c-.52-.94-3.6-1.1-4.22-1.12a.24.24,0,0,0-.19.4c.77.85,2.23,2.25,3.38,2.13A1.24,1.24,0,0,0,182.89,403.86Zm-3.48-1.49c1.34.1,3,.39,3.19.84,0,.05.05.11,0,.24a.85.85,0,0,1-.63.44C181.36,404,180.43,403.39,179.41,402.37Z" style="fill: rgb(255, 255, 255); transform-origin: 180.815px 403.118px;" id="el0iw1mw7gk3u8" class="animable"></path><path d="M182.64,401.08a1.74,1.74,0,0,0,.11-.18.71.71,0,0,0-.26-.86,1.15,1.15,0,0,0-.9-.28c-1.32.12-2.91,2.09-3,2.18a.24.24,0,0,0,.17.39C179.74,402.43,182,401.9,182.64,401.08Zm-3.3.76a4.84,4.84,0,0,1,2.29-1.59.68.68,0,0,1,.54.16c.19.16.14.25.13.3C182.09,401.2,180.44,401.75,179.34,401.84Z" style="fill: rgb(255, 255, 255); transform-origin: 180.67px 401.047px;" id="el5pzstzcypdk" class="animable"></path><path d="M272.84,243.38s25.23,32.52,34.23,57.17c4.37,12-31.81,64.09-31.81,64.09l-4.5-6.63c-1.25.57,10.5-36.05,19.31-50.09-15.8-22.95-41-50-41-50Z" style="fill: rgb(206, 122, 99); transform-origin: 278.253px 304.01px;" id="el2nhtopq0qls" class="animable"></path><path d="M277.12,362.47,270.8,355a.76.76,0,0,0-.94-.18l-7,3.69a1.29,1.29,0,0,0-.36,2c2.25,2.56,3.48,3.7,6.26,7,1.71,2,7.51,9.29,9.87,12.07s5.43.82,4.71-.53c-3.21-6.07-5.79-12.24-5.7-15.12A2.15,2.15,0,0,0,277.12,362.47Z" style="fill: rgb(38, 50, 56); transform-origin: 272.81px 367.86px;" id="elo0kff8a66lf" class="animable"></path><path d="M280.22,366.43a1.07,1.07,0,0,0,.16-.14.68.68,0,0,0,.22-.68c-.24-1.05-3.17-2-3.76-2.22a.26.26,0,0,0-.26.07.26.26,0,0,0,0,.27c.51,1,1.55,2.76,2.69,2.95A1.22,1.22,0,0,0,280.22,366.43Zm-2.94-2.38c1.26.47,2.73,1.18,2.85,1.67,0,0,0,.12-.09.22a.82.82,0,0,1-.72.26C278.73,366.1,278,365.31,277.28,364.05Z" style="fill: rgb(255, 255, 255); transform-origin: 278.581px 365.037px;" id="el115zvkfz2ul" class="animable"></path><path d="M280.73,363.63a1,1,0,0,0,.15-.14.71.71,0,0,0,0-.9,1.18,1.18,0,0,0-.79-.52c-1.3-.23-3.37,1.24-3.46,1.3a.26.26,0,0,0-.1.23.25.25,0,0,0,.16.2C277.58,364.15,279.92,364.25,280.73,363.63Zm-3.38-.15a4.74,4.74,0,0,1,2.64-.92.7.7,0,0,1,.47.3c.13.2.07.28,0,.32C280.17,363.6,278.43,363.69,277.35,363.48Z" style="fill: rgb(255, 255, 255); transform-origin: 278.785px 363.062px;" id="el8zbpj0ah6cj" class="animable"></path><path d="M273.14,239s12.92,18.22,20.16,34.29c-5,1.9-15.5,10.52-17.67,15.41-17-16.94-34-35.1-34-35.1l12.82-16.87Z" style="fill: rgb(38, 50, 56); transform-origin: 267.465px 262.715px;" id="elohkxy87r6" class="animable"></path><g id="el4c03y1xu7s2"><path d="M251.32,252.18l-1.1,10.51c3.43,3.59,7.66,8,12.26,12.72C259,263,251.32,252.18,251.32,252.18Z" style="opacity: 0.2; transform-origin: 256.35px 263.795px;" class="animable"></path></g><path d="M263.16,237.8s-20.86,43.09-24.68,51.94c-4-1.82-17.78-6.77-22.55-6.6.06-5.18,11-49.74,11-49.74Z" style="fill: rgb(38, 50, 56); transform-origin: 239.545px 261.57px;" id="elq6all4qfdc" class="animable"></path><path d="M266.78,130.32c-.08.7.22,1.31.67,1.36s.9-.46,1-1.16-.22-1.31-.67-1.36S266.86,129.62,266.78,130.32Z" style="fill: rgb(38, 50, 56); transform-origin: 267.618px 130.42px;" id="eluxpctyy7k2" class="animable"></path><path d="M274.66,131.28c-.09.69.22,1.3.67,1.36s.9-.47,1-1.16-.22-1.31-.67-1.37S274.74,130.58,274.66,131.28Z" style="fill: rgb(38, 50, 56); transform-origin: 275.496px 131.375px;" id="elwlz2c3hryw" class="animable"></path><path d="M272.11,131.32a25.14,25.14,0,0,0,2.61,6.36c-1.37,1-3.41.23-3.41.23Z" style="fill: rgb(186, 77, 60); transform-origin: 273.015px 134.757px;" id="el4fo4f70kdyh" class="animable"></path><path d="M269.07,139.59a.21.21,0,0,0,.21-.19.22.22,0,0,0-.18-.23,5.56,5.56,0,0,1-4.24-2.7.22.22,0,0,0-.28-.1.21.21,0,0,0-.09.28,5.87,5.87,0,0,0,4.56,2.93Z" style="fill: rgb(38, 50, 56); transform-origin: 266.874px 137.971px;" id="ellvsufgp43g" class="animable"></path><path d="M264.76,127.49a.42.42,0,0,0,.3-.12,3.28,3.28,0,0,1,2.79-1.05.42.42,0,0,0,.48-.33.41.41,0,0,0-.32-.48,4.06,4.06,0,0,0-3.54,1.28.41.41,0,0,0,0,.59A.43.43,0,0,0,264.76,127.49Z" style="fill: rgb(38, 50, 56); transform-origin: 266.341px 126.482px;" id="el7l8bq8oklz2" class="animable"></path><path d="M278.49,129l.13,0a.42.42,0,0,0,.26-.53,4.12,4.12,0,0,0-2.66-2.66.41.41,0,0,0-.5.3.4.4,0,0,0,.29.5,3.26,3.26,0,0,1,2.09,2.13A.42.42,0,0,0,278.49,129Z" style="fill: rgb(38, 50, 56); transform-origin: 277.303px 127.399px;" id="el47pavzou9l1" class="animable"></path><path d="M241.63,170.85c-5.25,1.84-10.65,3.77-15.87,5.77-2.62,1-5.2,2-7.71,3.12a63.59,63.59,0,0,0-7,3.45c-.25.15-.5.29-.7.44a6.86,6.86,0,0,0-.6.41l-.24.17a.17.17,0,0,0-.07,0,1.14,1.14,0,0,0-.22.2,7.74,7.74,0,0,0-1.24,2.26A35.6,35.6,0,0,0,206.3,194c-.4,2.65-.64,5.4-.83,8.19-.08,1.39-.19,2.79-.25,4.2l-.14,4.19-6.25.78a79.4,79.4,0,0,1-2.27-18,39.71,39.71,0,0,1,1.06-9.79,18.22,18.22,0,0,1,2.36-5.59,14.36,14.36,0,0,1,1.14-1.48c.2-.24.46-.49.7-.73l.58-.52c.38-.35.75-.64,1.11-.93s.72-.54,1.08-.8a61.52,61.52,0,0,1,8.25-4.82c2.72-1.38,5.45-2.59,8.19-3.76,5.49-2.31,10.95-4.33,16.66-6.14Z" style="fill: rgb(206, 122, 99); transform-origin: 219.092px 185.08px;" id="el1mhniw48grq" class="animable"></path><path d="M205.08,207.77l1.12,7.77a5.33,5.33,0,0,1-5,6h0a5.33,5.33,0,0,1-5.06-7.73,26.11,26.11,0,0,1,3.32-5.17Z" style="fill: rgb(206, 122, 99); transform-origin: 200.904px 214.659px;" id="elyjvrso69cjd" class="animable"></path><path d="M251.32,159.87c-5.22-6.8-30.86,3.83-30.86,3.83l5.16,17A46.89,46.89,0,0,0,242,177.5C252.6,173.6,256.77,167,251.32,159.87Z" style="fill: rgb(38, 50, 56); transform-origin: 237.087px 169.149px;" id="el7jkzc7utbds" class="animable"></path><path d="M226.4,230.19l-.71,3.71a1,1,0,0,0,.74,1.14c3.3.76,15.07,3.34,28.35,5,11.94,1.49,17.46,1.26,19.41,1.07a1,1,0,0,0,.88-1V236.7a1,1,0,0,0-.94-1c-3.75-.13-18.8-1-46.57-6.31A1,1,0,0,0,226.4,230.19Z" style="fill: rgb(19, 64, 105); transform-origin: 250.373px 235.311px;" id="elrzbxumj2rk" class="animable"></path></g><defs>     <filter id="active" height="200%">         <feMorphology in="SourceAlpha" result="DILATED" operator="dilate" radius="2"></feMorphology>                <feFlood flood-color="#32DFEC" flood-opacity="1" result="PINK"></feFlood>        <feComposite in="PINK" in2="DILATED" operator="in" result="OUTLINE"></feComposite>        <feMerge>            <feMergeNode in="OUTLINE"></feMergeNode>            <feMergeNode in="SourceGraphic"></feMergeNode>        </feMerge>    </filter>    <filter id="hover" height="200%">        <feMorphology in="SourceAlpha" result="DILATED" operator="dilate" radius="2"></feMorphology>                <feFlood flood-color="#ff0000" flood-opacity="0.5" result="PINK"></feFlood>        <feComposite in="PINK" in2="DILATED" operator="in" result="OUTLINE"></feComposite>        <feMerge>            <feMergeNode in="OUTLINE"></feMergeNode>            <feMergeNode in="SourceGraphic"></feMergeNode>        </feMerge>            <feColorMatrix type="matrix" values="0   0   0   0   0                0   1   0   0   0                0   0   0   0   0                0   0   0   1   0 "></feColorMatrix>    </filter></defs></svg>