<svg class="animated" id="freepik_stories-setup" xmlns="http://www.w3.org/2000/svg" viewBox="0 0 500 500" version="1.1" xmlns:xlink="http://www.w3.org/1999/xlink" xmlns:svgjs="http://svgjs.com/svgjs"><style>svg#freepik_stories-setup:not(.animated) .animable {opacity: 0;}svg#freepik_stories-setup.animated #freepik--background-simple--inject-569 {animation: 6s Infinite  linear heartbeat;animation-delay: 0s;}svg#freepik_stories-setup.animated #freepik--Window--inject-569 {animation: 6s Infinite  linear floating;animation-delay: 0s;}svg#freepik_stories-setup.animated #freepik--Character--inject-569 {animation: 6s Infinite  linear wind;animation-delay: 0s;}svg#freepik_stories-setup.animated #freepik--character--inject-569 {animation: 6s Infinite  linear wind;animation-delay: 0s;}            @keyframes heartbeat {                0% {                    transform: scale(1);                }                10% {                    transform: scale(1.1);                }                30% {                    transform: scale(1);                }                40% {                    transform: scale(1);                }                50% {                    transform: scale(1.1);                }                60% {                    transform: scale(1);                }                100% {                    transform: scale(1);                }            }                    @keyframes floating {                0% {                    opacity: 1;                    transform: translateY(0px);                }                50% {                    transform: translateY(-10px);                }                100% {                    opacity: 1;                    transform: translateY(0px);                }            }                    @keyframes wind {                0% {                    transform: rotate( 0deg );                }                25% {                    transform: rotate( 1deg );                }                75% {                    transform: rotate( -1deg );                }            }        </style><g id="freepik--background-simple--inject-569" class="animable" style="transform-origin: 239.206px 163.12px;"><path d="M119.7,117.94c-51,26.76-110.49,12.37-94.41,94,11.76,59.77,58.45,71.76,110.17,75.24,54.27,3.66,86-4.2,126.71-35.89,50.35-39.18,101.8-12.16,153.49-41,41.57-23.2,55.19-92.65,20-129.64C382,24.41,357.3,97.25,312.49,108.05,268.24,118.71,259.86,61,205,43,132.87,19.26,172,90.47,119.7,117.94Z" style="fill: #134069; transform-origin: 239.206px 163.12px;" id="elr9i13xv0nrp" class="animable"></path><g id="el55mjkasr1zh"><path d="M119.7,117.94c-51,26.76-110.49,12.37-94.41,94,11.76,59.77,58.45,71.76,110.17,75.24,54.27,3.66,86-4.2,126.71-35.89,50.35-39.18,101.8-12.16,153.49-41,41.57-23.2,55.19-92.65,20-129.64C382,24.41,357.3,97.25,312.49,108.05,268.24,118.71,259.86,61,205,43,132.87,19.26,172,90.47,119.7,117.94Z" style="fill: rgb(255, 255, 255); opacity: 0.9; transform-origin: 239.206px 163.12px;" class="animable" id="elek5f1sru91j"></path></g></g><g id="freepik--Shadow--inject-569" class="animable" style="transform-origin: 250px 416.24px;"><ellipse cx="250" cy="416.24" rx="193.89" ry="11.32" style="fill: rgb(245, 245, 245); transform-origin: 250px 416.24px;" id="el8vlq56tws66" class="animable"></ellipse></g><g id="freepik--Window--inject-569" class="animable" style="transform-origin: 250px 226.13px;"><path d="M429.39,96.79H70.62A9.65,9.65,0,0,0,61,106.4V345.86a9.64,9.64,0,0,0,9.62,9.61H429.39a9.64,9.64,0,0,0,9.61-9.61V106.4A9.65,9.65,0,0,0,429.39,96.79Z" style="fill: #134069; transform-origin: 250px 226.13px;" id="elokxk2levs" class="animable"></path><g id="elf0wo9840cve"><path d="M429.39,96.79H70.62A9.65,9.65,0,0,0,61,106.4V345.86a9.64,9.64,0,0,0,9.62,9.61H429.39a9.64,9.64,0,0,0,9.61-9.61V106.4A9.65,9.65,0,0,0,429.39,96.79Z" style="fill: rgb(255, 255, 255); opacity: 0.3; transform-origin: 250px 226.13px;" class="animable" id="elb7kt23w52dt"></path></g><path d="M132.44,112.83H81.66a3.5,3.5,0,0,1,0-7h50.78a3.5,3.5,0,0,1,0,7Zm-50.78-6a2.5,2.5,0,0,0,0,5h50.78a2.5,2.5,0,0,0,0-5Z" style="fill: rgb(250, 250, 250); transform-origin: 107.05px 109.33px;" id="elqviy5nap7yj" class="animable"></path><path d="M148.92,112.83h-3.39a3.5,3.5,0,0,1,0-7h3.39a3.5,3.5,0,0,1,0,7Zm-3.39-6a2.5,2.5,0,0,0,0,5h3.39a2.5,2.5,0,0,0,0-5Z" style="fill: rgb(250, 250, 250); transform-origin: 147.225px 109.33px;" id="el8rhzrbs6f24" class="animable"></path><path d="M163.09,112.83H159.7a3.5,3.5,0,0,1,0-7h3.39a3.5,3.5,0,0,1,0,7Zm-3.39-6a2.5,2.5,0,0,0,0,5h3.39a2.5,2.5,0,0,0,0-5Z" style="fill: rgb(250, 250, 250); transform-origin: 161.395px 109.33px;" id="els1tcxifwzsc" class="animable"></path><path d="M61,121.65V345.86a9.64,9.64,0,0,0,9.62,9.61H429.39a9.64,9.64,0,0,0,9.61-9.61V121.65Z" style="fill: #134069; transform-origin: 250px 238.56px;" id="elg6eyfvpndp6" class="animable"></path><g id="ela8vie57qo2l"><path d="M61,121.65V345.86a9.64,9.64,0,0,0,9.62,9.61H429.39a9.64,9.64,0,0,0,9.61-9.61V121.65Z" style="fill: rgb(255, 255, 255); opacity: 0.6; transform-origin: 250px 238.56px;" class="animable" id="elf54eh1p9id6"></path></g><path d="M62.78,121.65V337.23a5.45,5.45,0,0,0,5.45,5.46H431.77a5.45,5.45,0,0,0,5.45-5.46V121.65Z" style="fill: rgb(250, 250, 250); transform-origin: 250px 232.17px;" id="ell7sy0bxm81l" class="animable"></path><path d="M80,134.34v40H337v-40Z" style="fill: #134069; transform-origin: 208.5px 154.34px;" id="elldnjh9ojdqm" class="animable"></path><g id="elwy0rmb1sl1"><path d="M80,134.34v40H337v-40Z" style="fill: rgb(255, 255, 255); opacity: 0.9; transform-origin: 208.5px 154.34px;" class="animable" id="elnitlbqzie2g"></path></g><path d="M336,185.94v106.2H81V185.94H336m1-1H80v108.2H337V184.94Z" style="fill: #134069; transform-origin: 208.5px 239.04px;" id="el692xa4h41mk" class="animable"></path><g id="elzoecadcaqp"><path d="M336,185.94v106.2H81V185.94H336m1-1H80v108.2H337V184.94Z" style="fill: rgb(255, 255, 255); opacity: 0.9; transform-origin: 208.5px 239.04px;" class="animable" id="el9jsoukxz8ch"></path></g></g><g id="freepik--Character--inject-569" class="animable" style="transform-origin: 331.23px 287.945px;"><polygon points="365.82 406.94 358.28 406.94 356.27 389.47 363.82 389.47 365.82 406.94" style="fill: rgb(255, 139, 123); transform-origin: 361.045px 398.205px;" id="eleuqueahncjk" class="animable"></polygon><polygon points="411.58 406.94 404.04 406.94 398.16 389.47 405.7 389.47 411.58 406.94" style="fill: rgb(255, 139, 123); transform-origin: 404.87px 398.205px;" id="el7y7rpd7zvhb" class="animable"></polygon><path d="M403,406.06h9.2a.66.66,0,0,1,.64.52l1.49,6.7a1.11,1.11,0,0,1-1.1,1.35c-3-.05-5.12-.23-8.85-.23-2.29,0-7,.24-10.18.24s-3.58-3.13-2.29-3.41c5.82-1.28,8-3,9.87-4.7A1.82,1.82,0,0,1,403,406.06Z" style="fill: rgb(38, 50, 56); transform-origin: 402.79px 410.35px;" id="elo4nyqyzhiz" class="animable"></path><path d="M358.33,406.06h8.24a.67.67,0,0,1,.65.52l1.49,6.7a1.11,1.11,0,0,1-1.09,1.35c-3-.05-7.27-.23-11-.23-4.37,0-8.14.24-13.26.24-3.1,0-4-3.13-2.66-3.41,5.9-1.3,10.72-1.43,15.82-4.58A3.48,3.48,0,0,1,358.33,406.06Z" style="fill: rgb(38, 50, 56); transform-origin: 354.417px 410.35px;" id="el4mtc6fmd58q" class="animable"></path><path d="M370.15,219.75c-.75,5.84-1.57,11.71-2.44,17.55l-2.61,17.76a15.26,15.26,0,0,1-2.54,6,19.31,19.31,0,0,1-4.12,4.23,31.9,31.9,0,0,1-9.18,4.64,55.55,55.55,0,0,1-9.27,2.18c-1.55.24-3.09.4-4.64.53s-3.05.21-4.7.21l-.51-5.64c2.69-.62,5.54-1.34,8.21-2.23a60.94,60.94,0,0,0,7.74-3,25.52,25.52,0,0,0,6.29-4.05,9.73,9.73,0,0,0,1.87-2.31,5.62,5.62,0,0,0,.69-2.19l.29-4.21c.1-1.5.24-3,.37-4.48q.39-4.47.89-8.92c.65-5.93,1.42-11.82,2.34-17.73Z" style="fill: rgb(255, 139, 123); transform-origin: 350.145px 245.47px;" id="el7ckh2rqxod" class="animable"></path><path d="M372.64,216c2.54,6.75-3.55,29.38-3.55,29.38L352.33,237s.79-11.28,4.62-20S369.85,208.56,372.64,216Z" style="fill: #134069; transform-origin: 362.795px 227.908px;" id="elbu92wydqawh" class="animable"></path><g id="elejkxc7krnv"><path d="M372.64,216c2.54,6.75-3.55,29.38-3.55,29.38L352.33,237s.79-11.28,4.62-20S369.85,208.56,372.64,216Z" style="opacity: 0.3; transform-origin: 362.795px 227.908px;" class="animable" id="el96xt9tqn63j"></path></g><path d="M334.15,266.52l-8.23.55,3.85,8.83a7.24,7.24,0,0,0,6.77-5.29Z" style="fill: rgb(255, 139, 123); transform-origin: 331.23px 271.21px;" id="ell6p2l1s51gb" class="animable"></path><polygon points="318.49 270.54 323.06 276.72 329.76 275.9 325.92 267.07 318.49 270.54" style="fill: rgb(255, 139, 123); transform-origin: 324.125px 271.895px;" id="el0cu8k3vm2drv" class="animable"></polygon><polygon points="356.28 389.47 357.44 399.61 364.94 399.16 363.82 389.47 356.28 389.47" style="fill: rgb(234, 112, 99); transform-origin: 360.61px 394.54px;" id="el1goij1hbss9" class="animable"></polygon><polygon points="405.71 389.47 398.16 389.47 402.1 401.17 409.12 399.6 405.71 389.47" style="fill: rgb(234, 112, 99); transform-origin: 403.64px 395.32px;" id="el52ymvj58s9v" class="animable"></polygon><path d="M363.68,210.8s-8.9,22.78-.45,65.21h40.35c.28-6.2-3.61-36.41,2.36-65.6a104.05,104.05,0,0,0-13.5-1.7,146.52,146.52,0,0,0-17.16,0A75.3,75.3,0,0,0,363.68,210.8Z" style="fill: #134069; transform-origin: 382.764px 242.234px;" id="el61fc7z5cn4r" class="animable"></path><g id="elex57u710isb"><path d="M363.68,210.8s-8.9,22.78-.45,65.21h40.35c.28-6.2-3.61-36.41,2.36-65.6a104.05,104.05,0,0,0-13.5-1.7,146.52,146.52,0,0,0-17.16,0A75.3,75.3,0,0,0,363.68,210.8Z" style="opacity: 0.3; transform-origin: 382.764px 242.234px;" class="animable" id="eluws8cw8a7k"></path></g><path d="M378.42,232.12c-.54,5.06-3.32,8.92-6.22,8.61s-4.81-4.66-4.28-9.73,3.33-8.92,6.22-8.62S379,227.05,378.42,232.12Z" style="fill: #134069; transform-origin: 373.177px 231.556px;" id="elmmflgdxfsk" class="animable"></path><g id="elwb591g5e0j"><path d="M378.42,232.12c-.54,5.06-3.32,8.92-6.22,8.61s-4.81-4.66-4.28-9.73,3.33-8.92,6.22-8.62S379,227.05,378.42,232.12Z" style="fill: rgb(255, 255, 255); opacity: 0.1; transform-origin: 373.177px 231.556px;" class="animable" id="elz7k6az0e94f"></path></g><path d="M397.72,224.36c1.32-6.66,3.88-5.51,6.32-2.23a210.05,210.05,0,0,0-1.44,26.61C400.94,245.92,395.52,235.52,397.72,224.36Z" style="fill: #134069; transform-origin: 400.621px 234.123px;" id="el2ntjqdduvlq" class="animable"></path><g id="elfpwyikl6r0c"><path d="M397.72,224.36c1.32-6.66,3.88-5.51,6.32-2.23a210.05,210.05,0,0,0-1.44,26.61C400.94,245.92,395.52,235.52,397.72,224.36Z" style="opacity: 0.4; transform-origin: 400.621px 234.123px;" class="animable" id="elnzxx5o6ayba"></path></g><path d="M390.74,189.39c-1.08,5.52-2.16,15.63,1.7,19.32,0,0-1.51,5.59-11.77,5.59-11.27,0-5.39-5.59-5.39-5.59,6.16-1.47,6-6,4.93-10.33Z" style="fill: rgb(255, 139, 123); transform-origin: 383.093px 201.845px;" id="elmlv35gh58lh" class="animable"></path><path d="M386.44,193.06l-6.23,5.32a17.15,17.15,0,0,1,.53,3c2.35-.34,5.58-2.92,5.83-5.38A7.91,7.91,0,0,0,386.44,193.06Z" style="fill: rgb(234, 112, 99); transform-origin: 383.43px 197.22px;" id="eleoqb6widnvo" class="animable"></path><path d="M375,168.73c-4.15,3.23-4.12,16.12,2.17,16.39S382.89,162.63,375,168.73Z" style="fill: rgb(38, 50, 56); transform-origin: 376.789px 176.407px;" id="elrtmvxh52x5" class="animable"></path><path d="M392.34,182.87c-2.19,7.16-3.11,11.46-7.68,14.31-6.86,4.29-15-1.19-15-8.86,0-6.91,3.59-17.45,11.4-18.64A10.21,10.21,0,0,1,392.34,182.87Z" style="fill: rgb(255, 139, 123); transform-origin: 381.241px 184.123px;" id="elw7d2bw9fip" class="animable"></path><path d="M390.12,189.87c-4.21.66-6.51-21,3.53-16.21C407.92,180.49,396.94,188.81,390.12,189.87Z" style="fill: rgb(38, 50, 56); transform-origin: 393.574px 181.426px;" id="elr4czqzc9fzt" class="animable"></path><path d="M390.52,175.65c-5.19-.45-12.7-.23-14.33-6.64-2.27-8.94,8.42-10.26,11.06-3.42,6.36-2.09,23.88,8.83,12.21,14.37Z" style="fill: rgb(38, 50, 56); transform-origin: 389.626px 170.605px;" id="elfdh5hlnbn4e" class="animable"></path><path d="M393.7,191.67a7.14,7.14,0,0,1-5.05,2c-2.49-.05-3-2.45-1.74-4.43,1.17-1.79,3.87-3.91,6.08-2.9S395.33,190,393.7,191.67Z" style="fill: rgb(255, 139, 123); transform-origin: 390.524px 189.875px;" id="elw84q94sxuw" class="animable"></path><path d="M363.23,276s-29.42,40.77-28.59,63.77c.85,23.93,19.84,57,19.84,57l12.27-2.81s-12.21-28.81-11.64-52.31c.62-25.62,34.65-45.84,34.65-65.6Z" style="fill: rgb(38, 50, 56); transform-origin: 362.191px 336.385px;" id="elxypaydgpga" class="animable"></path><path d="M377.55,276s-15,42-10.29,63.61c5.14,23.65,31,58.6,31,58.6l12.35-3.4s-16.72-30.07-19.65-53.49c-3.19-25.41,12.66-46.42,12.66-65.32Z" style="fill: rgb(38, 50, 56); transform-origin: 388.477px 337.105px;" id="elqrallwgnqt" class="animable"></path><polygon points="396.38 399.93 414.14 396.63 413.25 391.86 393.34 395.23 396.38 399.93" style="fill: #134069; transform-origin: 403.74px 395.895px;" id="elsigdi2rpdlr" class="animable"></polygon><g id="el0sqypmauv11e"><polygon points="396.38 399.93 414.14 396.63 413.25 391.86 393.34 395.23 396.38 399.93" style="fill: rgb(255, 255, 255); opacity: 0.4; transform-origin: 403.74px 395.895px;" class="animable" id="el9mc6o2ykjtt"></polygon></g><polygon points="351.92 397.8 369.89 396.03 369.41 391.13 349.29 392.86 351.92 397.8" style="fill: #134069; transform-origin: 359.59px 394.465px;" id="elqr8yp32knqf" class="animable"></polygon><g id="elqfxnh589fy"><polygon points="351.92 397.8 369.89 396.03 369.41 391.13 349.29 392.86 351.92 397.8" style="fill: rgb(255, 255, 255); opacity: 0.4; transform-origin: 359.59px 394.465px;" class="animable" id="elq8zuzrq7sa"></polygon></g><path d="M380.83,182.26c-.14.59-.57,1-1,.9s-.59-.65-.44-1.24.57-1,.95-.9S381,181.67,380.83,182.26Z" style="fill: rgb(38, 50, 56); transform-origin: 380.108px 182.09px;" id="elbtm5eg8dafd" class="animable"></path><path d="M374.14,180.65c-.14.59-.57,1-1,.91s-.58-.65-.44-1.24.57-1,1-.91S374.28,180.06,374.14,180.65Z" style="fill: rgb(38, 50, 56); transform-origin: 373.42px 180.485px;" id="el1k31yhtrng1" class="animable"></path><path d="M376.19,181.46a21.62,21.62,0,0,1-4,4.38,3.51,3.51,0,0,0,2.7,1.21Z" style="fill: rgb(255, 86, 82); transform-origin: 374.19px 184.255px;" id="el56gdfy6dlbb" class="animable"></path><path d="M377.52,189.26a6,6,0,0,1-1.34-.16.19.19,0,0,1-.13-.22.18.18,0,0,1,.22-.13,4.8,4.8,0,0,0,4.26-.92.18.18,0,0,1,.25,0,.17.17,0,0,1,0,.25A5,5,0,0,1,377.52,189.26Z" style="fill: rgb(38, 50, 56); transform-origin: 378.44px 188.52px;" id="elwk13qw2dv6" class="animable"></path><path d="M383.44,180.59a.35.35,0,0,1-.32-.21,2.84,2.84,0,0,0-1.95-1.69.36.36,0,0,1,.12-.71,3.53,3.53,0,0,1,2.48,2.11.35.35,0,0,1-.18.47A.27.27,0,0,1,383.44,180.59Z" style="fill: rgb(38, 50, 56); transform-origin: 382.336px 179.283px;" id="eloayvur0ssyr" class="animable"></path><path d="M371.85,177.66a.34.34,0,0,1-.23-.08.35.35,0,0,1-.05-.5,3.55,3.55,0,0,1,3-1.36.36.36,0,0,1,.31.4.36.36,0,0,1-.39.31,2.88,2.88,0,0,0-2.34,1.1A.34.34,0,0,1,371.85,177.66Z" style="fill: rgb(38, 50, 56); transform-origin: 373.185px 176.688px;" id="elvziqxwtmcko" class="animable"></path><g id="elj6q9exun18d"><rect x="246.4" y="323.88" width="27.26" height="1" style="fill: #134069; transform-origin: 260.03px 324.38px; transform: rotate(-6.79deg);" class="animable" id="elwej05zgi5k7"></rect></g><g id="elvgm9is7p6s"><rect x="283.16" y="320.45" width="11.23" height="1" style="fill: #134069; transform-origin: 288.775px 320.95px; transform: rotate(-6.85deg);" class="animable" id="el7wz2fljdnzv"></rect></g><g id="elj9w21xcm8r"><rect x="210.34" y="269.99" width="241.78" height="42.73" style="fill: #134069; transform-origin: 331.23px 291.355px; transform: rotate(-6.8deg);" class="animable" id="eltsg1mv9h54o"></rect></g><g id="elx3mkdsft19l"><rect x="303.77" y="278.19" width="111.07" height="19.63" style="fill: #134069; transform-origin: 359.305px 288.005px; transform: rotate(-6.8deg);" class="animable" id="elveuqfxdboib"></rect></g><g id="el1ksqi7ko5wn"><rect x="303.77" y="278.19" width="111.07" height="19.63" style="fill: rgb(255, 255, 255); opacity: 0.2; transform-origin: 359.305px 288.005px; transform: rotate(-6.8deg);" class="animable" id="elz40p1lkkjfr"></rect></g><g id="elpcos6216bf"><circle cx="237.12" cy="302.57" r="12.44" style="fill: #134069; transform-origin: 237.12px 302.57px; transform: rotate(-38.68deg);" class="animable" id="elleru7kaox4"></circle></g><g id="eled97uvk9xza"><circle cx="237.12" cy="302.57" r="12.44" style="fill: rgb(255, 255, 255); opacity: 0.2; transform-origin: 237.12px 302.57px; transform: rotate(-38.68deg);" class="animable" id="elkntunzbkh2e"></circle></g><g id="elk59lm5wxgb8"><circle cx="272.3" cy="298.38" r="12.44" style="fill: #134069; transform-origin: 272.3px 298.38px; transform: rotate(-52.45deg);" class="animable" id="elt80opxlb8r"></circle></g><g id="elqxk03eznd4n"><circle cx="272.3" cy="298.38" r="12.44" style="fill: rgb(255, 255, 255); opacity: 0.2; transform-origin: 272.3px 298.38px; transform: rotate(-52.45deg);" class="animable" id="eldhn12pxa87a"></circle></g><path d="M408.82,216.28c.66,1.4,1.2,2.64,1.72,4s1,2.63,1.52,4c1,2.65,1.83,5.34,2.58,8.09a85.18,85.18,0,0,1,1.91,8.39l.36,2.15.26,2.19c.1.73.14,1.48.19,2.22l.08,1.12,0,.28,0,.46c0,.36,0,.67,0,1a15.52,15.52,0,0,1-1.68,5.63,34.12,34.12,0,0,1-2.4,4.07,66.18,66.18,0,0,1-5.41,6.78,108.38,108.38,0,0,1-12.2,11.48l-4-4c3.26-4.17,6.52-8.48,9.47-12.76a70.76,70.76,0,0,0,4-6.46,23.61,23.61,0,0,0,1.45-3.1,6.6,6.6,0,0,0,.5-2.15s0-.05,0,0,0,.06,0,0l0-.23-.14-.9c-.09-.61-.17-1.2-.31-1.82l-.36-1.82-.43-1.84c-.61-2.45-1.3-4.91-2.09-7.36s-1.65-4.9-2.56-7.34c-.45-1.22-.91-2.43-1.39-3.64L398.42,221Z" style="fill: rgb(255, 139, 123); transform-origin: 404.595px 247.21px;" id="elxybn9861cc8" class="animable"></path><path d="M407.52,210.91c6.73,2.59,11.56,27.21,11.56,27.21l-16,6.31s-5.37-12.37-7.18-21.52C394,213.28,399.88,208,407.52,210.91Z" style="fill: #134069; transform-origin: 407.31px 227.271px;" id="elf5eq9ov5dl" class="animable"></path><g id="ellioi6bqtevs"><path d="M407.52,210.91c6.73,2.59,11.56,27.21,11.56,27.21l-16,6.31s-5.37-12.37-7.18-21.52C394,213.28,399.88,208,407.52,210.91Z" style="opacity: 0.3; transform-origin: 407.31px 227.271px;" class="animable" id="elo19m8c0n2g9"></path></g><path d="M400.54,407.38a2.34,2.34,0,0,1-1.46-.38,1.1,1.1,0,0,1-.37-.95.55.55,0,0,1,.31-.5c.84-.43,3.27,1.06,3.54,1.24a.16.16,0,0,1,.08.18.17.17,0,0,1-.13.14A8.68,8.68,0,0,1,400.54,407.38Zm-1.12-1.56a.43.43,0,0,0-.24.05c-.05,0-.1.07-.11.21a.71.71,0,0,0,.24.64,3.61,3.61,0,0,0,2.68.14A7.3,7.3,0,0,0,399.42,405.82Z" style="fill: #134069; transform-origin: 400.674px 406.429px;" id="elg2ah7dhncv9" class="animable"></path><path d="M402.47,407.12a.16.16,0,0,1-.09,0c-.78-.42-2.29-2.07-2.13-2.91a.58.58,0,0,1,.57-.47,1,1,0,0,1,.76.23c.88.71,1.06,2.89,1.07,3a.21.21,0,0,1-.08.17A.19.19,0,0,1,402.47,407.12ZM401,404.06h-.09c-.23,0-.25.14-.26.18-.09.5.87,1.75,1.65,2.34a4.34,4.34,0,0,0-.89-2.37A.67.67,0,0,0,401,404.06Z" style="fill: #134069; transform-origin: 401.444px 405.437px;" id="el6lzxn41io3r" class="animable"></path><path d="M355.2,407.38a2.88,2.88,0,0,1-1.84-.46,1,1,0,0,1-.33-.87.58.58,0,0,1,.29-.48c.92-.51,3.95,1,4.3,1.21a.18.18,0,0,1,.09.18.17.17,0,0,1-.14.15A12.58,12.58,0,0,1,355.2,407.38Zm-1.37-1.56a.62.62,0,0,0-.33.07.22.22,0,0,0-.12.19.68.68,0,0,0,.22.57c.46.41,1.71.49,3.37.21A9.72,9.72,0,0,0,353.83,405.82Z" style="fill: #134069; transform-origin: 355.367px 406.429px;" id="el3zoyahmrtfb" class="animable"></path><path d="M357.53,407.12l-.07,0c-.91-.41-2.71-2-2.58-2.89,0-.2.18-.45.67-.5a1.28,1.28,0,0,1,1,.3c1,.79,1.16,2.82,1.17,2.91a.16.16,0,0,1-.07.16A.21.21,0,0,1,357.53,407.12Zm-1.84-3.06h-.1c-.33,0-.35.16-.35.2-.09.52,1.14,1.8,2.07,2.36a4.22,4.22,0,0,0-1-2.33A.92.92,0,0,0,355.69,404.06Z" style="fill: #134069; transform-origin: 356.298px 405.421px;" id="el4y05lua39yc" class="animable"></path><path d="M393.5,273l-7.4,2,6.13,7.43s5.93-3.07,4.65-6.4Z" style="fill: rgb(255, 139, 123); transform-origin: 391.58px 277.715px;" id="elpq3g0a8elj" class="animable"></path><polygon points="380.74 281.17 386.1 286.99 392.23 282.42 386.1 274.99 380.74 281.17" style="fill: rgb(255, 139, 123); transform-origin: 386.485px 280.99px;" id="elxggpoyse29i" class="animable"></polygon></g><g id="freepik--character--inject-569" class="animable" style="transform-origin: 180.847px 276.514px;"><path d="M141.63,193c-1.67,1.7-3.46,3.59-5.11,5.47s-3.3,3.81-4.85,5.79-3,4-4.43,6l-1,1.55-1,1.57c-.33.53-.62,1.06-.91,1.6l-.79,1.45a7.91,7.91,0,0,0-.54,2.6,24.67,24.67,0,0,0,0,3.44,64.39,64.39,0,0,0,.95,7.37c.43,2.49,1,5,1.57,7.48s1.23,5,1.88,7.47l-3.66,1.37a106,106,0,0,1-5.56-15,60.13,60.13,0,0,1-1.74-8,30.68,30.68,0,0,1-.31-4.37,14,14,0,0,1,.86-5.06c.22-.55.35-.77.5-1.1l.45-.94c.3-.63.61-1.25.94-1.85l1-1.82,1-1.77a76,76,0,0,1,4.56-6.75c1.62-2.16,3.3-4.28,5.07-6.3s3.56-4,5.61-5.92Z" style="fill: rgb(181, 91, 82); transform-origin: 128.879px 216.72px;" id="el0xsh2dzzxz4" class="animable"></path><path d="M142.05,181.09c-5.35.24-10.44,9.13-10.44,9.13l6.33,12.92s10.33-6.46,10.46-14.31C148.48,183.73,147.32,180.85,142.05,181.09Z" style="fill: #134069; transform-origin: 140.007px 192.108px;" id="el1bkd3rrg0ey" class="animable"></path><g id="eloqigeuz4ez"><path d="M142.05,181.09c-5.35.24-10.44,9.13-10.44,9.13l6.33,12.92s10.33-6.46,10.46-14.31C148.48,183.73,147.32,180.85,142.05,181.09Z" style="opacity: 0.5; transform-origin: 140.007px 192.108px;" class="animable" id="elrgpg2a0dul9"></path></g><path d="M126.39,243.29l6.52,1.94-4.34,4.39s-4.69-1.45-5.35-4.64Z" style="fill: rgb(181, 91, 82); transform-origin: 128.065px 246.455px;" id="els2j5zzq5hbg" class="animable"></path><polygon points="136.85 250.24 135.76 254.44 128.57 249.62 132.91 245.23 136.85 250.24" style="fill: rgb(181, 91, 82); transform-origin: 132.71px 249.835px;" id="el3d4z65hbudb" class="animable"></polygon><g id="elq5iq4ngjug"><rect x="128.87" y="208.64" width="158.18" height="59.64" style="fill: #134069; transform-origin: 207.96px 238.46px; transform: rotate(-1.37deg);" class="animable" id="elnu9rice99be"></rect></g><g id="elx47h4yvptsg"><rect x="128.87" y="208.64" width="158.18" height="59.64" style="fill: rgb(255, 255, 255); opacity: 0.6; transform-origin: 207.96px 238.46px; transform: rotate(-1.37deg);" class="animable" id="eltqqta6kfz9a"></rect></g><g id="eldekuerpi77l"><rect x="219.67" y="212.4" width="58.97" height="22.23" style="fill: #134069; transform-origin: 249.155px 223.515px; transform: rotate(-1.37deg);" class="animable" id="elisxzb330hv"></rect></g><g id="ell7lrt5xhxm"><rect x="219.67" y="212.4" width="58.97" height="22.23" style="fill: rgb(255, 255, 255); opacity: 0.7; transform-origin: 249.155px 223.515px; transform: rotate(-1.37deg);" class="animable" id="elljlzaknhl3e"></rect></g><g id="el77kqfbcwk0o"><rect x="188.07" y="240.06" width="58.97" height="22.23" style="fill: #134069; transform-origin: 217.555px 251.175px; transform: rotate(-1.37deg);" class="animable" id="el8ykncbt5x2n"></rect></g><g id="el4ibhkjplqwf"><rect x="188.07" y="240.06" width="58.97" height="22.23" style="fill: rgb(255, 255, 255); opacity: 0.7; transform-origin: 217.555px 251.175px; transform: rotate(-1.37deg);" class="animable" id="elz718qdpobj9"></rect></g><path d="M179,161.39c-.1.61.14,1.17.54,1.24s.81-.35.92-1-.15-1.17-.55-1.25S179.05,160.77,179,161.39Z" style="fill: rgb(38, 50, 56); transform-origin: 179.731px 161.504px;" id="eln8eaxexxz9" class="animable"></path><path d="M179.68,160.42l1.54-.14S180.28,161.28,179.68,160.42Z" style="fill: rgb(38, 50, 56); transform-origin: 180.45px 160.525px;" id="elr1q96jwtv2k" class="animable"></path><path d="M179.37,162.08a17.19,17.19,0,0,0,1.55,4.33,2.71,2.71,0,0,1-2.26,0Z" style="fill: rgb(160, 39, 36); transform-origin: 179.79px 164.368px;" id="el2mxmv0oc4b9" class="animable"></path><path d="M180.45,157.47a.34.34,0,0,1-.17-.05,3,3,0,0,0-2.69-.16.36.36,0,0,1-.49-.16.35.35,0,0,1,.15-.49,3.71,3.71,0,0,1,3.37.17.36.36,0,0,1,.15.49A.35.35,0,0,1,180.45,157.47Z" style="fill: rgb(38, 50, 56); transform-origin: 178.933px 156.877px;" id="elzyw70owu8j" class="animable"></path><path d="M159.41,166.43c.15,4.67-.33,13.09-4,15.47,0,0,.48,4.81,8.89,6.43,9.24,1.79,5.17-3.7,5.17-3.7-4.85-2.18-4.1-5.87-2.64-9.2Z" style="fill: rgb(181, 91, 82); transform-origin: 162.886px 177.559px;" id="el8stgo1go61" class="animable"></path><path d="M184.59,193.68c.58,2.33,1.31,4.88,2.11,7.28s1.7,4.8,2.71,7.11a51.21,51.21,0,0,0,3.44,6.58,26.64,26.64,0,0,0,4.31,5.46A14,14,0,0,0,199.7,222a9.67,9.67,0,0,0,1.33.66l.42.16a1.59,1.59,0,0,0,.34.06,5.11,5.11,0,0,0,2.32-.5,17.21,17.21,0,0,0,2.89-1.65A64.48,64.48,0,0,0,218,210.23l3.26,2.17c-.69,1.26-1.4,2.41-2.15,3.58s-1.55,2.29-2.4,3.4a42.08,42.08,0,0,1-5.77,6.32,21.63,21.63,0,0,1-3.82,2.69,11.74,11.74,0,0,1-5.36,1.52,9.35,9.35,0,0,1-1.65-.14,9.81,9.81,0,0,1-1.5-.41,16.35,16.35,0,0,1-2.3-1,20.85,20.85,0,0,1-4-2.72c-4.75-4.13-7.65-9.23-10-14.33a72.13,72.13,0,0,1-3.09-7.82,75.1,75.1,0,0,1-2.28-8.13Z" style="fill: rgb(181, 91, 82); transform-origin: 199.1px 211.795px;" id="elyuqnj5rzi1m" class="animable"></path><path d="M217.56,210.62l2.27-4.16,6.3,1.67s-3.78,5.75-7,5.76Z" style="fill: rgb(181, 91, 82); transform-origin: 221.845px 210.175px;" id="eldrtkacy67f7" class="animable"></path><polygon points="224.96 204.96 229.75 208.13 226.13 208.13 219.82 206.46 224.96 204.96" style="fill: rgb(181, 91, 82); transform-origin: 224.785px 206.545px;" id="el7izf8drrpdi" class="animable"></polygon><polygon points="139.3 406.4 147.02 406.96 149.31 389.24 141.59 388.67 139.3 406.4" style="fill: rgb(181, 91, 82); transform-origin: 144.305px 397.815px;" id="ellq9z1djoex" class="animable"></polygon><polygon points="78.56 368.28 83.89 374.01 98.36 363.65 93.02 357.92 78.56 368.28" style="fill: rgb(181, 91, 82); transform-origin: 88.46px 365.965px;" id="elcwcec47gmd8" class="animable"></polygon><path d="M86.23,373.12l-4.46-7.6a.61.61,0,0,0-.76-.28l-6.34,2.56a1.23,1.23,0,0,0-.53,1.77c1.59,2.62,2.49,3.81,4.45,7.15,1.2,2,2.76,5.18,4.42,8s4.48,1.39,4,.06c-2-5.95-1-7.68-.56-10.32A2.07,2.07,0,0,0,86.23,373.12Z" style="fill: rgb(38, 50, 56); transform-origin: 80.5086px 375.772px;" id="el79e3o8iw1hk" class="animable"></path><path d="M147.5,405.87h-8.67a.62.62,0,0,0-.63.52L137,413.26a1.21,1.21,0,0,0,1.2,1.37c3-.05,4.49-.23,8.31-.23,2.35,0,7.2.25,10.44.25s3.49-3.21,2.15-3.5c-6-1.3-8.35-3.1-10.35-4.81A2,2,0,0,0,147.5,405.87Z" style="fill: rgb(38, 50, 56); transform-origin: 148.427px 410.26px;" id="elfosysopwmu" class="animable"></path><polygon points="149.31 389.24 148.04 399.1 140.41 397.82 141.59 388.68 149.31 389.24" style="fill: rgb(158, 69, 65); transform-origin: 144.86px 393.89px;" id="elxyun0ffavbs" class="animable"></polygon><polygon points="93.02 357.92 98.36 363.65 92.37 367.94 86.84 362.34 93.02 357.92" style="fill: rgb(158, 69, 65); transform-origin: 92.6px 362.93px;" id="el3pa3x946p4u" class="animable"></polygon><path d="M139.88,228.11l31,6C185.47,191,182,189.65,182,189.65a64.4,64.4,0,0,0-7-3.27l-.42-.15c-2-.73-2.4-.83-5.05-1.61-4.56-1.07-8.81-2-14.06-2.71l-1-.14c-.95-.12-1.89-.22-2.8-.31-.62-.07-1.23-.11-1.82-.15l-2-.11c-3.38-.16-5.8-.11-5.8-.11C143.76,208,142.47,215.69,139.88,228.11Z" style="fill: #134069; transform-origin: 161.12px 207.596px;" id="el5zx25xzi8ze" class="animable"></path><g id="elexbs64qm3o5"><path d="M139.88,228.11l31,6C185.47,191,182,189.65,182,189.65a64.4,64.4,0,0,0-7-3.27l-.42-.15c-2-.73-2.4-.83-5.05-1.61-4.56-1.07-8.81-2-14.06-2.71l-1-.14c-.95-.12-1.89-.22-2.8-.31-.62-.07-1.23-.11-1.82-.15l-2-.11c-3.38-.16-5.8-.11-5.8-.11C143.76,208,142.47,215.69,139.88,228.11Z" style="opacity: 0.5; transform-origin: 161.12px 207.596px;" class="animable" id="eln77z556lm4"></path></g><path d="M175.71,202.75a26.14,26.14,0,0,0,.91,13.51c2.57-8.42,4-14.18,4.82-18.12C179.07,197.83,176.54,198.6,175.71,202.75Z" style="fill: #134069; transform-origin: 178.328px 207.169px;" id="el99335ss4he" class="animable"></path><g id="elizlaykzfb7a"><path d="M175.71,202.75a26.14,26.14,0,0,0,.91,13.51c2.57-8.42,4-14.18,4.82-18.12C179.07,197.83,176.54,198.6,175.71,202.75Z" style="opacity: 0.6; transform-origin: 178.328px 207.169px;" class="animable" id="elagelf2s22gm"></path></g><path d="M181.71,189.5c5.17,3.37,8.46,10.88,9.33,15.17l-12,9.77s-6.53-14.58-4.39-18.3C176.9,192.26,179.76,188.23,181.71,189.5Z" style="fill: #134069; transform-origin: 182.63px 201.851px;" id="elhgvrlnbwzdo" class="animable"></path><g id="elr67k4ewwij"><path d="M181.71,189.5c5.17,3.37,8.46,10.88,9.33,15.17l-12,9.77s-6.53-14.58-4.39-18.3C176.9,192.26,179.76,188.23,181.71,189.5Z" style="opacity: 0.5; transform-origin: 182.63px 201.851px;" class="animable" id="elao6jme8ytq"></path></g><path d="M158.65,155.72c-.77,7.6-1.27,10.8,1.91,15.39,4.78,6.91,14.32,6.48,17.36-.67,2.74-6.43,3.55-17.78-3.35-22.2A10.22,10.22,0,0,0,158.65,155.72Z" style="fill: rgb(181, 91, 82); transform-origin: 168.999px 161.264px;" id="el81065dx8iqn" class="animable"></path><path d="M158.76,140.21c-4.67,3.46-1.68,4.29-3.67,7.78-2.13,3.74-4.37-.52-8.61,3.59-2.75,2.67,2,5.5-1.47,10.2-2.66,3.65-5.54.49-4.42,8,.77,5.11-2.36,4.47-4.47,7.36-3,4.14-.31,7.11,7.41,8.67s2.22,9.32,9.48,9.55c7.92.26,6.08-10.06,9.94-7.55s10.89.22,10.46-5.95c-.38-5.66-6.67-5.46-1.58-9.33,4-3,5.21-3,2.39-9.44-2.39-5.48,6.39-4.64,6.23-9.39-.3-8.57-6.23-6-8.1-10.39C171.14,140.43,164.74,135.77,158.76,140.21Z" style="fill: rgb(38, 50, 56); transform-origin: 157.687px 166.871px;" id="eln2t4otfuri" class="animable"></path><path d="M173.42,159.68a6.87,6.87,0,0,0,1.37,3.93c1.18,1.61,2.57,1.19,2.91-.29.31-1.33.07-3.77-1.44-4.89S173.43,158.09,173.42,159.68Z" style="fill: rgb(181, 91, 82); transform-origin: 175.619px 161.271px;" id="el9vuvxsy22km" class="animable"></path><path d="M162.67,232.53s-15.08,50.51-22.45,79.6c-7.78,30.7-44.88,55.71-44.88,55.71L87.43,360s24.8-20.93,32.33-49.58c15.29-58.14,7.93-70.46,20.12-82.28Z" style="fill: #134069; transform-origin: 125.05px 297.99px;" id="el3qd5eecqeg2" class="animable"></path><g id="eltsse1chnkwp"><path d="M162.67,232.53s-15.08,50.51-22.45,79.6c-7.78,30.7-44.88,55.71-44.88,55.71L87.43,360s24.8-20.93,32.33-49.58c15.29-58.14,7.93-70.46,20.12-82.28Z" style="fill: rgb(255, 255, 255); opacity: 0.8; transform-origin: 125.05px 297.99px;" class="animable" id="elxu2mhxhuuqr"></path></g><polygon points="96.03 368.99 86.14 359.16 88.83 356.18 100.86 366.42 96.03 368.99" style="fill: #134069; transform-origin: 93.5px 362.585px;" id="elgrh82j3d1d" class="animable"></polygon><path d="M155.59,243.29c-9.9,7.63-10.56,36.71-10.33,49.85,5-18.37,11-38.8,14.46-50.62C158.77,241.72,157.41,241.88,155.59,243.29Z" style="fill: #134069; transform-origin: 152.473px 267.59px;" id="eloa06yqrbad" class="animable"></path><g id="el43ppo8pigki"><path d="M155.59,243.29c-9.9,7.63-10.56,36.71-10.33,49.85,5-18.37,11-38.8,14.46-50.62C158.77,241.72,157.41,241.88,155.59,243.29Z" style="fill: rgb(255, 255, 255); opacity: 0.6; transform-origin: 152.473px 267.59px;" class="animable" id="elwgpoex90t7"></path></g><path d="M87.83,377.24a.86.86,0,0,1-.28,0c-.94-.29-1.61-2-1.93-3a.18.18,0,0,1,.06-.19.17.17,0,0,1,.2,0c.29.14,2.79,1.45,2.89,2.43a.64.64,0,0,1-.26.57A1.07,1.07,0,0,1,87.83,377.24Zm-1.71-2.73c.46,1.32,1,2.18,1.53,2.34a.68.68,0,0,0,.64-.17.24.24,0,0,0,.11-.24C88.35,375.92,87.1,375.06,86.12,374.51Z" style="fill: #134069; transform-origin: 87.1926px 375.634px;" id="elsgc1zv05zbs" class="animable"></path><path d="M170.38,234.11s1.93,61.12-2.39,84.14c-4.49,23.94-18.17,78.41-18.17,78.41l-11.13-1.44s7-55,10-78.81c3.25-25.94-1-86.69-1-86.69Z" style="fill: #134069; transform-origin: 154.75px 313.19px;" id="el59nof0og555" class="animable"></path><g id="elv99rogvjne7"><path d="M170.38,234.11s1.93,61.12-2.39,84.14c-4.49,23.94-18.17,78.41-18.17,78.41l-11.13-1.44s7-55,10-78.81c3.25-25.94-1-86.69-1-86.69Z" style="fill: rgb(255, 255, 255); opacity: 0.8; transform-origin: 154.75px 313.19px;" class="animable" id="el8y34mwn0lv"></path></g><polygon points="152.19 397.29 136.32 395.25 136.51 391.48 153.78 392.23 152.19 397.29" style="fill: #134069; transform-origin: 145.05px 394.385px;" id="elz9m3mreci7" class="animable"></polygon><path d="M88.08,374.83a5.69,5.69,0,0,1-2.38-.54.22.22,0,0,1-.09-.16.2.2,0,0,1,.1-.16c.08-.05,2-1.14,3-.79a1,1,0,0,1,.62.56.64.64,0,0,1-.13.8A1.77,1.77,0,0,1,88.08,374.83Zm-1.88-.71c.87.35,2.38.5,2.78.14.07-.05.13-.15,0-.37a.59.59,0,0,0-.39-.36A4.11,4.11,0,0,0,86.2,374.12Z" style="fill: #134069; transform-origin: 87.513px 373.973px;" id="el66pxrojxttu" class="animable"></path><path d="M150.37,407.22a13,13,0,0,1-2.42-.28.19.19,0,0,1-.15-.15.18.18,0,0,1,.1-.19c.35-.18,3.48-1.76,4.41-1.23a.59.59,0,0,1,.3.48,1,1,0,0,1-.36.89A2.9,2.9,0,0,1,150.37,407.22Zm-1.81-.54c1.7.28,3,.21,3.45-.21a.67.67,0,0,0,.23-.59.23.23,0,0,0-.11-.2C151.62,405.4,149.85,406.07,148.56,406.68Z" style="fill: #134069; transform-origin: 150.207px 406.247px;" id="el5r19mh8evt2" class="animable"></path><path d="M148,406.94a.19.19,0,0,1-.1,0,.19.19,0,0,1-.08-.17c0-.14.41-3.49,2.25-3.29.5.05.65.31.68.51.14.87-1.73,2.55-2.67,3Zm1.93-3.13c-1.12,0-1.56,1.84-1.69,2.62,1-.57,2.23-1.89,2.15-2.41,0,0,0-.17-.36-.2Z" style="fill: #134069; transform-origin: 149.288px 405.231px;" id="elj0pdct39y4e" class="animable"></path><path d="M139.72,226.22l-1.85,2.48c-.15.2.07.46.43.53l32.47,6.29c.28.06.54,0,.58-.21l.74-2.7c0-.19-.17-.39-.47-.45l-31.36-6.08A.55.55,0,0,0,139.72,226.22Z" style="fill: #134069; transform-origin: 154.956px 230.8px;" id="elhkedrertf1m" class="animable"></path><path d="M143.35,230.52l-.84-.16c-.16,0-.28-.15-.25-.25l1-3.5c0-.1.19-.16.35-.13l.84.16c.17,0,.28.15.25.25l-1,3.5C143.68,230.49,143.52,230.55,143.35,230.52Z" style="fill: #134069; transform-origin: 143.48px 228.5px;" id="elvkv2emdo1a" class="animable"></path><g id="elf2jl8u315d9"><path d="M143.35,230.52l-.84-.16c-.16,0-.28-.15-.25-.25l1-3.5c0-.1.19-.16.35-.13l.84.16c.17,0,.28.15.25.25l-1,3.5C143.68,230.49,143.52,230.55,143.35,230.52Z" style="fill: rgb(255, 255, 255); opacity: 0.8; transform-origin: 143.48px 228.5px;" class="animable" id="eldfl96lc0mkp"></path></g><path d="M164.56,234.68l-.84-.17c-.17,0-.28-.14-.25-.24l1-3.51c0-.1.19-.16.36-.12l.84.16c.17,0,.28.14.25.25l-1,3.5C164.89,234.65,164.73,234.71,164.56,234.68Z" style="fill: #134069; transform-origin: 164.695px 232.658px;" id="elxuie10a7ijd" class="animable"></path><g id="el2pvssaaaey9"><path d="M164.56,234.68l-.84-.17c-.17,0-.28-.14-.25-.24l1-3.51c0-.1.19-.16.36-.12l.84.16c.17,0,.28.14.25.25l-1,3.5C164.89,234.65,164.73,234.71,164.56,234.68Z" style="fill: rgb(255, 255, 255); opacity: 0.8; transform-origin: 164.695px 232.658px;" class="animable" id="ela8alz8b3jp5"></path></g></g><defs>     <filter id="active" height="200%">         <feMorphology in="SourceAlpha" result="DILATED" operator="dilate" radius="2"></feMorphology>                <feFlood flood-color="#32DFEC" flood-opacity="1" result="PINK"></feFlood>        <feComposite in="PINK" in2="DILATED" operator="in" result="OUTLINE"></feComposite>        <feMerge>            <feMergeNode in="OUTLINE"></feMergeNode>            <feMergeNode in="SourceGraphic"></feMergeNode>        </feMerge>    </filter>    <filter id="hover" height="200%">        <feMorphology in="SourceAlpha" result="DILATED" operator="dilate" radius="2"></feMorphology>                <feFlood flood-color="#ff0000" flood-opacity="0.5" result="PINK"></feFlood>        <feComposite in="PINK" in2="DILATED" operator="in" result="OUTLINE"></feComposite>        <feMerge>            <feMergeNode in="OUTLINE"></feMergeNode>            <feMergeNode in="SourceGraphic"></feMergeNode>        </feMerge>            <feColorMatrix type="matrix" values="0   0   0   0   0                0   1   0   0   0                0   0   0   0   0                0   0   0   1   0 "></feColorMatrix>    </filter></defs></svg>